<?xml version="1.0" encoding="utf-8"?>
<!-- Generator: Adobe Illustrator 27.8.1, SVG Export Plug-In . SVG Version: 6.00 Build 0)  -->
<svg version="1.1" id="Calque_1" xmlns="http://www.w3.org/2000/svg" xmlns:xlink="http://www.w3.org/1999/xlink" x="0px" y="0px"
	 viewBox="0 0 65 65" style="enable-background:new 0 0 65 65;" xml:space="preserve">
<style type="text/css">
	.st0{fill:#3BEABC;}
	.st1{display:none;fill:none;stroke:#000000;stroke-width:1.5;stroke-linecap:round;stroke-linejoin:round;}
	.st2{display:none;}
	.st3{display:inline;}
</style>
<circle class="st0" cx="32.5" cy="32.5" r="31.5"/>
<path class="st1" d="M28.5,48.4c-5.3-1.4-8.2-7.1-6.2-12.2l2.9-7.5c1.6-4.1,6.1-6.4,10.4-5.2c4.4,1.2,7.1,5.5,6.2,9.9l-1.6,7.9
	C39.1,46.5,33.7,49.8,28.5,48.4z"/>
<path class="st1" d="M39,25.3c0.6-0.5,1-1.2,1.2-2c0.7-2.4-0.7-4.9-3.2-5.5c-2.4-0.7-4.9,0.8-5.6,3.2c-0.2,0.8-0.2,1.6,0,2.4"/>
<path class="st1" d="M28.5,48.3l4.4-15.6"/>
<path class="st1" d="M31.4,23.3l-5.9-1.6l-2.1-3.6"/>
<path class="st1" d="M25,28.7l-3.7-1L18,23.4"/>
<path class="st1" d="M21.9,37l-3.7-1l-3.5,3.2"/>
<path class="st1" d="M22.6,43.5L19.7,45L17,47.3"/>
<path class="st1" d="M39.2,25.4l5.9,1.6l3.7-2"/>
<path class="st1" d="M41.9,33.3l3.7,1l5.1-2"/>
<path class="st1" d="M40.2,42l3.7,1l1.4,4.5"/>
<path class="st1" d="M36.3,47.2L38,50l1.1,3.3"/>
<path class="st1" d="M34.2,17.9c0,0-1.1-2.7,1.5-4.4"/>
<path class="st1" d="M39.5,19.3c0,0,2.3-1.8,0.9-4.5"/>
<g class="st2">
	<g class="st3">
		<path d="M45.6,26.9h-26c-0.3,0-0.6-0.3-0.6-0.6s0.3-0.6,0.6-0.6h26c0.3,0,0.6,0.3,0.6,0.6S45.9,26.9,45.6,26.9z"/>
		<path d="M51.9,51.5H13.1c-0.3,0-0.6-0.3-0.6-0.6V23.2c0-1.6,1.3-3,3-3h7.9c1.2,0,2.3,0.7,2.8,1.9l1.6,4c0.1,0.3,0,0.6-0.3,0.7
			c-0.3,0.1-0.6,0-0.7-0.3l-1.6-4c-0.3-0.7-0.9-1.1-1.7-1.1h-7.9c-1,0-1.8,0.8-1.8,1.8v27.1h37.7v-24c0-0.3,0.3-0.6,0.6-0.6
			s0.6,0.3,0.6,0.6v24.6C52.5,51.2,52.2,51.5,51.9,51.5z"/>
	</g>
	<g class="st3">
		<path d="M43.3,39.1c-3.5,0-6.4-2.8-6.4-6.3v-1c-0.4,0.6-0.8,0.9-0.8,0.9c-0.2,0.2-0.6,0.2-0.8,0c-0.2-0.2-0.2-0.6,0-0.8
			c0,0,1.5-1.4,1.6-3.3v-0.4c0-0.3,0.3-0.6,0.6-0.6c0.3,0,0.6,0.2,0.6,0.6c0,0.1,0,0.3,0,0.4v4.2c0,2.9,2.3,5.2,5.2,5.2
			c2.9,0,5.2-2.3,5.2-5.2v-8.5c0-0.3,0.3-0.6,0.6-0.6s0.6,0.3,0.6,0.6v8.5C49.7,36.2,46.8,39.1,43.3,39.1L43.3,39.1z"/>
		<path d="M48,25.2c-0.2,0-0.4-0.1-0.5-0.4c-0.1-0.3,0-0.6,0.3-0.7l1.9-0.7c0.3-0.1,0.6,0,0.7,0.3c0.1,0.3,0,0.6-0.3,0.7l-1.9,0.7
			C48.1,25.2,48,25.2,48,25.2L48,25.2z"/>
		<path d="M48,23.6c-0.2,0-0.4-0.1-0.5-0.4c-0.1-0.3,0-0.6,0.3-0.7l1.9-0.7c0.3-0.1,0.6,0,0.7,0.3c0.1,0.3,0,0.6-0.3,0.7l-1.9,0.7
			C48.1,23.5,48,23.6,48,23.6L48,23.6z"/>
		<path d="M48,21.9c-0.2,0-0.4-0.1-0.5-0.4c-0.1-0.3,0-0.6,0.3-0.7l1.9-0.7c0.3-0.1,0.6,0,0.7,0.3c0.1,0.3,0,0.6-0.3,0.7l-1.9,0.7
			C48.1,21.9,48,21.9,48,21.9L48,21.9z"/>
		<path d="M48,20.3c-0.2,0-0.4-0.1-0.5-0.4c-0.1-0.3,0-0.6,0.3-0.7l1.9-0.7c0.3-0.1,0.6,0,0.7,0.3c0.1,0.3,0,0.6-0.3,0.7l-1.9,0.7
			C48.1,20.3,48,20.3,48,20.3L48,20.3z"/>
		<path d="M49.1,19.9c-0.3,0-0.6-0.3-0.6-0.6v-1.6c0-0.2-0.1-0.4-0.3-0.5c-0.7-0.4-1.1-1-1.1-1.7c0-1.1,0.9-2,2-2l0,0
			c0.5,0,1,0.2,1.4,0.6c0.4,0.4,0.6,0.9,0.6,1.4c0,0.4-0.1,0.7-0.3,1c-0.2,0.3-0.5,0.3-0.8,0.2c-0.3-0.2-0.3-0.5-0.2-0.8
			c0.1-0.1,0.1-0.3,0.1-0.4c0-0.2-0.1-0.4-0.2-0.6c-0.2-0.2-0.4-0.3-0.6-0.3l0,0c-0.5,0-0.8,0.4-0.8,0.8c0,0.1,0,0.4,0.5,0.7
			c0.6,0.3,0.9,0.9,0.9,1.5v1.6C49.7,19.6,49.4,19.9,49.1,19.9z"/>
	</g>
	<path class="st3" d="M48.9,48.5H16.6c-0.3,0-0.6-0.3-0.6-0.6V29.5c0-0.3,0.3-0.6,0.6-0.6h15.9c0.3,0,0.6,0.3,0.6,0.6
		S32.8,30,32.5,30H17.2v17.3h31.1v-8c0-0.3,0.3-0.6,0.6-0.6c0.3,0,0.6,0.3,0.6,0.6V48C49.5,48.3,49.2,48.5,48.9,48.5z"/>
	<path class="st3" d="M25.6,39.3l-0.3,0.5l-1-0.6v1.2h-0.6v-1.2l-1,0.6l-0.3-0.5l1-0.6l-1-0.6l0.3-0.5l1,0.6V37h0.6v1.2l1-0.6
		l0.3,0.5l-1,0.6L25.6,39.3L25.6,39.3z"/>
	<path class="st3" d="M30.4,39.3l-0.3,0.5l-1-0.6v1.2h-0.6v-1.2l-1,0.6l-0.3-0.5l1-0.6l-1-0.6l0.3-0.5l1,0.6V37h0.6v1.2l1-0.6
		l0.3,0.5l-1,0.6L30.4,39.3L30.4,39.3z"/>
	<path class="st3" d="M35.3,39.3l-0.3,0.5l-1-0.6v1.2h-0.6v-1.2l-1,0.6l-0.3-0.5l1-0.6l-1-0.6l0.3-0.5l1,0.6V37H34v1.2l1-0.6
		l0.3,0.5l-1,0.6L35.3,39.3L35.3,39.3z"/>
	<path class="st3" d="M43.9,43H21.5c-0.3,0-0.6-0.3-0.6-0.6s0.3-0.6,0.6-0.6h22.4c0.3,0,0.6,0.3,0.6,0.6S44.3,43,43.9,43z"/>
</g>
</svg>
