<?xml version="1.0" encoding="utf-8"?>
<!-- Generator: Adobe Illustrator 27.8.1, SVG Export Plug-In . SVG Version: 6.00 Build 0)  -->
<svg version="1.1" id="Calque_1" xmlns="http://www.w3.org/2000/svg" xmlns:xlink="http://www.w3.org/1999/xlink" x="0px" y="0px"
	 viewBox="0 0 65 65" style="enable-background:new 0 0 65 65;" xml:space="preserve">
<style type="text/css">
	.st0{fill:#3BEABC;}
	.st1{display:none;fill:none;stroke:#000000;stroke-width:1.5;stroke-linecap:round;stroke-linejoin:round;}
	.st2{display:none;}
	.st3{display:inline;}
</style>
<circle class="st0" cx="32.5" cy="32.5" r="31.5"/>
<path class="st1" d="M28.5,48.4c-5.3-1.4-8.2-7.1-6.2-12.2l2.9-7.5c1.6-4.1,6.1-6.4,10.4-5.2c4.4,1.2,7.1,5.5,6.2,9.9l-1.6,7.9
	C39.1,46.5,33.7,49.8,28.5,48.4z"/>
<path class="st1" d="M39,25.3c0.6-0.5,1-1.2,1.2-2c0.7-2.4-0.7-4.9-3.2-5.5c-2.4-0.7-4.9,0.8-5.6,3.2c-0.2,0.8-0.2,1.6,0,2.4"/>
<path class="st1" d="M28.5,48.3l4.4-15.6"/>
<path class="st1" d="M31.4,23.3l-5.9-1.6l-2.1-3.6"/>
<path class="st1" d="M25,28.7l-3.7-1L18,23.4"/>
<path class="st1" d="M21.9,37l-3.7-1l-3.5,3.2"/>
<path class="st1" d="M22.6,43.5L19.7,45L17,47.3"/>
<path class="st1" d="M39.2,25.4l5.9,1.6l3.7-2"/>
<path class="st1" d="M41.9,33.3l3.7,1l5.1-2"/>
<path class="st1" d="M40.2,42l3.7,1l1.4,4.5"/>
<path class="st1" d="M36.3,47.2L38,50l1.1,3.3"/>
<path class="st1" d="M34.2,17.9c0,0-1.1-2.7,1.5-4.4"/>
<path class="st1" d="M39.5,19.3c0,0,2.3-1.8,0.9-4.5"/>
<g class="st2">
	<g class="st3">
		<path d="M45.6,26.9h-26c-0.3,0-0.6-0.3-0.6-0.6s0.3-0.6,0.6-0.6h26c0.3,0,0.6,0.3,0.6,0.6S45.9,26.9,45.6,26.9z"/>
		<path d="M51.9,51.5H13.1c-0.3,0-0.6-0.3-0.6-0.6V23.2c0-1.6,1.3-3,3-3h7.9c1.2,0,2.3,0.7,2.8,1.9l1.6,4c0.1,0.3,0,0.6-0.3,0.7
			c-0.3,0.1-0.6,0-0.7-0.3l-1.6-4c-0.3-0.7-0.9-1.1-1.7-1.1h-7.9c-1,0-1.8,0.8-1.8,1.8v27.1h37.7v-24c0-0.3,0.3-0.6,0.6-0.6
			s0.6,0.3,0.6,0.6v24.6C52.5,51.2,52.2,51.5,51.9,51.5z"/>
	</g>
	<g class="st3">
		<path d="M43.3,39.1c-3.5,0-6.4-2.8-6.4-6.3v-1c-0.4,0.6-0.8,0.9-0.8,0.9c-0.2,0.2-0.6,0.2-0.8,0c-0.2-0.2-0.2-0.6,0-0.8
			c0,0,1.5-1.4,1.6-3.3v-0.4c0-0.3,0.3-0.6,0.6-0.6c0.3,0,0.6,0.2,0.6,0.6c0,0.1,0,0.3,0,0.4v4.2c0,2.9,2.3,5.2,5.2,5.2
			c2.9,0,5.2-2.3,5.2-5.2v-8.5c0-0.3,0.3-0.6,0.6-0.6s0.6,0.3,0.6,0.6v8.5C49.7,36.2,46.8,39.1,43.3,39.1L43.3,39.1z"/>
		<path d="M48,25.2c-0.2,0-0.4-0.1-0.5-0.4c-0.1-0.3,0-0.6,0.3-0.7l1.9-0.7c0.3-0.1,0.6,0,0.7,0.3c0.1,0.3,0,0.6-0.3,0.7l-1.9,0.7
			C48.1,25.2,48,25.2,48,25.2L48,25.2z"/>
		<path d="M48,23.6c-0.2,0-0.4-0.1-0.5-0.4c-0.1-0.3,0-0.6,0.3-0.7l1.9-0.7c0.3-0.1,0.6,0,0.7,0.3c0.1,0.3,0,0.6-0.3,0.7l-1.9,0.7
			C48.1,23.5,48,23.6,48,23.6L48,23.6z"/>
		<path d="M48,21.9c-0.2,0-0.4-0.1-0.5-0.4c-0.1-0.3,0-0.6,0.3-0.7l1.9-0.7c0.3-0.1,0.6,0,0.7,0.3c0.1,0.3,0,0.6-0.3,0.7l-1.9,0.7
			C48.1,21.9,48,21.9,48,21.9L48,21.9z"/>
		<path d="M48,20.3c-0.2,0-0.4-0.1-0.5-0.4c-0.1-0.3,0-0.6,0.3-0.7l1.9-0.7c0.3-0.1,0.6,0,0.7,0.3c0.1,0.3,0,0.6-0.3,0.7l-1.9,0.7
			C48.1,20.3,48,20.3,48,20.3L48,20.3z"/>
		<path d="M49.1,19.9c-0.3,0-0.6-0.3-0.6-0.6v-1.6c0-0.2-0.1-0.4-0.3-0.5c-0.7-0.4-1.1-1-1.1-1.7c0-1.1,0.9-2,2-2l0,0
			c0.5,0,1,0.2,1.4,0.6c0.4,0.4,0.6,0.9,0.6,1.4c0,0.4-0.1,0.7-0.3,1c-0.2,0.3-0.5,0.3-0.8,0.2c-0.3-0.2-0.3-0.5-0.2-0.8
			c0.1-0.1,0.1-0.3,0.1-0.4c0-0.2-0.1-0.4-0.2-0.6c-0.2-0.2-0.4-0.3-0.6-0.3l0,0c-0.5,0-0.8,0.4-0.8,0.8c0,0.1,0,0.4,0.5,0.7
			c0.6,0.3,0.9,0.9,0.9,1.5v1.6C49.7,19.6,49.4,19.9,49.1,19.9z"/>
	</g>
	<path class="st3" d="M48.9,48.5H16.6c-0.3,0-0.6-0.3-0.6-0.6V29.5c0-0.3,0.3-0.6,0.6-0.6h15.9c0.3,0,0.6,0.3,0.6,0.6
		S32.8,30,32.5,30H17.2v17.3h31.1v-8c0-0.3,0.3-0.6,0.6-0.6c0.3,0,0.6,0.3,0.6,0.6V48C49.5,48.3,49.2,48.5,48.9,48.5z"/>
	<path class="st3" d="M25.6,39.3l-0.3,0.5l-1-0.6v1.2h-0.6v-1.2l-1,0.6l-0.3-0.5l1-0.6l-1-0.6l0.3-0.5l1,0.6V37h0.6v1.2l1-0.6
		l0.3,0.5l-1,0.6L25.6,39.3L25.6,39.3z"/>
	<path class="st3" d="M30.4,39.3l-0.3,0.5l-1-0.6v1.2h-0.6v-1.2l-1,0.6l-0.3-0.5l1-0.6l-1-0.6l0.3-0.5l1,0.6V37h0.6v1.2l1-0.6
		l0.3,0.5l-1,0.6L30.4,39.3L30.4,39.3z"/>
	<path class="st3" d="M35.3,39.3l-0.3,0.5l-1-0.6v1.2h-0.6v-1.2l-1,0.6l-0.3-0.5l1-0.6l-1-0.6l0.3-0.5l1,0.6V37H34v1.2l1-0.6
		l0.3,0.5l-1,0.6L35.3,39.3L35.3,39.3z"/>
	<path class="st3" d="M43.9,43H21.5c-0.3,0-0.6-0.3-0.6-0.6s0.3-0.6,0.6-0.6h22.4c0.3,0,0.6,0.3,0.6,0.6S44.3,43,43.9,43z"/>
</g>
<g>
	<g>
		<path d="M40.9,57.5H23.6c-2.5,0-4.6-2.1-4.6-4.6v-28c0-0.4,0.3-0.7,0.7-0.7s0.7,0.3,0.7,0.7v28c0,1.8,1.4,3.2,3.2,3.2h17.3
			c0.4,0,0.7,0.3,0.7,0.7C41.6,57.2,41.3,57.5,40.9,57.5z"/>
		<path d="M41.3,28.9c-0.4,0-0.7-0.3-0.7-0.7v-3.4c0-0.4,0.3-0.7,0.7-0.7c0.4,0,0.7,0.3,0.7,0.7v3.4C41.9,28.6,41.6,28.9,41.3,28.9z
			"/>
		<path d="M41.3,25.6h-3.8c-0.4,0-0.7-0.3-0.7-0.7s0.3-0.7,0.7-0.7h3.1v-2.3c0-0.7-0.6-1.2-1.2-1.2H21.6c-0.7,0-1.2,0.6-1.2,1.2v2.3
			h10.9c0.4,0,0.7,0.3,0.7,0.7s-0.3,0.7-0.7,0.7H19.7c-0.4,0-0.7-0.3-0.7-0.7v-3c0-1.4,1.2-2.6,2.6-2.6h17.7c1.4,0,2.6,1.2,2.6,2.6
			v3C41.9,25.3,41.6,25.6,41.3,25.6z"/>
		<path d="M37.9,20.7c-0.4,0-0.7-0.3-0.7-0.7V8.9H23.7V20c0,0.4-0.3,0.7-0.7,0.7s-0.7-0.3-0.7-0.7V8.2c0-0.4,0.3-0.7,0.7-0.7h14.9
			c0.4,0,0.7,0.3,0.7,0.7V20C38.6,20.4,38.3,20.7,37.9,20.7z"/>
		<g>
			<path d="M28.7,15.4h-3.4c-0.4,0-0.7-0.3-0.7-0.7v-2.8c0-0.4,0.3-0.7,0.7-0.7h1.9c0.4,0,0.7,0.3,0.7,0.7s-0.3,0.7-0.7,0.7h-1.2V14
				H28v-0.7c0-0.4,0.3-0.7,0.7-0.7s0.7,0.3,0.7,0.7v1.4C29.4,15.1,29.1,15.4,28.7,15.4z"/>
			<path d="M35.7,15.4h-3.4c-0.4,0-0.7-0.3-0.7-0.7v-2.8c0-0.4,0.3-0.7,0.7-0.7h1.9c0.4,0,0.7,0.3,0.7,0.7s-0.3,0.7-0.7,0.7H33V14
				H35v-0.7c0-0.4,0.3-0.7,0.7-0.7c0.4,0,0.7,0.3,0.7,0.7v1.4C36.4,15.1,36.1,15.4,35.7,15.4z"/>
		</g>
	</g>
	<path d="M40.9,57.5c-0.4,0-0.7-0.3-0.7-0.7c0-0.4,0.3-0.7,0.7-0.7c3.1-0.1,6-1.4,8.2-3.6c3.5-3.6,4.5-8.9,2.5-13.5
		c-0.6-1.5-1.5-2.8-2.7-3.9c-1.2-1.2-2.5-2-4-2.6c-2.1-0.8-4.4-1.1-6.6-0.7c-2.6,0.4-4.9,1.6-6.8,3.5c-1.9,1.9-3.1,4.3-3.4,6.9
		c-0.5,3.9,0.8,7.7,3.5,10.4c0.3,0.3,0.3,0.7,0,1c-0.3,0.3-0.7,0.3-1,0c-3.1-3-4.5-7.3-3.9-11.6c0.4-2.9,1.7-5.6,3.8-7.7
		c2.1-2.1,4.6-3.4,7.5-3.9c2.5-0.4,5-0.1,7.3,0.8c1.7,0.7,3.2,1.7,4.5,2.9c1.3,1.2,2.2,2.7,2.9,4.3c2.2,5.1,1.1,11.1-2.8,15
		C47.6,55.9,44.4,57.3,40.9,57.5C40.9,57.5,40.9,57.5,40.9,57.5L40.9,57.5z"/>
	<g>
		<path d="M40.5,49.9c-1.1,0-2.1-0.5-2.8-1.2c-0.7-0.8-1.1-1.8-1-2.9l0.3-2.7c0.2-1.8,1.7-3.2,3.5-3.2c1.8,0,3.4,1.4,3.5,3.3
			l0.2,2.7c0.1,1-0.3,2.1-1,2.9C42.6,49.5,41.6,49.9,40.5,49.9L40.5,49.9z M40.5,41.3c-1.1,0-2.1,0.8-2.2,2l-0.3,2.7
			c-0.1,0.7,0.2,1.3,0.6,1.8c0.9,1,2.6,1,3.5,0c0.5-0.5,0.7-1.1,0.6-1.8l-0.2-2.7C42.6,42.2,41.7,41.3,40.5,41.3L40.5,41.3z"/>
		<path d="M39.2,41.6c-0.2,0-0.5-0.1-0.6-0.3c-0.2-0.3-0.3-0.7-0.3-1.1c0-1.2,1-2.2,2.2-2.2c1.2,0,2.2,1,2.2,2.2
			c0,0.4-0.1,0.8-0.3,1.1c-0.2,0.3-0.6,0.4-0.9,0.2c-0.3-0.2-0.4-0.6-0.2-0.9c0.1-0.1,0.1-0.3,0.1-0.4c0-0.4-0.4-0.8-0.8-0.8
			c-0.5,0-0.8,0.4-0.8,0.8c0,0.1,0,0.3,0.1,0.4c0.2,0.3,0.1,0.8-0.2,0.9C39.5,41.6,39.4,41.6,39.2,41.6L39.2,41.6z"/>
		<path d="M40.5,49.9c-0.4,0-0.7-0.3-0.7-0.7v-5.4c0-0.4,0.3-0.7,0.7-0.7c0.4,0,0.7,0.3,0.7,0.7v5.4C41.2,49.6,40.9,49.9,40.5,49.9z
			"/>
		<path d="M39.2,41.6h-2c-0.2,0-0.3-0.1-0.5-0.2l-1-1c-0.3-0.3-0.3-0.7,0-1c0.3-0.3,0.7-0.3,1,0l0.8,0.8h1.7c0.4,0,0.7,0.3,0.7,0.7
			C39.9,41.3,39.6,41.6,39.2,41.6L39.2,41.6z"/>
		<path d="M37.7,43.9h-1.3c-0.1,0-0.3,0-0.4-0.1l-1.4-1.1c-0.3-0.2-0.4-0.7-0.1-1s0.7-0.4,1-0.1l1.2,0.9h1c0.4,0,0.7,0.3,0.7,0.7
			C38.3,43.6,38,43.9,37.7,43.9L37.7,43.9z"/>
		<path d="M35.3,48.2c-0.1,0-0.2,0-0.4-0.1c-0.3-0.2-0.4-0.6-0.2-0.9l0.8-1.3c0.1-0.2,0.3-0.3,0.6-0.3h1.3c0.4,0,0.7,0.3,0.7,0.7
			c0,0.4-0.3,0.7-0.7,0.7h-0.9l-0.6,1C35.8,48.1,35.5,48.2,35.3,48.2L35.3,48.2z"/>
		<path d="M36.8,50.6c-0.1,0-0.3,0-0.4-0.1c-0.3-0.2-0.4-0.6-0.2-1l0.7-1c0,0,0.1-0.1,0.1-0.1l0.8-0.7c0.3-0.3,0.7-0.2,1,0
			c0.3,0.3,0.2,0.7,0,1L38,49.4l-0.6,0.9C37.2,50.5,37,50.6,36.8,50.6z"/>
		<path d="M43.9,41.6h-2c-0.4,0-0.7-0.3-0.7-0.7c0-0.4,0.3-0.7,0.7-0.7h1.7l0.8-0.8c0.3-0.3,0.7-0.3,1,0c0.3,0.3,0.3,0.7,0,1l-1,1
			C44.2,41.5,44,41.6,43.9,41.6L43.9,41.6z"/>
		<path d="M44.7,43.9h-1.3c-0.4,0-0.7-0.3-0.7-0.7c0-0.4,0.3-0.7,0.7-0.7h1l1.2-0.9c0.3-0.2,0.7-0.2,1,0.1c0.2,0.3,0.2,0.7-0.1,1
			l-1.4,1.1C45,43.9,44.8,43.9,44.7,43.9L44.7,43.9z"/>
		<path d="M45.8,48.2c-0.2,0-0.5-0.1-0.6-0.3l-0.6-1h-0.9c-0.4,0-0.7-0.3-0.7-0.7s0.3-0.7,0.7-0.7h1.3c0.2,0,0.5,0.1,0.6,0.3
			l0.8,1.3c0.2,0.3,0.1,0.7-0.2,0.9C46,48.1,45.9,48.2,45.8,48.2L45.8,48.2z"/>
		<path d="M44.3,50.6c-0.2,0-0.4-0.1-0.6-0.3l-0.6-0.9l-0.7-0.7c-0.3-0.3-0.3-0.7,0-1c0.3-0.3,0.7-0.3,1,0l0.8,0.7
			c0,0,0.1,0.1,0.1,0.1l0.7,1c0.2,0.3,0.1,0.7-0.2,1C44.6,50.6,44.5,50.6,44.3,50.6z"/>
		<path d="M39.6,39.6c-0.2,0-0.4-0.1-0.5-0.3c-0.3-0.4-0.7-1.5,0.1-2.4c0.3-0.3,0.7-0.3,1-0.1c0.3,0.3,0.3,0.7,0.1,1
			c-0.3,0.3-0.1,0.5-0.1,0.7c0.2,0.3,0.1,0.7-0.2,1C39.9,39.6,39.7,39.6,39.6,39.6L39.6,39.6z"/>
		<path d="M41.4,39.6c-0.1,0-0.3,0-0.4-0.1c-0.3-0.2-0.4-0.7-0.1-1c0.1-0.1,0.2-0.4-0.1-0.7c-0.3-0.3-0.2-0.7,0.1-1
			c0.3-0.2,0.7-0.2,1,0.1c0.8,0.9,0.5,2,0.1,2.4C41.8,39.5,41.6,39.6,41.4,39.6L41.4,39.6z"/>
	</g>
	<path d="M33.7,36.8c-0.2,0-0.4-0.1-0.5-0.2c-0.2-0.3-0.2-0.7,0.1-1c2-1.7,4.5-2.6,7.1-2.6c2.4,0,4.6,0.7,6.5,2.1
		c0.3,0.2,0.4,0.7,0.1,1s-0.7,0.4-1,0.1c-1.6-1.2-3.6-1.9-5.7-1.9c-2.3,0-4.4,0.8-6.1,2.3C34,36.8,33.9,36.8,33.7,36.8L33.7,36.8z"
		/>
	<path d="M40.3,54.7c-4.8,0-8.9-3.1-10.3-7.6c-0.1-0.4,0.1-0.8,0.5-0.9c0.4-0.1,0.8,0.1,0.9,0.5c1.2,4,4.9,6.6,9,6.6
		s7.6-2.5,8.9-6.3c0.1-0.4,0.5-0.5,0.9-0.4c0.4,0.1,0.5,0.5,0.4,0.9C49,51.8,44.9,54.7,40.3,54.7L40.3,54.7z"/>
</g>
</svg>
