<?xml version="1.0" encoding="utf-8"?>
<!-- Generator: Adobe Illustrator 27.8.1, SVG Export Plug-In . SVG Version: 6.00 Build 0)  -->
<svg version="1.1" id="Calque_1" xmlns="http://www.w3.org/2000/svg" xmlns:xlink="http://www.w3.org/1999/xlink" x="0px" y="0px"
	 viewBox="0 0 65 65" style="enable-background:new 0 0 65 65;" xml:space="preserve">
<style type="text/css">
	.st0{fill:#3BEABC;}
	.st1{display:none;fill:none;stroke:#000000;stroke-width:1.5;stroke-linecap:round;stroke-linejoin:round;}
	.st2{display:none;}
	.st3{display:inline;}
</style>
<circle class="st0" cx="32.5" cy="32.5" r="31.5"/>
<path class="st1" d="M28.5,48.4c-5.3-1.4-8.2-7.1-6.2-12.2l2.9-7.5c1.6-4.1,6.1-6.4,10.4-5.2c4.4,1.2,7.1,5.5,6.2,9.9l-1.6,7.9
	C39.1,46.5,33.7,49.8,28.5,48.4z"/>
<path class="st1" d="M39,25.3c0.6-0.5,1-1.2,1.2-2c0.7-2.4-0.7-4.9-3.2-5.5c-2.4-0.7-4.9,0.8-5.6,3.2c-0.2,0.8-0.2,1.6,0,2.4"/>
<path class="st1" d="M28.5,48.3l4.4-15.6"/>
<path class="st1" d="M31.4,23.3l-5.9-1.6l-2.1-3.6"/>
<path class="st1" d="M25,28.7l-3.7-1L18,23.4"/>
<path class="st1" d="M21.9,37l-3.7-1l-3.5,3.2"/>
<path class="st1" d="M22.6,43.5L19.7,45L17,47.3"/>
<path class="st1" d="M39.2,25.4l5.9,1.6l3.7-2"/>
<path class="st1" d="M41.9,33.3l3.7,1l5.1-2"/>
<path class="st1" d="M40.2,42l3.7,1l1.4,4.5"/>
<path class="st1" d="M36.3,47.2L38,50l1.1,3.3"/>
<path class="st1" d="M34.2,17.9c0,0-1.1-2.7,1.5-4.4"/>
<path class="st1" d="M39.5,19.3c0,0,2.3-1.8,0.9-4.5"/>
<g class="st2">
	<g class="st3">
		<path d="M45.6,26.9h-26c-0.3,0-0.6-0.3-0.6-0.6s0.3-0.6,0.6-0.6h26c0.3,0,0.6,0.3,0.6,0.6S45.9,26.9,45.6,26.9z"/>
		<path d="M51.9,51.5H13.1c-0.3,0-0.6-0.3-0.6-0.6V23.2c0-1.6,1.3-3,3-3h7.9c1.2,0,2.3,0.7,2.8,1.9l1.6,4c0.1,0.3,0,0.6-0.3,0.7
			c-0.3,0.1-0.6,0-0.7-0.3l-1.6-4c-0.3-0.7-0.9-1.1-1.7-1.1h-7.9c-1,0-1.8,0.8-1.8,1.8v27.1h37.7v-24c0-0.3,0.3-0.6,0.6-0.6
			s0.6,0.3,0.6,0.6v24.6C52.5,51.2,52.2,51.5,51.9,51.5z"/>
	</g>
	<g class="st3">
		<path d="M43.3,39.1c-3.5,0-6.4-2.8-6.4-6.3v-1c-0.4,0.6-0.8,0.9-0.8,0.9c-0.2,0.2-0.6,0.2-0.8,0c-0.2-0.2-0.2-0.6,0-0.8
			c0,0,1.5-1.4,1.6-3.3v-0.4c0-0.3,0.3-0.6,0.6-0.6c0.3,0,0.6,0.2,0.6,0.6c0,0.1,0,0.3,0,0.4v4.2c0,2.9,2.3,5.2,5.2,5.2
			c2.9,0,5.2-2.3,5.2-5.2v-8.5c0-0.3,0.3-0.6,0.6-0.6s0.6,0.3,0.6,0.6v8.5C49.7,36.2,46.8,39.1,43.3,39.1L43.3,39.1z"/>
		<path d="M48,25.2c-0.2,0-0.4-0.1-0.5-0.4c-0.1-0.3,0-0.6,0.3-0.7l1.9-0.7c0.3-0.1,0.6,0,0.7,0.3c0.1,0.3,0,0.6-0.3,0.7l-1.9,0.7
			C48.1,25.2,48,25.2,48,25.2L48,25.2z"/>
		<path d="M48,23.6c-0.2,0-0.4-0.1-0.5-0.4c-0.1-0.3,0-0.6,0.3-0.7l1.9-0.7c0.3-0.1,0.6,0,0.7,0.3c0.1,0.3,0,0.6-0.3,0.7l-1.9,0.7
			C48.1,23.5,48,23.6,48,23.6L48,23.6z"/>
		<path d="M48,21.9c-0.2,0-0.4-0.1-0.5-0.4c-0.1-0.3,0-0.6,0.3-0.7l1.9-0.7c0.3-0.1,0.6,0,0.7,0.3c0.1,0.3,0,0.6-0.3,0.7l-1.9,0.7
			C48.1,21.9,48,21.9,48,21.9L48,21.9z"/>
		<path d="M48,20.3c-0.2,0-0.4-0.1-0.5-0.4c-0.1-0.3,0-0.6,0.3-0.7l1.9-0.7c0.3-0.1,0.6,0,0.7,0.3c0.1,0.3,0,0.6-0.3,0.7l-1.9,0.7
			C48.1,20.3,48,20.3,48,20.3L48,20.3z"/>
		<path d="M49.1,19.9c-0.3,0-0.6-0.3-0.6-0.6v-1.6c0-0.2-0.1-0.4-0.3-0.5c-0.7-0.4-1.1-1-1.1-1.7c0-1.1,0.9-2,2-2l0,0
			c0.5,0,1,0.2,1.4,0.6c0.4,0.4,0.6,0.9,0.6,1.4c0,0.4-0.1,0.7-0.3,1c-0.2,0.3-0.5,0.3-0.8,0.2c-0.3-0.2-0.3-0.5-0.2-0.8
			c0.1-0.1,0.1-0.3,0.1-0.4c0-0.2-0.1-0.4-0.2-0.6c-0.2-0.2-0.4-0.3-0.6-0.3l0,0c-0.5,0-0.8,0.4-0.8,0.8c0,0.1,0,0.4,0.5,0.7
			c0.6,0.3,0.9,0.9,0.9,1.5v1.6C49.7,19.6,49.4,19.9,49.1,19.9z"/>
	</g>
	<path class="st3" d="M48.9,48.5H16.6c-0.3,0-0.6-0.3-0.6-0.6V29.5c0-0.3,0.3-0.6,0.6-0.6h15.9c0.3,0,0.6,0.3,0.6,0.6
		S32.8,30,32.5,30H17.2v17.3h31.1v-8c0-0.3,0.3-0.6,0.6-0.6c0.3,0,0.6,0.3,0.6,0.6V48C49.5,48.3,49.2,48.5,48.9,48.5z"/>
	<path class="st3" d="M25.6,39.3l-0.3,0.5l-1-0.6v1.2h-0.6v-1.2l-1,0.6l-0.3-0.5l1-0.6l-1-0.6l0.3-0.5l1,0.6V37h0.6v1.2l1-0.6
		l0.3,0.5l-1,0.6L25.6,39.3L25.6,39.3z"/>
	<path class="st3" d="M30.4,39.3l-0.3,0.5l-1-0.6v1.2h-0.6v-1.2l-1,0.6l-0.3-0.5l1-0.6l-1-0.6l0.3-0.5l1,0.6V37h0.6v1.2l1-0.6
		l0.3,0.5l-1,0.6L30.4,39.3L30.4,39.3z"/>
	<path class="st3" d="M35.3,39.3l-0.3,0.5l-1-0.6v1.2h-0.6v-1.2l-1,0.6l-0.3-0.5l1-0.6l-1-0.6l0.3-0.5l1,0.6V37H34v1.2l1-0.6
		l0.3,0.5l-1,0.6L35.3,39.3L35.3,39.3z"/>
	<path class="st3" d="M43.9,43H21.5c-0.3,0-0.6-0.3-0.6-0.6s0.3-0.6,0.6-0.6h22.4c0.3,0,0.6,0.3,0.6,0.6S44.3,43,43.9,43z"/>
</g>
<g class="st2">
	<g class="st3">
		<path d="M40.9,57.5H23.6c-2.5,0-4.6-2.1-4.6-4.6v-28c0-0.4,0.3-0.7,0.7-0.7s0.7,0.3,0.7,0.7v28c0,1.8,1.4,3.2,3.2,3.2h17.3
			c0.4,0,0.7,0.3,0.7,0.7C41.6,57.2,41.3,57.5,40.9,57.5z"/>
		<path d="M41.3,28.9c-0.4,0-0.7-0.3-0.7-0.7v-3.4c0-0.4,0.3-0.7,0.7-0.7c0.4,0,0.7,0.3,0.7,0.7v3.4C41.9,28.6,41.6,28.9,41.3,28.9z
			"/>
		<path d="M41.3,25.6h-3.8c-0.4,0-0.7-0.3-0.7-0.7s0.3-0.7,0.7-0.7h3.1v-2.3c0-0.7-0.6-1.2-1.2-1.2H21.6c-0.7,0-1.2,0.6-1.2,1.2v2.3
			h10.9c0.4,0,0.7,0.3,0.7,0.7s-0.3,0.7-0.7,0.7H19.7c-0.4,0-0.7-0.3-0.7-0.7v-3c0-1.4,1.2-2.6,2.6-2.6h17.7c1.4,0,2.6,1.2,2.6,2.6
			v3C41.9,25.3,41.6,25.6,41.3,25.6z"/>
		<path d="M37.9,20.7c-0.4,0-0.7-0.3-0.7-0.7V8.9H23.7V20c0,0.4-0.3,0.7-0.7,0.7s-0.7-0.3-0.7-0.7V8.2c0-0.4,0.3-0.7,0.7-0.7h14.9
			c0.4,0,0.7,0.3,0.7,0.7V20C38.6,20.4,38.3,20.7,37.9,20.7z"/>
		<g>
			<path d="M28.7,15.4h-3.4c-0.4,0-0.7-0.3-0.7-0.7v-2.8c0-0.4,0.3-0.7,0.7-0.7h1.9c0.4,0,0.7,0.3,0.7,0.7s-0.3,0.7-0.7,0.7h-1.2V14
				H28v-0.7c0-0.4,0.3-0.7,0.7-0.7s0.7,0.3,0.7,0.7v1.4C29.4,15.1,29.1,15.4,28.7,15.4z"/>
			<path d="M35.7,15.4h-3.4c-0.4,0-0.7-0.3-0.7-0.7v-2.8c0-0.4,0.3-0.7,0.7-0.7h1.9c0.4,0,0.7,0.3,0.7,0.7s-0.3,0.7-0.7,0.7H33V14
				H35v-0.7c0-0.4,0.3-0.7,0.7-0.7c0.4,0,0.7,0.3,0.7,0.7v1.4C36.4,15.1,36.1,15.4,35.7,15.4z"/>
		</g>
	</g>
	<path class="st3" d="M40.9,57.5c-0.4,0-0.7-0.3-0.7-0.7c0-0.4,0.3-0.7,0.7-0.7c3.1-0.1,6-1.4,8.2-3.6c3.5-3.6,4.5-8.9,2.5-13.5
		c-0.6-1.5-1.5-2.8-2.7-3.9c-1.2-1.2-2.5-2-4-2.6c-2.1-0.8-4.4-1.1-6.6-0.7c-2.6,0.4-4.9,1.6-6.8,3.5c-1.9,1.9-3.1,4.3-3.4,6.9
		c-0.5,3.9,0.8,7.7,3.5,10.4c0.3,0.3,0.3,0.7,0,1c-0.3,0.3-0.7,0.3-1,0c-3.1-3-4.5-7.3-3.9-11.6c0.4-2.9,1.7-5.6,3.8-7.7
		c2.1-2.1,4.6-3.4,7.5-3.9c2.5-0.4,5-0.1,7.3,0.8c1.7,0.7,3.2,1.7,4.5,2.9c1.3,1.2,2.2,2.7,2.9,4.3c2.2,5.1,1.1,11.1-2.8,15
		C47.6,55.9,44.4,57.3,40.9,57.5C40.9,57.5,40.9,57.5,40.9,57.5L40.9,57.5z"/>
	<g class="st3">
		<path d="M40.5,49.9c-1.1,0-2.1-0.5-2.8-1.2c-0.7-0.8-1.1-1.8-1-2.9l0.3-2.7c0.2-1.8,1.7-3.2,3.5-3.2c1.8,0,3.4,1.4,3.5,3.3
			l0.2,2.7c0.1,1-0.3,2.1-1,2.9C42.6,49.5,41.6,49.9,40.5,49.9L40.5,49.9z M40.5,41.3c-1.1,0-2.1,0.8-2.2,2l-0.3,2.7
			c-0.1,0.7,0.2,1.3,0.6,1.8c0.9,1,2.6,1,3.5,0c0.5-0.5,0.7-1.1,0.6-1.8l-0.2-2.7C42.6,42.2,41.7,41.3,40.5,41.3L40.5,41.3z"/>
		<path d="M39.2,41.6c-0.2,0-0.5-0.1-0.6-0.3c-0.2-0.3-0.3-0.7-0.3-1.1c0-1.2,1-2.2,2.2-2.2c1.2,0,2.2,1,2.2,2.2
			c0,0.4-0.1,0.8-0.3,1.1c-0.2,0.3-0.6,0.4-0.9,0.2c-0.3-0.2-0.4-0.6-0.2-0.9c0.1-0.1,0.1-0.3,0.1-0.4c0-0.4-0.4-0.8-0.8-0.8
			c-0.5,0-0.8,0.4-0.8,0.8c0,0.1,0,0.3,0.1,0.4c0.2,0.3,0.1,0.8-0.2,0.9C39.5,41.6,39.4,41.6,39.2,41.6L39.2,41.6z"/>
		<path d="M40.5,49.9c-0.4,0-0.7-0.3-0.7-0.7v-5.4c0-0.4,0.3-0.7,0.7-0.7c0.4,0,0.7,0.3,0.7,0.7v5.4C41.2,49.6,40.9,49.9,40.5,49.9z
			"/>
		<path d="M39.2,41.6h-2c-0.2,0-0.3-0.1-0.5-0.2l-1-1c-0.3-0.3-0.3-0.7,0-1c0.3-0.3,0.7-0.3,1,0l0.8,0.8h1.7c0.4,0,0.7,0.3,0.7,0.7
			C39.9,41.3,39.6,41.6,39.2,41.6L39.2,41.6z"/>
		<path d="M37.7,43.9h-1.3c-0.1,0-0.3,0-0.4-0.1l-1.4-1.1c-0.3-0.2-0.4-0.7-0.1-1s0.7-0.4,1-0.1l1.2,0.9h1c0.4,0,0.7,0.3,0.7,0.7
			C38.3,43.6,38,43.9,37.7,43.9L37.7,43.9z"/>
		<path d="M35.3,48.2c-0.1,0-0.2,0-0.4-0.1c-0.3-0.2-0.4-0.6-0.2-0.9l0.8-1.3c0.1-0.2,0.3-0.3,0.6-0.3h1.3c0.4,0,0.7,0.3,0.7,0.7
			c0,0.4-0.3,0.7-0.7,0.7h-0.9l-0.6,1C35.8,48.1,35.5,48.2,35.3,48.2L35.3,48.2z"/>
		<path d="M36.8,50.6c-0.1,0-0.3,0-0.4-0.1c-0.3-0.2-0.4-0.6-0.2-1l0.7-1c0,0,0.1-0.1,0.1-0.1l0.8-0.7c0.3-0.3,0.7-0.2,1,0
			c0.3,0.3,0.2,0.7,0,1L38,49.4l-0.6,0.9C37.2,50.5,37,50.6,36.8,50.6z"/>
		<path d="M43.9,41.6h-2c-0.4,0-0.7-0.3-0.7-0.7c0-0.4,0.3-0.7,0.7-0.7h1.7l0.8-0.8c0.3-0.3,0.7-0.3,1,0c0.3,0.3,0.3,0.7,0,1l-1,1
			C44.2,41.5,44,41.6,43.9,41.6L43.9,41.6z"/>
		<path d="M44.7,43.9h-1.3c-0.4,0-0.7-0.3-0.7-0.7c0-0.4,0.3-0.7,0.7-0.7h1l1.2-0.9c0.3-0.2,0.7-0.2,1,0.1c0.2,0.3,0.2,0.7-0.1,1
			l-1.4,1.1C45,43.9,44.8,43.9,44.7,43.9L44.7,43.9z"/>
		<path d="M45.8,48.2c-0.2,0-0.5-0.1-0.6-0.3l-0.6-1h-0.9c-0.4,0-0.7-0.3-0.7-0.7s0.3-0.7,0.7-0.7h1.3c0.2,0,0.5,0.1,0.6,0.3
			l0.8,1.3c0.2,0.3,0.1,0.7-0.2,0.9C46,48.1,45.9,48.2,45.8,48.2L45.8,48.2z"/>
		<path d="M44.3,50.6c-0.2,0-0.4-0.1-0.6-0.3l-0.6-0.9l-0.7-0.7c-0.3-0.3-0.3-0.7,0-1c0.3-0.3,0.7-0.3,1,0l0.8,0.7
			c0,0,0.1,0.1,0.1,0.1l0.7,1c0.2,0.3,0.1,0.7-0.2,1C44.6,50.6,44.5,50.6,44.3,50.6z"/>
		<path d="M39.6,39.6c-0.2,0-0.4-0.1-0.5-0.3c-0.3-0.4-0.7-1.5,0.1-2.4c0.3-0.3,0.7-0.3,1-0.1c0.3,0.3,0.3,0.7,0.1,1
			c-0.3,0.3-0.1,0.5-0.1,0.7c0.2,0.3,0.1,0.7-0.2,1C39.9,39.6,39.7,39.6,39.6,39.6L39.6,39.6z"/>
		<path d="M41.4,39.6c-0.1,0-0.3,0-0.4-0.1c-0.3-0.2-0.4-0.7-0.1-1c0.1-0.1,0.2-0.4-0.1-0.7c-0.3-0.3-0.2-0.7,0.1-1
			c0.3-0.2,0.7-0.2,1,0.1c0.8,0.9,0.5,2,0.1,2.4C41.8,39.5,41.6,39.6,41.4,39.6L41.4,39.6z"/>
	</g>
	<path class="st3" d="M33.7,36.8c-0.2,0-0.4-0.1-0.5-0.2c-0.2-0.3-0.2-0.7,0.1-1c2-1.7,4.5-2.6,7.1-2.6c2.4,0,4.6,0.7,6.5,2.1
		c0.3,0.2,0.4,0.7,0.1,1s-0.7,0.4-1,0.1c-1.6-1.2-3.6-1.9-5.7-1.9c-2.3,0-4.4,0.8-6.1,2.3C34,36.8,33.9,36.8,33.7,36.8L33.7,36.8z"
		/>
	<path class="st3" d="M40.3,54.7c-4.8,0-8.9-3.1-10.3-7.6c-0.1-0.4,0.1-0.8,0.5-0.9c0.4-0.1,0.8,0.1,0.9,0.5c1.2,4,4.9,6.6,9,6.6
		s7.6-2.5,8.9-6.3c0.1-0.4,0.5-0.5,0.9-0.4c0.4,0.1,0.5,0.5,0.4,0.9C49,51.8,44.9,54.7,40.3,54.7L40.3,54.7z"/>
</g>
<g class="st2">
	<path class="st3" d="M32.6,50.4c0,0-0.1,0-0.1,0c-0.9,0-1.7-0.6-2.1-1.5c-0.4-0.8-0.1-1.6,0-2.2c0-0.1,0.1-0.3,0.1-0.4
		c0.1-0.4,0.2-0.7,0.2-1.1l0.1-0.3c0.1-0.4,0.1-0.7,0.2-1.1c0.1-0.8-0.3-1.5-1-1.8c-0.8-0.3-1.6-0.1-2,0.5c-0.8,1-1.5,2-2.2,3
		c-0.1,0.2-0.2,0.4-0.4,0.6c-0.5,0.8-1.1,1.9-2.3,2.2c-0.9,0.2-2,0-2.7-0.7c-0.8-0.7-1.1-1.9-0.8-3c0.3-1,1.1-1.6,1.8-2
		c0.2-0.1,0.3-0.2,0.5-0.3c0.5-0.4,1-0.7,1.4-1.1c0.7-0.5,1.3-1.1,2-1.7c0.4-0.3,0.4-0.8,0.2-1.2c-0.2-0.3-0.3-0.6-0.5-0.9
		c-0.2-0.4-0.6-0.7-1.1-0.6c-0.9,0.2-1.9,0.4-2.8,0.7c-0.2,0-0.3,0.1-0.5,0.2c-0.7,0.3-1.7,0.6-2.6,0.1c-0.7-0.4-1.2-1.1-1.3-1.9
		c-0.1-0.9,0.3-1.8,1.1-2.3c0.8-0.5,1.5-0.4,2.2-0.3c0.1,0,0.3,0,0.5,0.1c0.5,0,1.4,0.1,2.6,0c0.7,0,1.4-0.5,1.5-1.3
		c0.1-0.7-0.2-1.4-0.7-1.7L23.5,30c-1.2-0.7-2.4-1.3-3.6-1.8c-0.2-0.1-0.5-0.2-0.7-0.3c-1-0.4-2.2-0.9-2.8-2.1c-0.4-1-0.3-2.1,0.3-3
		c0.7-1,1.9-1.5,3.1-1.4c1.2,0.1,1.9,0.9,2.5,1.6c0.1,0.2,0.3,0.3,0.5,0.5c0.3,0.3,0.3,0.7,0,0.9s-0.7,0.3-0.9,0
		c-0.2-0.2-0.3-0.4-0.5-0.5c-0.5-0.6-1-1.1-1.7-1.2c-0.7-0.1-1.4,0.2-1.8,0.8c-0.4,0.5-0.4,1.2-0.2,1.8c0.3,0.7,1.1,1.1,2,1.4
		c0.3,0.1,0.5,0.2,0.8,0.3c1.3,0.6,2.5,1.2,3.7,1.9l0.4,0.2c1.1,0.6,1.7,1.9,1.4,3.1c-0.3,1.4-1.5,2.3-2.8,2.4c-1.3,0-2.2,0-2.7-0.1
		c-0.2,0-0.4,0-0.5-0.1c-0.6-0.1-1-0.1-1.3,0.1c-0.4,0.2-0.6,0.6-0.5,1.1c0,0.4,0.3,0.7,0.6,0.9c0.4,0.2,0.9,0.1,1.6-0.2
		c0.2-0.1,0.4-0.1,0.6-0.2c0.9-0.3,1.9-0.5,2.8-0.7c1.1-0.2,2.2,0.4,2.6,1.4c0.1,0.3,0.2,0.5,0.4,0.8c0.5,0.9,0.3,2.1-0.5,2.9
		c-0.6,0.6-1.3,1.1-2,1.7c-0.5,0.4-1,0.8-1.5,1.2c-0.2,0.1-0.4,0.3-0.5,0.4c-0.7,0.4-1.1,0.7-1.2,1.3c-0.2,0.6,0,1.2,0.4,1.6
		c0.4,0.4,0.9,0.5,1.5,0.4c0.7-0.2,1-0.8,1.5-1.5c0.1-0.2,0.3-0.4,0.4-0.7c0.7-1,1.4-2,2.2-3c0.9-1.1,2.3-1.5,3.6-1
		c1.3,0.6,2.1,1.9,1.9,3.3c-0.1,0.4-0.1,0.8-0.2,1.1L32,45.4c-0.1,0.4-0.1,0.8-0.2,1.2c0,0.2-0.1,0.3-0.1,0.5
		c-0.2,0.6-0.3,0.9-0.1,1.3c0.2,0.4,0.5,0.7,1,0.7c0.4,0,0.7-0.2,1-0.5c0.3-0.4,0.2-0.8,0.1-1.6c0-0.2-0.1-0.4-0.1-0.6
		c-0.1-0.9-0.2-1.9-0.2-2.9c-0.1-1.1,0.7-2.1,1.8-2.3c0.3-0.1,0.6-0.2,0.9-0.3c0.3-0.1,0.7,0,0.9,0.4c0.1,0.3,0,0.7-0.4,0.9
		c-0.4,0.1-0.7,0.2-1.1,0.3c-0.5,0.1-0.8,0.5-0.8,1c0,1,0.1,1.9,0.2,2.8c0,0.2,0.1,0.4,0.1,0.5c0.1,0.8,0.3,1.7-0.3,2.6
		C34.1,50,33.4,50.4,32.6,50.4L32.6,50.4z"/>
	<path class="st3" d="M49.4,40.4c-0.8,0-1.4-0.3-2-0.6c-0.2-0.1-0.4-0.2-0.6-0.3c-0.6-0.2-1.2-0.5-1.8-0.7c-1-0.4-2-0.7-3-1
		c-0.2,0-0.3,0-0.5,0.1c-0.3,0.3-0.7,0.2-0.9,0c-0.3-0.3-0.2-0.7,0-0.9c0.5-0.5,1.1-0.6,1.8-0.4c1,0.3,2,0.6,3.1,1
		c0.6,0.2,1.2,0.4,1.8,0.7c0.2,0.1,0.4,0.2,0.6,0.3c0.8,0.4,1.2,0.6,1.8,0.4c0.6-0.2,1.1-0.7,1.2-1.3c0.1-0.5-0.1-1.1-0.4-1.5
		c-0.5-0.5-1.3-0.5-2.2-0.5c-0.3,0-0.5,0-0.8,0c-1.2,0-2.5-0.1-3.8-0.3c-1.4-0.1-2.5-1.2-2.7-2.5c-0.2-1.5,0.5-2.8,1.9-3.4
		c0.3-0.1,0.6-0.3,1-0.4l0.2-0.1c0.4-0.1,0.8-0.3,1.2-0.4c0.2-0.1,0.3-0.1,0.5-0.1c0.6-0.1,1-0.3,1.2-0.6c0.2-0.4,0.3-0.8,0.1-1.2
		c-0.2-0.3-0.5-0.6-0.9-0.6c-0.5,0-0.8,0.3-1.4,0.8c-0.2,0.1-0.3,0.3-0.5,0.4c-0.8,0.6-1.6,1.2-2.4,1.7c-0.9,0.6-2.2,0.5-3-0.2
		c-0.1-0.1-0.3-0.2-0.4-0.4c-0.8-0.7-1-1.9-0.6-2.8c0.6-1.3,1.3-2.6,2-4c0.4-0.8,0.8-1.5,1.3-2.3c0.2-0.3,0.3-0.5,0.5-0.7
		c0.6-0.8,1.1-1.6,1-2.5c-0.1-0.9-0.7-1.8-1.6-2.1c-0.8-0.3-1.7-0.2-2.3,0.3c-0.9,0.6-1,1.8-1.2,2.9c-0.1,0.4-0.1,0.7-0.2,1
		c-0.3,1.7-0.7,3.3-1.2,5c-0.1,0.4-0.2,0.7-0.3,1.1c-0.4,1.2-1.4,2-2.7,2.1c-1.3,0.1-2.4-0.8-2.7-2.1c-0.1-0.4-0.2-0.9-0.3-1.3
		c-0.1-0.5-0.2-1-0.3-1.5c0-0.2,0-0.4-0.1-0.5c-0.1-0.6-0.1-1-0.4-1.3c-0.3-0.3-0.8-0.4-1.2-0.3c-0.2,0.1-0.3,0.1-0.4,0.3
		c-0.3,0.3-0.7,0.3-0.9,0c-0.3-0.3-0.3-0.7,0-0.9c0.3-0.3,0.6-0.5,0.9-0.6c0.9-0.3,1.9-0.1,2.5,0.6c0.7,0.6,0.7,1.5,0.8,2.1
		c0,0.1,0,0.3,0.1,0.5c0.1,0.5,0.2,0.9,0.3,1.4c0.1,0.5,0.2,0.9,0.3,1.3c0.1,0.6,0.7,1.1,1.4,1.1c0.7,0,1.3-0.5,1.5-1.1
		c0.1-0.4,0.2-0.7,0.3-1c0.4-1.6,0.8-3.2,1.2-4.9c0.1-0.3,0.1-0.6,0.2-1c0.2-1.3,0.4-2.9,1.8-3.8c1-0.7,2.4-0.9,3.6-0.4
		c1.3,0.5,2.3,1.8,2.4,3.2c0.1,1.4-0.6,2.4-1.2,3.4c-0.2,0.2-0.3,0.4-0.5,0.7c-0.4,0.7-0.8,1.5-1.2,2.2c-0.7,1.4-1.4,2.7-2,3.9
		c-0.2,0.4-0.1,0.9,0.3,1.3c0.1,0.1,0.3,0.3,0.4,0.4c0.4,0.4,0.9,0.4,1.3,0.1c0.8-0.5,1.6-1.1,2.3-1.7c0.1-0.1,0.3-0.2,0.4-0.4
		c0.6-0.5,1.3-1.2,2.4-1.1c0.8,0.1,1.6,0.6,2,1.3c0.4,0.8,0.4,1.8-0.1,2.6c-0.5,0.7-1.3,1-1.9,1.1c-0.1,0-0.3,0.1-0.4,0.1
		c-0.4,0.1-0.8,0.3-1.2,0.4l-0.2,0.1c-0.3,0.1-0.6,0.2-0.9,0.4c-0.7,0.3-1.2,1.1-1.1,1.9c0.1,0.8,0.7,1.4,1.5,1.5
		c1.3,0.1,2.6,0.2,3.8,0.3c0.2,0,0.5,0,0.7,0c1,0,2.2,0,3.2,0.9c0.7,0.7,1,1.8,0.8,2.7c-0.2,1.1-1.1,2-2.2,2.3
		C49.9,40.4,49.6,40.4,49.4,40.4L49.4,40.4z"/>
	<path class="st3" d="M36.3,30.2c-0.3,0-0.5-0.1-0.8-0.2c-0.4-0.2-0.8-0.6-0.9-1c-0.1-0.3,0.1-0.7,0.4-0.8c0.3-0.1,0.7,0.1,0.8,0.4
		c0,0.1,0.1,0.2,0.3,0.3c0.1,0.1,0.3,0.1,0.4,0c0.1,0,0.2-0.1,0.3-0.3c0.1-0.1,0.1-0.3,0-0.4c0-0.1-0.1-0.2-0.3-0.3
		c-0.1-0.1-0.3-0.1-0.4,0c-0.3,0.1-0.7-0.1-0.8-0.4c-0.1-0.3,0.1-0.7,0.4-0.8c0.5-0.2,1-0.1,1.4,0.1c0.4,0.2,0.8,0.6,0.9,1
		c0.2,0.5,0.1,1-0.1,1.4c-0.2,0.4-0.6,0.8-1,0.9C36.7,30.2,36.5,30.2,36.3,30.2L36.3,30.2z"/>
	<path class="st3" d="M28,34.5c-0.6,0-1.1-0.4-1.3-0.9c-0.1-0.3,0.1-0.7,0.4-0.8c0,0,0.1,0,0.1,0c0,0,0,0,0-0.1
		c-0.1-0.3,0-0.7,0.4-0.9c0.4-0.1,0.7-0.1,1.1,0.1c0.3,0.2,0.6,0.4,0.7,0.8c0.3,0.7-0.1,1.5-0.9,1.8C28.3,34.4,28.1,34.5,28,34.5
		L28,34.5z M27.9,33.1L27.9,33.1c0,0.1,0.1,0.1,0.1,0.1c0,0,0.1-0.1,0.1-0.1C28,33.1,27.9,33.1,27.9,33.1L27.9,33.1z"/>
	<path class="st3" d="M38.8,33.4c-0.2,0-0.4,0-0.6-0.1c-0.3-0.2-0.6-0.4-0.7-0.8c-0.1-0.3,0.1-0.7,0.4-0.8c0,0,0.1,0,0.1,0
		c0,0,0-0.1,0-0.1c-0.1-0.3,0.1-0.7,0.4-0.8c0.7-0.3,1.5,0.1,1.8,0.9c0.1,0.4,0.1,0.7-0.1,1.1c-0.2,0.3-0.4,0.6-0.8,0.7
		C39.1,33.3,39,33.4,38.8,33.4L38.8,33.4z M38.7,32l0.1,0.1l0,0c0,0,0.1-0.1,0.1-0.1c0,0-0.1-0.1-0.1-0.1
		C38.8,31.9,38.7,31.9,38.7,32C38.7,31.9,38.7,32,38.7,32C38.7,32,38.7,32,38.7,32z"/>
	<path class="st3" d="M30.3,39.9c-0.5,0-1-0.2-1.4-0.5c-0.5-0.4-0.8-0.9-0.9-1.5c-0.1-0.6,0.1-1.2,0.5-1.7c0.8-1,2.2-1.2,3.2-0.4
		c0.3,0.2,0.3,0.6,0.1,0.9c-0.2,0.3-0.6,0.3-0.9,0.1c-0.4-0.3-1-0.3-1.3,0.2c-0.2,0.2-0.2,0.4-0.2,0.7c0,0.3,0.2,0.5,0.4,0.6
		c0.2,0.2,0.4,0.2,0.7,0.2s0.5-0.2,0.6-0.4c0.2-0.3,0.6-0.3,0.9-0.1c0.3,0.2,0.3,0.6,0.1,0.9c-0.4,0.5-0.9,0.8-1.5,0.9
		C30.5,39.9,30.4,39.9,30.3,39.9L30.3,39.9z"/>
	<path class="st3" d="M32.8,55.2c-12.4,0-22.5-10.1-22.5-22.5s10.1-22.5,22.5-22.5s22.5,10.1,22.5,22.5S45.2,55.2,32.8,55.2z
		 M32.8,11.5c-11.7,0-21.2,9.5-21.2,21.2s9.5,21.2,21.2,21.2S54,44.4,54,32.7S44.5,11.5,32.8,11.5z M32.8,51.6c-3,0-5.9-0.7-8.6-2.1
		c-0.3-0.2-0.4-0.6-0.3-0.9c0.2-0.3,0.6-0.4,0.9-0.3c2.5,1.3,5.2,1.9,8,1.9c3.2,0,6.4-0.9,9.1-2.6L20.3,20.3
		c-0.2,0.2-0.3,0.3-0.5,0.6c-0.2,0.3-0.7,0.3-0.9,0.1c-0.3-0.2-0.3-0.7-0.1-0.9c0.4-0.4,0.7-0.7,1.1-1.2c0.1-0.1,0.3-0.2,0.5-0.2
		c0.2,0,0.4,0.1,0.5,0.2l22.5,28.5c0.1,0.1,0.2,0.3,0.1,0.5c0,0.2-0.1,0.3-0.3,0.4C40.1,50.5,36.5,51.6,32.8,51.6z M45.7,46.1
		C45.7,46.1,45.7,46.1,45.7,46.1c-0.2,0-0.4-0.1-0.5-0.2L22.8,17.6c-0.1-0.1-0.2-0.3-0.1-0.5c0-0.2,0.1-0.4,0.3-0.4
		c2.9-1.8,6.3-2.7,9.8-2.7c1,0,2.1,0.1,3.1,0.2c0.4,0.1,0.6,0.4,0.5,0.8c-0.1,0.4-0.4,0.6-0.8,0.5c-3.8-0.6-7.9,0.1-11.3,1.9
		l21.5,27.1c1-1.1,1.9-2.4,2.6-3.7c0.2-0.3,0.6-0.4,0.9-0.3c0.3,0.2,0.4,0.6,0.3,0.9c-0.9,1.7-2,3.2-3.3,4.6
		C46.1,46.1,45.9,46.1,45.7,46.1L45.7,46.1z M18.7,45c-0.2,0-0.4-0.1-0.5-0.2c-2.8-3.4-4.3-7.6-4.3-12c0-2.3,0.4-4.4,1.2-6.5
		c0.1-0.3,0.5-0.5,0.8-0.4c0.3,0.1,0.5,0.5,0.4,0.8c-0.7,1.9-1.1,4-1.1,6.1c0,4.1,1.4,8,4,11.2c0.2,0.3,0.2,0.7-0.1,0.9
		C19,44.9,18.9,45,18.7,45L18.7,45z M51,34.4C51,34.4,50.9,34.4,51,34.4c-0.4,0-0.7-0.3-0.7-0.7c0-0.3,0-0.7,0-1
		c0-5.2-2.3-10.1-6.3-13.5c-0.3-0.2-0.3-0.7-0.1-0.9c0.2-0.3,0.7-0.3,0.9-0.1c4.3,3.6,6.8,8.9,6.8,14.5c0,0.4,0,0.7,0,1.1
		C51.6,34.1,51.3,34.4,51,34.4L51,34.4z"/>
</g>
<g>
	<g>
		<path d="M46.1,47.3c-0.7,0-1.3-0.1-2-0.2c-0.3-0.1-0.5-0.4-0.4-0.8c0.1-0.3,0.4-0.5,0.8-0.4c0.5,0.1,1.1,0.2,1.7,0.2
			c3.8,0,6.8-3.1,6.8-6.8v-11c0-0.3,0.3-0.6,0.6-0.6s0.6,0.3,0.6,0.6v11C54.2,43.7,50.6,47.3,46.1,47.3L46.1,47.3z"/>
		<path d="M40.1,37.9c-0.3,0-0.6-0.2-0.6-0.5c-0.1-0.5-0.1-0.9-0.1-1.4v-1.6c-0.6,0.9-1.2,1.5-1.2,1.5c-0.3,0.2-0.6,0.2-0.9,0
			c-0.2-0.2-0.2-0.6,0-0.9c0,0,2-1.8,2.1-4.4v-0.5c0-0.3,0.3-0.6,0.6-0.6c0.3,0,0.6,0.3,0.6,0.6c0,0.2,0,0.3,0,0.5V36
			c0,0.4,0,0.8,0.1,1.2C40.7,37.5,40.5,37.9,40.1,37.9C40.1,37.9,40.1,37.9,40.1,37.9L40.1,37.9z"/>
		<path d="M52.1,29.4c-0.2,0-0.5-0.1-0.6-0.4c-0.1-0.3,0-0.7,0.3-0.8l2.4-1c0.3-0.1,0.7,0,0.8,0.3c0.1,0.3,0,0.7-0.3,0.8l-2.4,1
			C52.3,29.3,52.2,29.3,52.1,29.4L52.1,29.4z"/>
		<path d="M52.1,27.3c-0.2,0-0.5-0.1-0.6-0.4c-0.1-0.3,0-0.7,0.3-0.8l2.4-1c0.3-0.1,0.7,0,0.8,0.3c0.1,0.3,0,0.7-0.3,0.8l-2.4,1
			C52.3,27.2,52.2,27.3,52.1,27.3L52.1,27.3z"/>
		<path d="M52.1,25.2c-0.2,0-0.5-0.1-0.6-0.4c-0.1-0.3,0-0.7,0.3-0.8l2.4-1c0.3-0.1,0.7,0,0.8,0.3c0.1,0.3,0,0.7-0.3,0.8l-2.4,1
			C52.3,25.2,52.2,25.2,52.1,25.2L52.1,25.2z"/>
		<path d="M52.1,23.1c-0.2,0-0.5-0.1-0.6-0.4c-0.1-0.3,0-0.7,0.3-0.8l2.4-1c0.3-0.1,0.7,0,0.8,0.3c0.1,0.3,0,0.7-0.3,0.8l-2.4,1
			C52.3,23.1,52.2,23.1,52.1,23.1L52.1,23.1z"/>
		<path d="M53.6,22.5c-0.3,0-0.6-0.3-0.6-0.6v-2c0-0.3-0.2-0.6-0.4-0.8c-0.9-0.5-1.4-1.2-1.4-2.1c0-1.4,1.1-2.4,2.4-2.4l0,0
			c0.6,0,1.3,0.3,1.7,0.8c0.5,0.5,0.7,1.1,0.7,1.8c0,0.5-0.2,0.9-0.4,1.3c-0.2,0.3-0.6,0.4-0.9,0.2c-0.3-0.2-0.4-0.6-0.2-0.9
			c0.1-0.2,0.2-0.4,0.2-0.6c0-0.3-0.1-0.6-0.3-0.9c-0.2-0.2-0.5-0.4-0.8-0.4l0,0c-0.6,0-1.2,0.5-1.2,1.2c0,0.3,0,0.7,0.7,1
			c0.7,0.3,1.1,1.1,1.1,1.9v2C54.2,22.2,53.9,22.5,53.6,22.5z"/>
	</g>
	<path d="M18.7,22l-0.3,0.5l-1.2-0.7v1.3h-0.6v-1.3l-1.2,0.7L15.2,22l1.2-0.7l-1.2-0.7l0.3-0.5l1.2,0.7v-1.3h0.6v1.3l1.2-0.7
		l0.3,0.5l-1.2,0.7L18.7,22L18.7,22z"/>
	<path d="M25.3,22L25,22.6l-1.2-0.7v1.3h-0.6v-1.3l-1.2,0.7L21.8,22l1.2-0.7l-1.2-0.7l0.3-0.5l1.2,0.7v-1.3h0.6v1.3l1.2-0.7l0.3,0.5
		l-1.2,0.7L25.3,22L25.3,22z"/>
	<path d="M31.9,22l-0.3,0.5l-1.2-0.7v1.3h-0.6v-1.3l-1.2,0.7L28.4,22l1.2-0.7l-1.2-0.7l0.3-0.5l1.2,0.7v-1.3h0.6v1.3l1.2-0.7
		l0.3,0.5l-1.2,0.7L31.9,22L31.9,22z"/>
	<path d="M38.5,22l-0.3,0.5l-1.2-0.7v1.3h-0.6v-1.3l-1.2,0.7L35,22l1.2-0.7L35,20.7l0.3-0.5l1.2,0.7v-1.3h0.6v1.3l1.2-0.7l0.3,0.5
		l-1.2,0.7L38.5,22L38.5,22z"/>
	<path d="M45.1,22l-0.3,0.5l-1.2-0.7v1.3H43v-1.3l-1.2,0.7L41.5,22l1.2-0.7l-1.2-0.7l0.3-0.5l1.2,0.7v-1.3h0.6v1.3l1.2-0.7l0.3,0.5
		L44,21.4L45.1,22L45.1,22z"/>
	<g>
		<path d="M36.1,46.8h-9.9c-0.3,0-0.6-0.3-0.6-0.6s0.3-0.6,0.6-0.6h9.3v-2c0-0.1,0-0.1,0-0.2c1.2-3.7,4.7-6.1,8.5-6.1
			c2.8,0,5.4,1.3,7.1,3.5c0.2,0.3,0.2,0.7-0.1,0.9c-0.3,0.2-0.7,0.2-0.9-0.1c-1.5-1.9-3.7-3-6.1-3c-3.3,0-6.2,2.1-7.3,5.2v2.5
			C36.7,46.5,36.4,46.8,36.1,46.8L36.1,46.8z"/>
		<path d="M44,55.4c-3.9,0-7.3-2.5-8.6-6.2c-0.1-0.3,0.1-0.7,0.4-0.8c0.3-0.1,0.7,0.1,0.8,0.4c1.1,3.2,4,5.3,7.4,5.3
			c4.3,0,7.8-3.5,7.8-7.8c0-0.3,0.3-0.6,0.6-0.6s0.6,0.3,0.6,0.6C53.1,51.3,49,55.4,44,55.4z"/>
		<path d="M36,49.6H13.1c-1.1,0-1.9-0.9-1.9-1.9v-2.9c0-1.1,0.9-1.9,1.9-1.9h1.8c0.3,0,0.6,0.3,0.6,0.6v0.8h0.6v-0.8
			c0-0.3,0.3-0.6,0.6-0.6h2.9c0.3,0,0.6,0.3,0.6,0.6v0.8h0.6v-0.8c0-0.3,0.3-0.6,0.6-0.6H36c0.3,0,0.6,0.3,0.6,0.6s-0.3,0.6-0.6,0.6
			H22.1V45c0,0.3-0.3,0.6-0.6,0.6h-1.8c-0.3,0-0.6-0.3-0.6-0.6v-0.8h-1.7V45c0,0.3-0.3,0.6-0.6,0.6h-1.8c-0.3,0-0.6-0.3-0.6-0.6
			v-0.8h-1.2c-0.4,0-0.7,0.3-0.7,0.7v2.9c0,0.4,0.3,0.7,0.7,0.7h22.3c0.1-0.3,0.3-0.5,0.6-0.5c0.3,0,0.6,0.3,0.6,0.6V49
			C36.6,49.4,36.4,49.6,36,49.6z"/>
		<path d="M45.3,49.9c-1.9,0-3.5-1.6-3.5-3.5c0-1.9,1.6-3.5,3.5-3.5c1.1,0,2.1,0.5,2.8,1.4c0.2,0.3,0.2,0.7-0.1,0.9
			c-0.3,0.2-0.7,0.2-0.9-0.1c-0.4-0.6-1.1-0.9-1.8-0.9c-1.3,0-2.3,1-2.3,2.3c0,1.3,1,2.3,2.3,2.3c0.6,0,1.2-0.3,1.7-0.7
			c0.2-0.2,0.6-0.3,0.9,0c0.2,0.2,0.3,0.6,0,0.9C47.2,49.5,46.3,49.9,45.3,49.9z"/>
	</g>
	<path d="M46.4,26.8H11.6c-0.3,0-0.6-0.3-0.6-0.6v-9.7c0-0.3,0.3-0.6,0.6-0.6h34.8c0.3,0,0.6,0.3,0.6,0.6c0,0.3-0.3,0.6-0.6,0.6
		H12.2v8.5h34.2c0.3,0,0.6,0.3,0.6,0.6S46.7,26.8,46.4,26.8z"/>
</g>
<g class="st2">
	<g class="st3">
		<path d="M31.9,47.3c-0.4,0-0.7-0.1-0.9-0.3c-0.2,0.1-0.6,0.2-0.9,0.2c-0.5,0-0.9-0.2-1.2-0.3h-0.1c-0.9,0-1.7-0.8-1.7-1.7v-3
			c0-0.8-0.6-1.4-1.4-1.4c-1.5,0-2.8-1.2-2.8-2.8v-0.3c0-0.7,0-1.3,0.1-2c0.1-0.9,0.2-1.7,0.3-2.5c0-0.9-0.2-1.8-0.7-2.8
			c-0.1-0.3,0-0.6,0.3-0.8c0.3-0.1,0.6,0,0.8,0.3c0.6,1.2,0.9,2.3,0.8,3.3c0,0.9-0.1,1.7-0.3,2.6C24,36.6,24,37.2,24,37.8v0.3
			c0,0.9,0.7,1.6,1.6,1.6c1.4,0,2.6,1.1,2.6,2.6v3c0,0.3,0.3,0.6,0.6,0.6H29c0.1,0,0.3,0,0.4,0.1c0.1,0.1,0.3,0.2,0.6,0.2l0,0
			c0.3,0,0.5-0.2,0.6-0.2c0.2-0.2,0.5-0.2,0.7,0c0.1,0.1,0.3,0.2,0.6,0.2c0.3,0,0.5-0.2,0.5-0.2c0.2-0.2,0.6-0.2,0.8,0
			c0.1,0.1,0.2,0.2,0.4,0.2c0.3,0,0.4-0.1,0.5-0.2c0.2-0.2,0.6-0.2,0.8,0c0,0,0.2,0.2,0.5,0.2c0.2,0,0.4-0.1,0.4-0.2
			c0.1-0.1,0.2-0.2,0.4-0.2c0,0,0.2,0,0.4-0.2c0.1-0.1,0.2-0.2,0.2-0.4v-3c0-1.4,1.1-2.6,2.6-2.6c0.9,0,1.6-0.7,1.6-1.6
			c0-0.1,0-0.2,0-0.3c0-0.3,0-0.6,0-1.2c-0.1-0.9-0.2-1.5-0.2-1.9c0-0.2-0.1-0.4-0.1-0.5c-0.2-1.2,0.1-2.5,0.6-3.8
			c0.1-0.3,0.5-0.4,0.7-0.3s0.4,0.5,0.3,0.7c-0.5,1.2-0.7,2.2-0.5,3.2c0,0.2,0,0.3,0.1,0.5c0.1,0.5,0.2,1.1,0.3,2c0,0.6,0,1,0,1.3
			c0,0.1,0,0.2,0,0.3c0,1.5-1.2,2.8-2.8,2.8c-0.8,0-1.4,0.6-1.4,1.4v3c0,0.5-0.2,0.9-0.5,1.2c-0.3,0.3-0.7,0.4-1,0.5
			c-0.2,0.2-0.5,0.3-1,0.3c-0.4,0-0.7-0.1-0.9-0.2c-0.2,0.1-0.5,0.2-0.9,0.2c-0.3,0-0.6-0.1-0.8-0.2C32.6,47.2,32.3,47.3,31.9,47.3
			C31.9,47.3,31.9,47.3,31.9,47.3L31.9,47.3z"/>
		<path d="M28.9,47c-0.3,0-0.6-0.3-0.6-0.6v-1.6c0-0.3,0.3-0.6,0.6-0.6c0.3,0,0.6,0.3,0.6,0.6v1.6C29.5,46.7,29.2,47,28.9,47z"/>
		<path d="M30.9,47c-0.3,0-0.6-0.3-0.6-0.6v-1.6c0-0.3,0.3-0.6,0.6-0.6c0.3,0,0.6,0.3,0.6,0.6v1.6C31.4,46.7,31.2,47,30.9,47z"/>
		<path d="M32.7,47c-0.3,0-0.6-0.3-0.6-0.6v-1.6c0-0.3,0.3-0.6,0.6-0.6c0.3,0,0.6,0.3,0.6,0.6v1.6C33.3,46.7,33,47,32.7,47z"/>
		<path d="M34.4,47c-0.3,0-0.6-0.3-0.6-0.6v-1.6c0-0.3,0.3-0.6,0.6-0.6c0.3,0,0.6,0.3,0.6,0.6v1.6C35,46.7,34.7,47,34.4,47z"/>
		<path d="M36,47c-0.3,0-0.6-0.3-0.6-0.6v-1.6c0-0.3,0.3-0.6,0.6-0.6c0.3,0,0.6,0.3,0.6,0.6v1.6C36.6,46.7,36.4,47,36,47z"/>
		<path d="M41.5,37.1c-0.3,0-0.6-0.3-0.6-0.6c0-0.3,0.3-0.6,0.6-0.6c0.6,0,1.1-0.5,1.1-1l0.5-6.4c0-0.3,0-0.7,0-1
			C43.1,24,41,20.7,37.9,19c-1.6-0.8-3.6-1.2-6.1-1.1c-2.3,0.1-4.2,0.6-5.7,1.7c-2.9,1.9-4.6,5.5-4.3,9l0.5,6.4c0,0.6,0.5,1,1.1,1
			c0.3,0,0.6,0.3,0.6,0.6c0,0.3-0.3,0.6-0.6,0.6c-1.2,0-2.2-0.9-2.3-2.1c-0.3-4.3-0.5-6.4-0.5-6.4c-0.3-3.9,1.5-7.7,4.8-9.9
			c1.7-1.1,3.8-1.8,6.3-1.9c2.7-0.1,4.9,0.3,6.6,1.3c3.5,1.8,5.7,5.5,5.8,9.5c0,0.4,0,0.7,0,1.1L43.8,35
			C43.7,36.2,42.7,37.1,41.5,37.1L41.5,37.1z"/>
		<path d="M33.1,41.6h-0.9c-0.4,0-0.8-0.2-1.1-0.5c-0.3-0.3-0.4-0.7-0.3-1.1l0.4-2.5c0.1-0.7,0.7-1.2,1.4-1.2c0.7,0,1.2,0.5,1.4,1.1
			l0.5,2.5c0.1,0.4,0,0.8-0.3,1.1C33.9,41.4,33.5,41.6,33.1,41.6L33.1,41.6z M32.6,37.4c-0.1,0-0.2,0.1-0.2,0.2L32,40.2
			c0,0.1,0,0.2,0.1,0.2c0,0,0.1,0.1,0.2,0.1h0.9c0.1,0,0.2-0.1,0.2-0.1c0,0,0.1-0.1,0.1-0.2l-0.5-2.5C32.8,37.5,32.7,37.4,32.6,37.4
			L32.6,37.4z"/>
		<path d="M27.2,37.8C27.2,37.8,27.2,37.8,27.2,37.8c-0.3,0-0.9,0-1.5-0.6c-0.4-0.4-0.6-1-0.5-1.5c0.1-0.8-0.1-1.5-0.2-2
			c-0.2-0.7,0.2-1.5,0.9-1.7c0.8-0.2,1.4,0,2,0.3c0.4,0.2,0.9,0.4,1.5,0.4c0.3,0,0.5,0,0.7,0c0.7,0,1.3,0.5,1.3,1.2l0,0
			c0,0.3,0,0.6-0.1,0.9c-0.2,0.8-0.8,1.2-1,1.4C30,36.7,28.5,37.8,27.2,37.8L27.2,37.8z M26.6,33c-0.1,0-0.2,0-0.3,0
			c-0.1,0-0.2,0.2-0.2,0.3c0.1,0.6,0.3,1.4,0.2,2.4c0,0.3,0.1,0.5,0.2,0.7c0.2,0.2,0.5,0.2,0.6,0.2c0.8,0,2-0.8,2.5-1.2
			c0.2-0.1,0.5-0.4,0.7-0.9c0.1-0.2,0.1-0.4,0.1-0.5l0,0c0-0.1-0.1-0.1-0.2-0.1c-0.3,0-0.6,0-0.9-0.1c-0.7-0.1-1.3-0.3-1.8-0.5
			C27.1,33.1,26.8,33,26.6,33L26.6,33z"/>
		<path d="M37.7,37.8c-1.3,0-2.8-1.1-3.2-1.5c-0.3-0.2-0.8-0.6-1-1.4c-0.1-0.3-0.1-0.6-0.1-0.9c0-0.7,0.6-1.2,1.3-1.2
			c0.3,0,0.5,0,0.7,0c0.6-0.1,1.1-0.3,1.5-0.4c0.7-0.3,1.3-0.5,2-0.3c0.7,0.2,1.1,1,0.9,1.7c-0.1,0.5-0.3,1.2-0.2,2
			c0,0.6-0.1,1.1-0.5,1.5C38.6,37.7,38,37.8,37.7,37.8C37.7,37.8,37.7,37.8,37.7,37.8L37.7,37.8z M34.6,33.8c-0.1,0-0.2,0.1-0.2,0.1
			l0,0c0,0.2,0,0.4,0.1,0.5c0.1,0.5,0.4,0.7,0.6,0.8c0.6,0.5,1.8,1.3,2.6,1.3c0.2,0,0.4,0,0.6-0.2c0.2-0.2,0.2-0.4,0.2-0.7
			c-0.1-0.9,0.1-1.8,0.2-2.4c0-0.1,0-0.3-0.2-0.3c-0.4-0.1-0.7,0-1.3,0.2c-0.5,0.2-1,0.4-1.8,0.5C35.2,33.8,34.9,33.9,34.6,33.8
			L34.6,33.8L34.6,33.8z M33.9,34L33.9,34L33.9,34z"/>
		<path d="M29.8,50.7c-0.3,0-0.6-0.3-0.6-0.6v-1.9c0-0.3,0.3-0.6,0.6-0.6c0.3,0,0.6,0.3,0.6,0.6v1.9C30.3,50.4,30.1,50.7,29.8,50.7z
			"/>
		<path d="M31.6,50.7c-0.3,0-0.6-0.3-0.6-0.6v-1.9c0-0.3,0.3-0.6,0.6-0.6c0.3,0,0.6,0.3,0.6,0.6v1.9C32.1,50.4,31.9,50.7,31.6,50.7z
			"/>
		<path d="M33.4,50.7c-0.3,0-0.6-0.3-0.6-0.6v-1.9c0-0.3,0.3-0.6,0.6-0.6s0.6,0.3,0.6,0.6v1.9C33.9,50.4,33.7,50.7,33.4,50.7z"/>
		<path d="M35.2,50.7c-0.3,0-0.6-0.3-0.6-0.6v-1.9c0-0.3,0.3-0.6,0.6-0.6c0.3,0,0.6,0.3,0.6,0.6v1.9C35.7,50.4,35.5,50.7,35.2,50.7z
			"/>
		<path d="M36,50.7H29c-0.3,0-0.6-0.3-0.6-0.6s0.3-0.6,0.6-0.6H36c0.3,0,0.6,0.3,0.6,0.6S36.4,50.7,36,50.7z"/>
		<path d="M29,50.7c-0.1,0-0.2,0-0.3-0.1l-1.7-1.3c-0.1-0.1-0.2-0.3-0.2-0.4v-1.4c0-0.3,0.3-0.6,0.6-0.6c0.3,0,0.6,0.3,0.6,0.6v1.1
			l1.5,1.2c0.3,0.2,0.3,0.5,0.1,0.8C29.3,50.6,29.1,50.7,29,50.7L29,50.7z"/>
		<path d="M36,50.7c-0.2,0-0.3-0.1-0.4-0.2c-0.2-0.2-0.2-0.6,0.1-0.8l1.4-1.2v-1.2c0-0.3,0.3-0.6,0.6-0.6s0.6,0.3,0.6,0.6v1.4
			c0,0.2-0.1,0.3-0.2,0.4l-1.6,1.3C36.3,50.6,36.2,50.7,36,50.7z"/>
	</g>
	<path class="st3" d="M20.8,43.6c-1,0-1.8-0.8-1.8-1.8c0-1,0.8-1.8,1.8-1.8c1,0,1.8,0.8,1.8,1.8C22.6,42.8,21.8,43.6,20.8,43.6z
		 M20.8,41.1c-0.4,0-0.7,0.3-0.7,0.7c0,0.4,0.3,0.7,0.7,0.7s0.7-0.3,0.7-0.7C21.5,41.4,21.2,41.1,20.8,41.1z"/>
	<path class="st3" d="M15.8,47.7c-1,0-1.8-0.8-1.8-1.8c0-1,0.8-1.8,1.8-1.8s1.8,0.8,1.8,1.8C17.6,46.9,16.8,47.7,15.8,47.7z
		 M15.8,45.3c-0.4,0-0.7,0.3-0.7,0.7s0.3,0.7,0.7,0.7c0.4,0,0.7-0.3,0.7-0.7S16.2,45.3,15.8,45.3z"/>
	<path class="st3" d="M16.5,25.8c-1,0-1.8-0.8-1.8-1.8s0.8-1.8,1.8-1.8c1,0,1.8,0.8,1.8,1.8S17.5,25.8,16.5,25.8z M16.5,23.4
		c-0.4,0-0.7,0.3-0.7,0.7c0,0.4,0.3,0.7,0.7,0.7c0.4,0,0.7-0.3,0.7-0.7C17.1,23.7,16.8,23.4,16.5,23.4z"/>
	<path class="st3" d="M11.8,32.1c-1,0-1.8-0.8-1.8-1.8s0.8-1.8,1.8-1.8s1.8,0.8,1.8,1.8S12.8,32.1,11.8,32.1z M11.8,29.6
		c-0.4,0-0.7,0.3-0.7,0.7s0.3,0.7,0.7,0.7c0.4,0,0.7-0.3,0.7-0.7S12.2,29.6,11.8,29.6z"/>
	<path class="st3" d="M21.3,17.9c-1,0-1.8-0.8-1.8-1.8c0-1,0.8-1.8,1.8-1.8s1.8,0.8,1.8,1.8C23.1,17.1,22.3,17.9,21.3,17.9z
		 M21.3,15.5c-0.4,0-0.7,0.3-0.7,0.7c0,0.4,0.3,0.7,0.7,0.7s0.7-0.3,0.7-0.7C21.9,15.8,21.6,15.5,21.3,15.5z"/>
	<path class="st3" d="M12.4,22.6c-1,0-1.8-0.8-1.8-1.8s0.8-1.8,1.8-1.8s1.8,0.8,1.8,1.8S13.4,22.6,12.4,22.6z M12.4,20.1
		c-0.4,0-0.7,0.3-0.7,0.7s0.3,0.7,0.7,0.7c0.4,0,0.7-0.3,0.7-0.7S12.8,20.1,12.4,20.1z"/>
	<path class="st3" d="M21.3,31.1h-4.8c-0.2,0-0.4-0.1-0.5-0.3l-2.3-3.4c-0.2-0.3-0.1-0.6,0.2-0.8c0.3-0.2,0.6-0.1,0.8,0.2l2.1,3.2
		h4.5c0.3,0,0.6,0.3,0.6,0.6S21.6,31.2,21.3,31.1L21.3,31.1z"/>
	<path class="st3" d="M21.7,34.7h-7.6c-0.2,0-0.4-0.1-0.5-0.3l-1.8-2.7c-0.2-0.3-0.1-0.6,0.2-0.8c0.3-0.2,0.6-0.1,0.8,0.2l1.6,2.4
		h7.2c0.3,0,0.6,0.3,0.6,0.6C22.3,34.4,22,34.7,21.7,34.7z"/>
	<path class="st3" d="M19.5,42.3h-1.8c-0.3,0-0.6-0.3-0.6-0.6v-3.7c0-0.3,0.3-0.6,0.6-0.6h5.8c0.3,0,0.6,0.3,0.6,0.6
		c0,0.3-0.3,0.6-0.6,0.6h-5.2v2.5h1.2c0.3,0,0.6,0.3,0.6,0.6C20,42.1,19.8,42.3,19.5,42.3z"/>
	<path class="st3" d="M27.2,49.3h-4.2c-0.3,0-0.6-0.3-0.6-0.6v-2.3h-5.4c-0.3,0-0.6-0.3-0.6-0.6s0.3-0.6,0.6-0.6h6
		c0.3,0,0.6,0.3,0.6,0.6v2.3h3.6c0.3,0,0.6,0.3,0.6,0.6S27.6,49.3,27.2,49.3z"/>
	<path class="st3" d="M22.6,23.2c-0.1,0-0.3-0.1-0.4-0.2l-1.9-1.7h-6.6c-0.3,0-0.6-0.3-0.6-0.6c0-0.3,0.3-0.6,0.6-0.6h6.9
		c0.1,0,0.3,0.1,0.4,0.2l2,1.9c0.2,0.2,0.2,0.6,0,0.8C22.9,23.2,22.8,23.2,22.6,23.2z"/>
	<path class="st3" d="M27.7,43.1H25c-0.3,0-0.6-0.3-0.6-0.6c0-0.3,0.3-0.6,0.6-0.6h2.7c0.3,0,0.6,0.3,0.6,0.6
		C28.2,42.9,28,43.1,27.7,43.1z"/>
	<path class="st3" d="M28.6,18.4c-0.3,0-0.6-0.3-0.6-0.6v-1.3h-5.7c-0.3,0-0.6-0.3-0.6-0.6s0.3-0.6,0.6-0.6h6.2
		c0.3,0,0.6,0.3,0.6,0.6v1.9C29.2,18.2,28.9,18.4,28.6,18.4z"/>
	<path class="st3" d="M25.3,20.1c-0.3,0-0.6-0.3-0.6-0.6v-0.9h-1.5c-0.3,0-0.6-0.3-0.6-0.6c0-0.3,0.3-0.6,0.6-0.6h2
		c0.3,0,0.6,0.3,0.6,0.6v1.5C25.8,19.9,25.6,20.1,25.3,20.1z"/>
	<path class="st3" d="M21.4,26.5c-0.2,0-0.3-0.1-0.4-0.2l-1.7-1.7h-1.6c-0.3,0-0.6-0.3-0.6-0.6s0.3-0.6,0.6-0.6h1.8
		c0.2,0,0.3,0.1,0.4,0.2l1.8,1.9c0.2,0.2,0.2,0.6,0,0.8C21.7,26.5,21.5,26.5,21.4,26.5z"/>
	<path class="st3" d="M21.1,28.9h-2.3c-0.3,0-0.6-0.3-0.6-0.6c0-0.3,0.3-0.6,0.6-0.6h2.3c0.3,0,0.6,0.3,0.6,0.6
		C21.7,28.6,21.5,28.9,21.1,28.9z"/>
	<path class="st3" d="M44.2,43.6c-1,0-1.8-0.8-1.8-1.8c0-1,0.8-1.8,1.8-1.8c1,0,1.8,0.8,1.8,1.8C46,42.8,45.2,43.6,44.2,43.6z
		 M44.2,41.1c-0.4,0-0.7,0.3-0.7,0.7c0,0.4,0.3,0.7,0.7,0.7s0.7-0.3,0.7-0.7C44.8,41.4,44.5,41.1,44.2,41.1z"/>
	<path class="st3" d="M49.2,47.7c-1,0-1.8-0.8-1.8-1.8c0-1,0.8-1.8,1.8-1.8s1.8,0.8,1.8,1.8C51,46.9,50.2,47.7,49.2,47.7z
		 M49.2,45.3c-0.4,0-0.7,0.3-0.7,0.7s0.3,0.7,0.7,0.7s0.7-0.3,0.7-0.7S49.5,45.3,49.2,45.3z"/>
	<path class="st3" d="M48.5,25.8c-1,0-1.8-0.8-1.8-1.8s0.8-1.8,1.8-1.8s1.8,0.8,1.8,1.8S49.5,25.8,48.5,25.8z M48.5,23.4
		c-0.4,0-0.7,0.3-0.7,0.7c0,0.4,0.3,0.7,0.7,0.7s0.7-0.3,0.7-0.7C49.2,23.7,48.9,23.4,48.5,23.4z"/>
	<path class="st3" d="M53.2,32.1c-1,0-1.8-0.8-1.8-1.8s0.8-1.8,1.8-1.8s1.8,0.8,1.8,1.8S54.2,32.1,53.2,32.1z M53.2,29.6
		c-0.4,0-0.7,0.3-0.7,0.7s0.3,0.7,0.7,0.7s0.7-0.3,0.7-0.7S53.6,29.6,53.2,29.6z"/>
	<path class="st3" d="M43.7,17.9c-1,0-1.8-0.8-1.8-1.8c0-1,0.8-1.8,1.8-1.8c1,0,1.8,0.8,1.8,1.8C45.5,17.1,44.7,17.9,43.7,17.9z
		 M43.7,15.5c-0.4,0-0.7,0.3-0.7,0.7c0,0.4,0.3,0.7,0.7,0.7s0.7-0.3,0.7-0.7C44.4,15.8,44.1,15.5,43.7,15.5z"/>
	<path class="st3" d="M52.6,22.6c-1,0-1.8-0.8-1.8-1.8s0.8-1.8,1.8-1.8s1.8,0.8,1.8,1.8S53.6,22.6,52.6,22.6z M52.6,20.1
		c-0.4,0-0.7,0.3-0.7,0.7s0.3,0.7,0.7,0.7s0.7-0.3,0.7-0.7S53,20.1,52.6,20.1z"/>
	<path class="st3" d="M48.6,31.1h-4.8c-0.3,0-0.6-0.3-0.6-0.6s0.3-0.6,0.6-0.6h4.5l2.1-3.2c0.2-0.3,0.5-0.3,0.8-0.2
		c0.3,0.2,0.3,0.5,0.2,0.8L49,30.9C48.9,31,48.8,31.1,48.6,31.1L48.6,31.1z"/>
	<path class="st3" d="M50.9,34.7h-7.6c-0.3,0-0.6-0.3-0.6-0.6c0-0.3,0.3-0.6,0.6-0.6h7.2l1.6-2.4c0.2-0.3,0.5-0.3,0.8-0.2
		s0.3,0.5,0.2,0.8l-1.8,2.7C51.2,34.6,51,34.7,50.9,34.7z"/>
	<path class="st3" d="M47.3,42.3h-1.8c-0.3,0-0.6-0.3-0.6-0.6c0-0.3,0.3-0.6,0.6-0.6h1.2v-2.5h-5.2c-0.3,0-0.6-0.3-0.6-0.6
		c0-0.3,0.3-0.6,0.6-0.6h5.8c0.3,0,0.6,0.3,0.6,0.6v3.7C47.9,42.1,47.6,42.3,47.3,42.3z"/>
	<path class="st3" d="M41.9,49.3h-4.2c-0.3,0-0.6-0.3-0.6-0.6s0.3-0.6,0.6-0.6h3.6v-2.3c0-0.3,0.3-0.6,0.6-0.6h6
		c0.3,0,0.6,0.3,0.6,0.6s-0.3,0.6-0.6,0.6h-5.5v2.3C42.5,49.1,42.2,49.3,41.9,49.3z"/>
	<path class="st3" d="M42.4,23.2c-0.2,0-0.3-0.1-0.4-0.2c-0.2-0.2-0.2-0.6,0-0.8l2-1.9c0.1-0.1,0.2-0.2,0.4-0.2h6.9
		c0.3,0,0.6,0.3,0.6,0.6c0,0.3-0.3,0.6-0.6,0.6h-6.6l-1.9,1.7C42.7,23.2,42.5,23.2,42.4,23.2z"/>
	<path class="st3" d="M40.1,43.1h-2.7c-0.3,0-0.6-0.3-0.6-0.6c0-0.3,0.3-0.6,0.6-0.6h2.7c0.3,0,0.6,0.3,0.6,0.6
		C40.6,42.9,40.4,43.1,40.1,43.1z"/>
	<path class="st3" d="M36.4,18.4c-0.3,0-0.6-0.3-0.6-0.6V16c0-0.3,0.3-0.6,0.6-0.6h6.2c0.3,0,0.6,0.3,0.6,0.6s-0.3,0.6-0.6,0.6H37
		v1.3C37,18.2,36.7,18.4,36.4,18.4z"/>
	<path class="st3" d="M39.7,20.1c-0.3,0-0.6-0.3-0.6-0.6v-1.5c0-0.3,0.3-0.6,0.6-0.6h2c0.3,0,0.6,0.3,0.6,0.6c0,0.3-0.3,0.6-0.6,0.6
		h-1.5v0.9C40.3,19.9,40,20.1,39.7,20.1z"/>
	<path class="st3" d="M43.6,26.5c-0.1,0-0.3-0.1-0.4-0.2c-0.2-0.2-0.2-0.6,0-0.8l1.8-1.9c0.1-0.1,0.3-0.2,0.4-0.2h1.8
		c0.3,0,0.6,0.3,0.6,0.6s-0.3,0.6-0.6,0.6h-1.6L44,26.3C43.9,26.4,43.8,26.5,43.6,26.5z"/>
	<path class="st3" d="M46.2,28.9h-2.3c-0.3,0-0.6-0.3-0.6-0.6c0-0.3,0.3-0.6,0.6-0.6h2.3c0.3,0,0.6,0.3,0.6,0.6
		C46.7,28.6,46.5,28.9,46.2,28.9z"/>
</g>
</svg>
