<?xml version="1.0" encoding="utf-8"?>
<!-- Generator: Adobe Illustrator 27.8.1, SVG Export Plug-In . SVG Version: 6.00 Build 0)  -->
<svg version="1.1" id="Calque_1" xmlns="http://www.w3.org/2000/svg" xmlns:xlink="http://www.w3.org/1999/xlink" x="0px" y="0px"
	 viewBox="0 0 8 8" style="enable-background:new 0 0 8 8;" xml:space="preserve">
<style type="text/css">
	.st0{display:none;fill:#3BEABC;}
	.st1{fill:#3BEABC;}
	.st2{fill:#58EDC6;}
	.st3{fill:url(#SVGID_1_);}
	.st4{fill:url(#SVGID_00000076565669317347213970000010590026838374367401_);}
	.st5{fill:url(#SVGID_00000121274961428951443310000004037999398698325931_);}
	.st6{fill:url(#SVGID_00000177481606651469488190000007093503436841950111_);}
	.st7{fill:url(#SVGID_00000164496491494559034100000002329240407598055854_);}
	.st8{fill:url(#SVGID_00000019644065759174513820000003785081687997743007_);}
	.st9{fill:url(#SVGID_00000170985534349652921500000001491263099761268631_);}
	.st10{fill:url(#SVGID_00000091702301350072617690000007231247258598011273_);}
</style>
<path class="st0" d="M6,0H2v1H1v1H0v4h1v1h1v1h4V7h1V6h1V2H7V1H6V0z"/>
<g>
	<g id="Ability_bage_80_00000128465556832190900410000014620762515891704450_">
		<g>
			<g>
				<path class="st1" d="M3.1,4.5l0.4-0.2c0,0,0-0.1,0-0.1c0-0.2,0.2-0.4,0.4-0.5V3.3C3.4,3.2,3,3.1,2.7,2.8C2.4,3,2.2,3.4,2.1,3.7
					C2.5,3.9,2.9,4.1,3.1,4.5z"/>
				<path class="st2" d="M3.1,4.5L3.1,4.5c-0.3-0.4-0.6-0.6-1-0.8l-0.1,0l0-0.1c0.1-0.4,0.3-0.7,0.6-1l0,0l0,0C3,3,3.4,3.2,3.8,3.2
					l0.1,0v0.5l0,0C3.7,3.8,3.5,4,3.5,4.2c0,0,0,0.1,0,0.1l0,0L3.1,4.5L3.1,4.5z M2.2,3.7c0.4,0.1,0.7,0.4,0.9,0.7l0.3-0.2
					c0,0,0-0.1,0-0.1c0-0.2,0.1-0.5,0.4-0.6V3.3C3.4,3.3,3,3.1,2.7,2.9C2.5,3.1,2.3,3.4,2.2,3.7z"/>
			</g>
			<g>
				
					<linearGradient id="SVGID_1_" gradientUnits="userSpaceOnUse" x1="306.001" y1="-390.3872" x2="306.001" y2="-391.6983" gradientTransform="matrix(1 0 0 -1 -302 -384)">
					<stop  offset="0" style="stop-color:#6218B2"/>
					<stop  offset="1" style="stop-color:#9757CF"/>
				</linearGradient>
				<path class="st3" d="M4.6,6.4C4.4,6.4,4.2,6.5,4,6.5s-0.4,0-0.6-0.1c-0.2,0.4-0.5,0.8-0.9,1c-0.3,0.2-0.6,0.3-1,0.3
					c0.5,0.1,1.1,0,1.6-0.3C3.5,7.2,3.8,6.9,4,6.5c0.2,0.3,0.5,0.6,0.9,0.8c0.5,0.3,1.1,0.4,1.6,0.3c-0.3,0-0.7-0.1-1-0.3
					C5.1,7.2,4.8,6.8,4.6,6.4L4.6,6.4z"/>
				
					<linearGradient id="SVGID_00000132771585516776765140000017495228429500227509_" gradientUnits="userSpaceOnUse" x1="306.001" y1="-390.3862" x2="306.001" y2="-391.6973" gradientTransform="matrix(1 0 0 -1 -302 -384)">
					<stop  offset="0" style="stop-color:#7A00F9"/>
					<stop  offset="1" style="stop-color:#3BEABC"/>
				</linearGradient>
				<path style="fill:url(#SVGID_00000132771585516776765140000017495228429500227509_);" d="M4.6,6.5c0.2,0.4,0.5,0.7,0.9,1
					c0,0,0,0,0.1,0c-0.2,0-0.4-0.1-0.6-0.2C4.6,7.1,4.4,6.9,4.2,6.6C4.3,6.6,4.4,6.6,4.6,6.5z M3.4,6.5c0.1,0,0.3,0.1,0.4,0.1
					C3.6,6.9,3.4,7.1,3.1,7.3C2.9,7.4,2.7,7.5,2.5,7.5c0,0,0,0,0.1,0C2.9,7.3,3.2,6.9,3.4,6.5L3.4,6.5z M4.6,6.4
					C4.4,6.4,4.2,6.5,4,6.5s-0.4,0-0.6-0.1c-0.2,0.4-0.5,0.8-0.9,1c-0.3,0.2-0.6,0.3-1,0.3c0.2,0,0.3,0,0.5,0c0.4,0,0.8-0.1,1.2-0.3
					C3.5,7.2,3.8,6.9,4,6.5c0.2,0.3,0.5,0.6,0.9,0.8C5.2,7.6,5.6,7.7,6,7.7c0.2,0,0.3,0,0.5,0c-0.3,0-0.7-0.1-1-0.3
					C5.1,7.2,4.8,6.8,4.6,6.4L4.6,6.4z"/>
			</g>
			<g>
				
					<linearGradient id="SVGID_00000002366881513697193200000016440528804702587537_" gradientUnits="userSpaceOnUse" x1="303.0907" y1="-384.3003" x2="303.0907" y2="-388.5759" gradientTransform="matrix(1 0 0 -1 -302 -384)">
					<stop  offset="0" style="stop-color:#6218B2"/>
					<stop  offset="1" style="stop-color:#9757CF"/>
				</linearGradient>
				<path style="fill:url(#SVGID_00000002366881513697193200000016440528804702587537_);" d="M2.4,2.6C2.4,2.6,2.4,2.5,2.4,2.6
					C2.2,2.2,2,1.7,2,1.3c0-0.3,0.1-0.7,0.2-1C1.9,0.7,1.6,1.2,1.6,1.8C1.6,2.3,1.8,2.7,2,3C1.6,3,1.2,3.1,0.8,3.3
					c-0.5,0.3-0.9,0.7-1,1.3c0.2-0.3,0.4-0.5,0.7-0.7c0.4-0.2,0.9-0.3,1.3-0.2C1.9,3.2,2.1,2.9,2.4,2.6L2.4,2.6z"/>
				
					<linearGradient id="SVGID_00000102520114955104888950000004157467576405290904_" gradientUnits="userSpaceOnUse" x1="303.0902" y1="-384.3003" x2="303.0902" y2="-388.5759" gradientTransform="matrix(1 0 0 -1 -302 -384)">
					<stop  offset="0" style="stop-color:#7A00F9"/>
					<stop  offset="1" style="stop-color:#3BEABC"/>
				</linearGradient>
				<path style="fill:url(#SVGID_00000102520114955104888950000004157467576405290904_);" d="M1.9,1.2C1.9,1.2,1.9,1.2,1.9,1.2
					c0,0.5,0.1,1,0.4,1.3C2.2,2.6,2.1,2.7,2,2.9c-0.2-0.3-0.2-0.7-0.2-1C1.8,1.6,1.8,1.4,1.9,1.2L1.9,1.2z M1.9,3.1
					C1.8,3.2,1.7,3.4,1.7,3.5c-0.1,0-0.2,0-0.2,0c-0.4,0-0.7,0.1-1.1,0.3c0,0,0,0-0.1,0c0.1-0.2,0.3-0.3,0.5-0.4
					C1.2,3.2,1.5,3.1,1.9,3.1L1.9,3.1z M2.2,0.3C1.9,0.7,1.6,1.2,1.6,1.8C1.6,2.3,1.8,2.7,2,3C1.6,3,1.2,3.1,0.8,3.3
					c-0.5,0.3-0.9,0.7-1,1.3c0.2-0.3,0.4-0.5,0.7-0.7c0.3-0.2,0.7-0.3,1-0.3c0.1,0,0.2,0,0.3,0c0.1-0.4,0.3-0.8,0.6-1.1c0,0,0,0,0,0
					C2.1,2.2,2,1.7,2,1.3C2,0.9,2.1,0.6,2.2,0.3L2.2,0.3z"/>
			</g>
			<g>
				
					<linearGradient id="SVGID_00000115491515098525116470000000505777137454681267_" gradientUnits="userSpaceOnUse" x1="308.9083" y1="-384.2993" x2="308.9083" y2="-388.5739" gradientTransform="matrix(1 0 0 -1 -302 -384)">
					<stop  offset="0" style="stop-color:#6218B2"/>
					<stop  offset="1" style="stop-color:#9757CF"/>
				</linearGradient>
				<path style="fill:url(#SVGID_00000115491515098525116470000000505777137454681267_);" d="M7.2,3.3C6.8,3.1,6.4,3,6.1,3
					c0.2-0.3,0.3-0.7,0.3-1.2c0-0.6-0.2-1.1-0.6-1.5C5.9,0.6,6,0.9,6,1.3c0,0.5-0.2,0.9-0.5,1.3c0,0,0,0,0,0
					c0.3,0.3,0.5,0.7,0.6,1.1c0.4-0.1,0.9,0,1.3,0.2c0.3,0.2,0.5,0.4,0.7,0.7C8.1,4.1,7.7,3.6,7.2,3.3L7.2,3.3z"/>
				
					<linearGradient id="SVGID_00000142166009802963172350000008791611022916704944_" gradientUnits="userSpaceOnUse" x1="308.9093" y1="-384.2993" x2="308.9093" y2="-388.5739" gradientTransform="matrix(1 0 0 -1 -302 -384)">
					<stop  offset="0" style="stop-color:#7A00F9"/>
					<stop  offset="1" style="stop-color:#3BEABC"/>
				</linearGradient>
				<path style="fill:url(#SVGID_00000142166009802963172350000008791611022916704944_);" d="M6.1,1.2c0.1,0.2,0.1,0.4,0.1,0.6
					c0,0.4-0.1,0.7-0.3,1C5.9,2.7,5.8,2.6,5.7,2.5C6,2.2,6.1,1.7,6.1,1.2C6.1,1.2,6.1,1.2,6.1,1.2z M6.1,3.1c0.4,0,0.7,0.1,1,0.3
					c0.2,0.1,0.4,0.2,0.5,0.4c0,0,0,0-0.1,0C7.3,3.6,6.9,3.5,6.5,3.5c-0.1,0-0.2,0-0.2,0C6.3,3.4,6.2,3.2,6.1,3.1z M5.8,0.3
					C5.9,0.6,6,0.9,6,1.3c0,0.5-0.2,0.9-0.5,1.3c0,0,0,0,0,0c0.3,0.3,0.5,0.7,0.6,1.1c0.1,0,0.2,0,0.3,0c0.3,0,0.7,0.1,1,0.3
					c0.3,0.2,0.5,0.4,0.7,0.7c-0.2-0.5-0.5-1-1-1.3C6.8,3.1,6.4,3,6.1,3c0.2-0.3,0.3-0.7,0.3-1.2C6.4,1.2,6.1,0.7,5.8,0.3L5.8,0.3z"
					/>
			</g>
			<g>
				<path class="st1" d="M5.3,2.8C5,3.1,4.6,3.2,4.2,3.3v0.4c0.2,0.1,0.4,0.3,0.4,0.5c0,0,0,0.1,0,0.1l0.3,0.2
					c0.2-0.3,0.6-0.6,1-0.7C5.8,3.4,5.6,3,5.3,2.8L5.3,2.8z"/>
				<path class="st2" d="M4.9,4.5L4.5,4.3l0,0c0,0,0-0.1,0-0.1c0-0.2-0.1-0.4-0.4-0.5l0,0V3.2l0.1,0C4.6,3.2,5,3,5.3,2.8l0,0l0,0
					c0.3,0.3,0.5,0.6,0.6,1l0,0.1l-0.1,0C5.5,3.9,5.2,4.2,4.9,4.5L4.9,4.5L4.9,4.5z M4.6,4.3l0.2,0.1c0.2-0.3,0.6-0.6,0.9-0.7
					C5.7,3.4,5.5,3.1,5.3,2.9C5,3.1,4.6,3.3,4.2,3.3v0.3C4.5,3.7,4.6,3.9,4.6,4.3C4.6,4.2,4.6,4.2,4.6,4.3z"/>
			</g>
			<g>
				<path class="st1" d="M4,6.1c0.2,0,0.4,0,0.5-0.1c-0.1-0.4,0-0.9,0.2-1.3L4.4,4.6C4.3,4.7,4.2,4.7,4,4.7c-0.1,0-0.3-0.1-0.4-0.1
					L3.3,4.8C3.5,5.2,3.5,5.6,3.5,6C3.6,6.1,3.8,6.1,4,6.1L4,6.1z"/>
				<path class="st2" d="M4,6.2c-0.2,0-0.4,0-0.6-0.1l-0.1,0l0-0.1c0.1-0.4,0-0.9-0.2-1.2l0-0.1l0.4-0.2l0,0C3.8,4.6,3.9,4.7,4,4.7
					c0.1,0,0.2,0,0.3-0.1l0,0l0.4,0.2l0,0.1C4.6,5.2,4.5,5.6,4.6,6l0,0.1l-0.1,0C4.4,6.2,4.2,6.2,4,6.2L4,6.2z M3.5,6
					c0.3,0.1,0.6,0.1,0.9,0c-0.1-0.4,0-0.8,0.2-1.2L4.4,4.6C4.3,4.7,4.2,4.8,4,4.8c-0.1,0-0.3,0-0.4-0.1L3.4,4.8
					C3.5,5.2,3.6,5.6,3.5,6L3.5,6z"/>
			</g>
			<g>
				
					<linearGradient id="SVGID_00000056420678309240490790000002160395994113356707_" gradientUnits="userSpaceOnUse" x1="305.9951" y1="-385.9073" x2="305.9951" y2="-390.4809" gradientTransform="matrix(1 0 0 -1 -302 -384)">
					<stop  offset="0" style="stop-color:#934FCD"/>
					<stop  offset="1" style="stop-color:#3BEABC"/>
				</linearGradient>
				<path style="fill:url(#SVGID_00000056420678309240490790000002160395994113356707_);" d="M4,2.3c1.1,0,1.9,0.9,1.9,1.9
					S5.1,6.1,4,6.1S2.1,5.3,2.1,4.2S2.9,2.3,4,2.3z M4,1.9c-0.6,0-1.2,0.2-1.6,0.7C2,3,1.7,3.6,1.7,4.2S2,5.4,2.4,5.8s1,0.7,1.6,0.7
					s1.2-0.2,1.6-0.7c0.4-0.4,0.7-1,0.7-1.6S6,3,5.6,2.6S4.6,1.9,4,1.9z"/>
				
					<linearGradient id="SVGID_00000069382719363669621920000005533792076315475602_" gradientUnits="userSpaceOnUse" x1="305.9951" y1="-385.8472" x2="305.9951" y2="-390.5401" gradientTransform="matrix(1 0 0 -1 -302 -384)">
					<stop  offset="0" style="stop-color:#53008E"/>
					<stop  offset="2.000000e-02" style="stop-color:#550194"/>
					<stop  offset="0.12" style="stop-color:#6008B3"/>
					<stop  offset="0.24" style="stop-color:#690ECC"/>
					<stop  offset="0.36" style="stop-color:#7112E0"/>
					<stop  offset="0.51" style="stop-color:#7615EE"/>
					<stop  offset="0.69" style="stop-color:#7917F6"/>
					<stop  offset="1" style="stop-color:#7A18F9"/>
				</linearGradient>
				<path style="fill:url(#SVGID_00000069382719363669621920000005533792076315475602_);" d="M4,6.5c-0.6,0-1.2-0.2-1.6-0.7
					c-0.4-0.4-0.7-1-0.7-1.7S1.9,3,2.3,2.5c0.4-0.4,1-0.7,1.6-0.7s1.2,0.2,1.6,0.7c0.4,0.4,0.7,1,0.7,1.7S6.1,5.4,5.6,5.9
					C5.2,6.3,4.6,6.5,4,6.5z M4,2C3.4,2,2.8,2.2,2.4,2.6C2,3,1.8,3.6,1.8,4.2S2,5.3,2.4,5.8c0.4,0.4,1,0.7,1.6,0.7s1.1-0.2,1.6-0.7
					c0.4-0.4,0.6-1,0.6-1.6S6,3,5.6,2.6C5.1,2.2,4.6,2,4,2z M4,6.2c-1.1,0-2-0.9-2-2s0.9-2,2-2s2,0.9,2,2S5.1,6.2,4,6.2z M4,2.3
					c-1,0-1.9,0.8-1.9,1.9S3,6.1,4,6.1s1.9-0.8,1.9-1.9S5,2.3,4,2.3z"/>
			</g>
		</g>
	</g>
</g>
</svg>
