<?xml version="1.0" encoding="utf-8"?>
<!-- Generator: Adobe Illustrator 27.8.1, SVG Export Plug-In . SVG Version: 6.00 Build 0)  -->
<svg version="1.1" id="Calque_1" xmlns="http://www.w3.org/2000/svg" xmlns:xlink="http://www.w3.org/1999/xlink" x="0px" y="0px"
	 viewBox="0 0 65 65" style="enable-background:new 0 0 65 65;" xml:space="preserve">
<style type="text/css">
	.st0{fill:#3BEABC;}
	.st1{display:none;fill:none;stroke:#000000;stroke-width:1.5;stroke-linecap:round;stroke-linejoin:round;}
	.st2{display:none;}
	.st3{display:inline;}
</style>
<circle class="st0" cx="32.5" cy="32.5" r="31.5"/>
<path class="st1" d="M28.5,48.4c-5.3-1.4-8.2-7.1-6.2-12.2l2.9-7.5c1.6-4.1,6.1-6.4,10.4-5.2c4.4,1.2,7.1,5.5,6.2,9.9l-1.6,7.9
	C39.1,46.5,33.7,49.8,28.5,48.4z"/>
<path class="st1" d="M39,25.3c0.6-0.5,1-1.2,1.2-2c0.7-2.4-0.7-4.9-3.2-5.5c-2.4-0.7-4.9,0.8-5.6,3.2c-0.2,0.8-0.2,1.6,0,2.4"/>
<path class="st1" d="M28.5,48.3l4.4-15.6"/>
<path class="st1" d="M31.4,23.3l-5.9-1.6l-2.1-3.6"/>
<path class="st1" d="M25,28.7l-3.7-1L18,23.4"/>
<path class="st1" d="M21.9,37l-3.7-1l-3.5,3.2"/>
<path class="st1" d="M22.6,43.5L19.7,45L17,47.3"/>
<path class="st1" d="M39.2,25.4l5.9,1.6l3.7-2"/>
<path class="st1" d="M41.9,33.3l3.7,1l5.1-2"/>
<path class="st1" d="M40.2,42l3.7,1l1.4,4.5"/>
<path class="st1" d="M36.3,47.2L38,50l1.1,3.3"/>
<path class="st1" d="M34.2,17.9c0,0-1.1-2.7,1.5-4.4"/>
<path class="st1" d="M39.5,19.3c0,0,2.3-1.8,0.9-4.5"/>
<g class="st2">
	<g class="st3">
		<path d="M45.6,26.9h-26c-0.3,0-0.6-0.3-0.6-0.6s0.3-0.6,0.6-0.6h26c0.3,0,0.6,0.3,0.6,0.6S45.9,26.9,45.6,26.9z"/>
		<path d="M51.9,51.5H13.1c-0.3,0-0.6-0.3-0.6-0.6V23.2c0-1.6,1.3-3,3-3h7.9c1.2,0,2.3,0.7,2.8,1.9l1.6,4c0.1,0.3,0,0.6-0.3,0.7
			s-0.6,0-0.7-0.3l-1.6-4c-0.3-0.7-0.9-1.1-1.7-1.1h-7.9c-1,0-1.8,0.8-1.8,1.8v27.1h37.7v-24c0-0.3,0.3-0.6,0.6-0.6s0.6,0.3,0.6,0.6
			v24.6C52.5,51.2,52.2,51.5,51.9,51.5z"/>
	</g>
	<g class="st3">
		<path d="M43.3,39.1c-3.5,0-6.4-2.8-6.4-6.3v-1c-0.4,0.6-0.8,0.9-0.8,0.9c-0.2,0.2-0.6,0.2-0.8,0s-0.2-0.6,0-0.8
			c0,0,1.5-1.4,1.6-3.3v-0.4c0-0.3,0.3-0.6,0.6-0.6s0.6,0.2,0.6,0.6c0,0.1,0,0.3,0,0.4v4.2c0,2.9,2.3,5.2,5.2,5.2s5.2-2.3,5.2-5.2
			v-8.5c0-0.3,0.3-0.6,0.6-0.6s0.6,0.3,0.6,0.6v8.5C49.7,36.2,46.8,39.1,43.3,39.1L43.3,39.1z"/>
		<path d="M48,25.2c-0.2,0-0.4-0.1-0.5-0.4s0-0.6,0.3-0.7l1.9-0.7c0.3-0.1,0.6,0,0.7,0.3c0.1,0.3,0,0.6-0.3,0.7l-1.9,0.7
			C48.1,25.2,48,25.2,48,25.2L48,25.2z"/>
		<path d="M48,23.6c-0.2,0-0.4-0.1-0.5-0.4s0-0.6,0.3-0.7l1.9-0.7c0.3-0.1,0.6,0,0.7,0.3c0.1,0.3,0,0.6-0.3,0.7l-1.9,0.7
			C48.1,23.5,48,23.6,48,23.6L48,23.6z"/>
		<path d="M48,21.9c-0.2,0-0.4-0.1-0.5-0.4s0-0.6,0.3-0.7l1.9-0.7c0.3-0.1,0.6,0,0.7,0.3c0.1,0.3,0,0.6-0.3,0.7l-1.9,0.7
			C48.1,21.9,48,21.9,48,21.9L48,21.9z"/>
		<path d="M48,20.3c-0.2,0-0.4-0.1-0.5-0.4s0-0.6,0.3-0.7l1.9-0.7c0.3-0.1,0.6,0,0.7,0.3c0.1,0.3,0,0.6-0.3,0.7l-1.9,0.7
			C48.1,20.3,48,20.3,48,20.3L48,20.3z"/>
		<path d="M49.1,19.9c-0.3,0-0.6-0.3-0.6-0.6v-1.6c0-0.2-0.1-0.4-0.3-0.5c-0.7-0.4-1.1-1-1.1-1.7c0-1.1,0.9-2,2-2l0,0
			c0.5,0,1,0.2,1.4,0.6c0.4,0.4,0.6,0.9,0.6,1.4c0,0.4-0.1,0.7-0.3,1c-0.2,0.3-0.5,0.3-0.8,0.2c-0.3-0.2-0.3-0.5-0.2-0.8
			c0.1-0.1,0.1-0.3,0.1-0.4c0-0.2-0.1-0.4-0.2-0.6c-0.2-0.2-0.4-0.3-0.6-0.3l0,0c-0.5,0-0.8,0.4-0.8,0.8c0,0.1,0,0.4,0.5,0.7
			c0.6,0.3,0.9,0.9,0.9,1.5v1.6C49.7,19.6,49.4,19.9,49.1,19.9z"/>
	</g>
	<path class="st3" d="M48.9,48.5H16.6c-0.3,0-0.6-0.3-0.6-0.6V29.5c0-0.3,0.3-0.6,0.6-0.6h15.9c0.3,0,0.6,0.3,0.6,0.6
		S32.8,30,32.5,30H17.2v17.3h31.1v-8c0-0.3,0.3-0.6,0.6-0.6s0.6,0.3,0.6,0.6V48C49.5,48.3,49.2,48.5,48.9,48.5z"/>
	<path class="st3" d="M25.6,39.3l-0.3,0.5l-1-0.6v1.2h-0.6v-1.2l-1,0.6l-0.3-0.5l1-0.6l-1-0.6l0.3-0.5l1,0.6V37h0.6v1.2l1-0.6
		l0.3,0.5l-1,0.6L25.6,39.3L25.6,39.3z"/>
	<path class="st3" d="M30.4,39.3l-0.3,0.5l-1-0.6v1.2h-0.6v-1.2l-1,0.6l-0.3-0.5l1-0.6l-1-0.6l0.3-0.5l1,0.6V37h0.6v1.2l1-0.6
		l0.3,0.5l-1,0.6L30.4,39.3L30.4,39.3z"/>
	<path class="st3" d="M35.3,39.3L35,39.8l-1-0.6v1.2h-0.6v-1.2l-1,0.6l-0.3-0.5l1-0.6l-1-0.6l0.3-0.5l1,0.6V37H34v1.2l1-0.6l0.3,0.5
		l-1,0.6L35.3,39.3L35.3,39.3z"/>
	<path class="st3" d="M43.9,43H21.5c-0.3,0-0.6-0.3-0.6-0.6s0.3-0.6,0.6-0.6h22.4c0.3,0,0.6,0.3,0.6,0.6S44.3,43,43.9,43z"/>
</g>
<g class="st2">
	<g class="st3">
		<path d="M40.9,57.5H23.6c-2.5,0-4.6-2.1-4.6-4.6v-28c0-0.4,0.3-0.7,0.7-0.7s0.7,0.3,0.7,0.7v28c0,1.8,1.4,3.2,3.2,3.2h17.3
			c0.4,0,0.7,0.3,0.7,0.7C41.6,57.2,41.3,57.5,40.9,57.5z"/>
		<path d="M41.3,28.9c-0.4,0-0.7-0.3-0.7-0.7v-3.4c0-0.4,0.3-0.7,0.7-0.7s0.7,0.3,0.7,0.7v3.4C41.9,28.6,41.6,28.9,41.3,28.9z"/>
		<path d="M41.3,25.6h-3.8c-0.4,0-0.7-0.3-0.7-0.7s0.3-0.7,0.7-0.7h3.1v-2.3c0-0.7-0.6-1.2-1.2-1.2H21.6c-0.7,0-1.2,0.6-1.2,1.2v2.3
			h10.9c0.4,0,0.7,0.3,0.7,0.7s-0.3,0.7-0.7,0.7H19.7c-0.4,0-0.7-0.3-0.7-0.7v-3c0-1.4,1.2-2.6,2.6-2.6h17.7c1.4,0,2.6,1.2,2.6,2.6
			v3C41.9,25.3,41.6,25.6,41.3,25.6z"/>
		<path d="M37.9,20.7c-0.4,0-0.7-0.3-0.7-0.7V8.9H23.7V20c0,0.4-0.3,0.7-0.7,0.7s-0.7-0.3-0.7-0.7V8.2c0-0.4,0.3-0.7,0.7-0.7h14.9
			c0.4,0,0.7,0.3,0.7,0.7V20C38.6,20.4,38.3,20.7,37.9,20.7z"/>
		<g>
			<path d="M28.7,15.4h-3.4c-0.4,0-0.7-0.3-0.7-0.7v-2.8c0-0.4,0.3-0.7,0.7-0.7h1.9c0.4,0,0.7,0.3,0.7,0.7s-0.3,0.7-0.7,0.7H26V14h2
				v-0.7c0-0.4,0.3-0.7,0.7-0.7s0.7,0.3,0.7,0.7v1.4C29.4,15.1,29.1,15.4,28.7,15.4z"/>
			<path d="M35.7,15.4h-3.4c-0.4,0-0.7-0.3-0.7-0.7v-2.8c0-0.4,0.3-0.7,0.7-0.7h1.9c0.4,0,0.7,0.3,0.7,0.7s-0.3,0.7-0.7,0.7H33V14h2
				v-0.7c0-0.4,0.3-0.7,0.7-0.7s0.7,0.3,0.7,0.7v1.4C36.4,15.1,36.1,15.4,35.7,15.4z"/>
		</g>
	</g>
	<path class="st3" d="M40.9,57.5c-0.4,0-0.7-0.3-0.7-0.7s0.3-0.7,0.7-0.7c3.1-0.1,6-1.4,8.2-3.6c3.5-3.6,4.5-8.9,2.5-13.5
		c-0.6-1.5-1.5-2.8-2.7-3.9c-1.2-1.2-2.5-2-4-2.6c-2.1-0.8-4.4-1.1-6.6-0.7c-2.6,0.4-4.9,1.6-6.8,3.5c-1.9,1.9-3.1,4.3-3.4,6.9
		c-0.5,3.9,0.8,7.7,3.5,10.4c0.3,0.3,0.3,0.7,0,1s-0.7,0.3-1,0c-3.1-3-4.5-7.3-3.9-11.6c0.4-2.9,1.7-5.6,3.8-7.7
		c2.1-2.1,4.6-3.4,7.5-3.9c2.5-0.4,5-0.1,7.3,0.8c1.7,0.7,3.2,1.7,4.5,2.9s2.2,2.7,2.9,4.3c2.2,5.1,1.1,11.1-2.8,15
		C47.6,55.9,44.4,57.3,40.9,57.5L40.9,57.5L40.9,57.5z"/>
	<g class="st3">
		<path d="M40.5,49.9c-1.1,0-2.1-0.5-2.8-1.2c-0.7-0.8-1.1-1.8-1-2.9l0.3-2.7c0.2-1.8,1.7-3.2,3.5-3.2s3.4,1.4,3.5,3.3l0.2,2.7
			c0.1,1-0.3,2.1-1,2.9C42.6,49.5,41.6,49.9,40.5,49.9L40.5,49.9z M40.5,41.3c-1.1,0-2.1,0.8-2.2,2L38,46c-0.1,0.7,0.2,1.3,0.6,1.8
			c0.9,1,2.6,1,3.5,0c0.5-0.5,0.7-1.1,0.6-1.8l-0.2-2.7C42.6,42.2,41.7,41.3,40.5,41.3L40.5,41.3z"/>
		<path d="M39.2,41.6c-0.2,0-0.5-0.1-0.6-0.3c-0.2-0.3-0.3-0.7-0.3-1.1c0-1.2,1-2.2,2.2-2.2s2.2,1,2.2,2.2c0,0.4-0.1,0.8-0.3,1.1
			s-0.6,0.4-0.9,0.2c-0.3-0.2-0.4-0.6-0.2-0.9c0.1-0.1,0.1-0.3,0.1-0.4c0-0.4-0.4-0.8-0.8-0.8c-0.5,0-0.8,0.4-0.8,0.8
			c0,0.1,0,0.3,0.1,0.4c0.2,0.3,0.1,0.8-0.2,0.9C39.5,41.6,39.4,41.6,39.2,41.6L39.2,41.6z"/>
		<path d="M40.5,49.9c-0.4,0-0.7-0.3-0.7-0.7v-5.4c0-0.4,0.3-0.7,0.7-0.7s0.7,0.3,0.7,0.7v5.4C41.2,49.6,40.9,49.9,40.5,49.9z"/>
		<path d="M39.2,41.6h-2c-0.2,0-0.3-0.1-0.5-0.2l-1-1c-0.3-0.3-0.3-0.7,0-1s0.7-0.3,1,0l0.8,0.8h1.7c0.4,0,0.7,0.3,0.7,0.7
			S39.6,41.6,39.2,41.6L39.2,41.6z"/>
		<path d="M37.7,43.9h-1.3c-0.1,0-0.3,0-0.4-0.1l-1.4-1.1c-0.3-0.2-0.4-0.7-0.1-1s0.7-0.4,1-0.1l1.2,0.9h1c0.4,0,0.7,0.3,0.7,0.7
			C38.3,43.6,38,43.9,37.7,43.9L37.7,43.9z"/>
		<path d="M35.3,48.2c-0.1,0-0.2,0-0.4-0.1c-0.3-0.2-0.4-0.6-0.2-0.9l0.8-1.3c0.1-0.2,0.3-0.3,0.6-0.3h1.3c0.4,0,0.7,0.3,0.7,0.7
			S37.8,47,37.4,47h-0.9l-0.6,1C35.8,48.1,35.5,48.2,35.3,48.2L35.3,48.2z"/>
		<path d="M36.8,50.6c-0.1,0-0.3,0-0.4-0.1c-0.3-0.2-0.4-0.6-0.2-1l0.7-1l0.1-0.1l0.8-0.7c0.3-0.3,0.7-0.2,1,0c0.3,0.3,0.2,0.7,0,1
			L38,49.4l-0.6,0.9C37.2,50.5,37,50.6,36.8,50.6z"/>
		<path d="M43.9,41.6h-2c-0.4,0-0.7-0.3-0.7-0.7s0.3-0.7,0.7-0.7h1.7l0.8-0.8c0.3-0.3,0.7-0.3,1,0s0.3,0.7,0,1l-1,1
			C44.2,41.5,44,41.6,43.9,41.6L43.9,41.6z"/>
		<path d="M44.7,43.9h-1.3c-0.4,0-0.7-0.3-0.7-0.7s0.3-0.7,0.7-0.7h1l1.2-0.9c0.3-0.2,0.7-0.2,1,0.1c0.2,0.3,0.2,0.7-0.1,1l-1.4,1.1
			C45,43.9,44.8,43.9,44.7,43.9L44.7,43.9z"/>
		<path d="M45.8,48.2c-0.2,0-0.5-0.1-0.6-0.3l-0.6-1h-0.9c-0.4,0-0.7-0.3-0.7-0.7s0.3-0.7,0.7-0.7H45c0.2,0,0.5,0.1,0.6,0.3l0.8,1.3
			c0.2,0.3,0.1,0.7-0.2,0.9C46,48.1,45.9,48.2,45.8,48.2L45.8,48.2z"/>
		<path d="M44.3,50.6c-0.2,0-0.4-0.1-0.6-0.3l-0.6-0.9l-0.7-0.7c-0.3-0.3-0.3-0.7,0-1s0.7-0.3,1,0l0.8,0.7l0.1,0.1l0.7,1
			c0.2,0.3,0.1,0.7-0.2,1C44.6,50.6,44.5,50.6,44.3,50.6z"/>
		<path d="M39.6,39.6c-0.2,0-0.4-0.1-0.5-0.3c-0.3-0.4-0.7-1.5,0.1-2.4c0.3-0.3,0.7-0.3,1-0.1c0.3,0.3,0.3,0.7,0.1,1
			c-0.3,0.3-0.1,0.5-0.1,0.7c0.2,0.3,0.1,0.7-0.2,1C39.9,39.6,39.7,39.6,39.6,39.6L39.6,39.6z"/>
		<path d="M41.4,39.6c-0.1,0-0.3,0-0.4-0.1c-0.3-0.2-0.4-0.7-0.1-1c0.1-0.1,0.2-0.4-0.1-0.7s-0.2-0.7,0.1-1c0.3-0.2,0.7-0.2,1,0.1
			c0.8,0.9,0.5,2,0.1,2.4C41.8,39.5,41.6,39.6,41.4,39.6L41.4,39.6z"/>
	</g>
	<path class="st3" d="M33.7,36.8c-0.2,0-0.4-0.1-0.5-0.2c-0.2-0.3-0.2-0.7,0.1-1c2-1.7,4.5-2.6,7.1-2.6c2.4,0,4.6,0.7,6.5,2.1
		c0.3,0.2,0.4,0.7,0.1,1s-0.7,0.4-1,0.1c-1.6-1.2-3.6-1.9-5.7-1.9c-2.3,0-4.4,0.8-6.1,2.3C34,36.8,33.9,36.8,33.7,36.8L33.7,36.8z"
		/>
	<path class="st3" d="M40.3,54.7c-4.8,0-8.9-3.1-10.3-7.6c-0.1-0.4,0.1-0.8,0.5-0.9c0.4-0.1,0.8,0.1,0.9,0.5c1.2,4,4.9,6.6,9,6.6
		s7.6-2.5,8.9-6.3c0.1-0.4,0.5-0.5,0.9-0.4s0.5,0.5,0.4,0.9C49,51.8,44.9,54.7,40.3,54.7L40.3,54.7z"/>
</g>
<g class="st2">
	<path class="st3" d="M32.6,50.4L32.6,50.4c-1,0-1.8-0.6-2.2-1.5c-0.4-0.8-0.1-1.6,0-2.2c0-0.1,0.1-0.3,0.1-0.4
		c0.1-0.4,0.2-0.7,0.2-1.1l0.1-0.3c0.1-0.4,0.1-0.7,0.2-1.1c0.1-0.8-0.3-1.5-1-1.8c-0.8-0.3-1.6-0.1-2,0.5c-0.8,1-1.5,2-2.2,3
		c-0.1,0.2-0.2,0.4-0.4,0.6c-0.5,0.8-1.1,1.9-2.3,2.2c-0.9,0.2-2,0-2.7-0.7c-0.8-0.7-1.1-1.9-0.8-3c0.3-1,1.1-1.6,1.8-2
		c0.2-0.1,0.3-0.2,0.5-0.3c0.5-0.4,1-0.7,1.4-1.1c0.7-0.5,1.3-1.1,2-1.7c0.4-0.3,0.4-0.8,0.2-1.2c-0.2-0.3-0.3-0.6-0.5-0.9
		c-0.2-0.4-0.6-0.7-1.1-0.6C23,37,22,37.2,21.1,37.5c-0.2,0-0.3,0.1-0.5,0.2c-0.7,0.3-1.7,0.6-2.6,0.1c-0.7-0.4-1.2-1.1-1.3-1.9
		c-0.1-0.9,0.3-1.8,1.1-2.3c0.8-0.5,1.5-0.4,2.2-0.3c0.1,0,0.3,0,0.5,0.1c0.5,0,1.4,0.1,2.6,0c0.7,0,1.4-0.5,1.5-1.3
		c0.1-0.7-0.2-1.4-0.7-1.7L23.5,30c-1.2-0.7-2.4-1.3-3.6-1.8c-0.2-0.1-0.5-0.2-0.7-0.3c-1-0.4-2.2-0.9-2.8-2.1c-0.4-1-0.3-2.1,0.3-3
		c0.7-1,1.9-1.5,3.1-1.4s1.9,0.9,2.5,1.6c0.1,0.2,0.3,0.3,0.5,0.5c0.3,0.3,0.3,0.7,0,0.9s-0.7,0.3-0.9,0c-0.2-0.2-0.3-0.4-0.5-0.5
		c-0.5-0.6-1-1.1-1.7-1.2s-1.4,0.2-1.8,0.8c-0.4,0.5-0.4,1.2-0.2,1.8c0.3,0.7,1.1,1.1,2,1.4c0.3,0.1,0.5,0.2,0.8,0.3
		c1.3,0.6,2.5,1.2,3.7,1.9l0.4,0.2c1.1,0.6,1.7,1.9,1.4,3.1c-0.3,1.4-1.5,2.3-2.8,2.4c-1.3,0-2.2,0-2.7-0.1c-0.2,0-0.4,0-0.5-0.1
		c-0.6-0.1-1-0.1-1.3,0.1c-0.4,0.2-0.6,0.6-0.5,1.1c0,0.4,0.3,0.7,0.6,0.9c0.4,0.2,0.9,0.1,1.6-0.2c0.2-0.1,0.4-0.1,0.6-0.2
		c0.9-0.3,1.9-0.5,2.8-0.7c1.1-0.2,2.2,0.4,2.6,1.4c0.1,0.3,0.2,0.5,0.4,0.8c0.5,0.9,0.3,2.1-0.5,2.9c-0.6,0.6-1.3,1.1-2,1.7
		c-0.5,0.4-1,0.8-1.5,1.2c-0.2,0.1-0.4,0.3-0.5,0.4c-0.7,0.4-1.1,0.7-1.2,1.3c-0.2,0.6,0,1.2,0.4,1.6c0.4,0.4,0.9,0.5,1.5,0.4
		c0.7-0.2,1-0.8,1.5-1.5c0.1-0.2,0.3-0.4,0.4-0.7c0.7-1,1.4-2,2.2-3c0.9-1.1,2.3-1.5,3.6-1c1.3,0.6,2.1,1.9,1.9,3.3
		c-0.1,0.4-0.1,0.8-0.2,1.1L32,45.4c-0.1,0.4-0.1,0.8-0.2,1.2c0,0.2-0.1,0.3-0.1,0.5c-0.2,0.6-0.3,0.9-0.1,1.3
		c0.2,0.4,0.5,0.7,1,0.7c0.4,0,0.7-0.2,1-0.5c0.3-0.4,0.2-0.8,0.1-1.6c0-0.2-0.1-0.4-0.1-0.6c-0.1-0.9-0.2-1.9-0.2-2.9
		c-0.1-1.1,0.7-2.1,1.8-2.3c0.3-0.1,0.6-0.2,0.9-0.3c0.3-0.1,0.7,0,0.9,0.4c0.1,0.3,0,0.7-0.4,0.9c-0.4,0.1-0.7,0.2-1.1,0.3
		c-0.5,0.1-0.8,0.5-0.8,1c0,1,0.1,1.9,0.2,2.8c0,0.2,0.1,0.4,0.1,0.5c0.1,0.8,0.3,1.7-0.3,2.6C34.1,50,33.4,50.4,32.6,50.4
		L32.6,50.4z"/>
	<path class="st3" d="M49.4,40.4c-0.8,0-1.4-0.3-2-0.6c-0.2-0.1-0.4-0.2-0.6-0.3c-0.6-0.2-1.2-0.5-1.8-0.7c-1-0.4-2-0.7-3-1
		c-0.2,0-0.3,0-0.5,0.1c-0.3,0.3-0.7,0.2-0.9,0c-0.3-0.3-0.2-0.7,0-0.9c0.5-0.5,1.1-0.6,1.8-0.4c1,0.3,2,0.6,3.1,1
		c0.6,0.2,1.2,0.4,1.8,0.7c0.2,0.1,0.4,0.2,0.6,0.3c0.8,0.4,1.2,0.6,1.8,0.4c0.6-0.2,1.1-0.7,1.2-1.3c0.1-0.5-0.1-1.1-0.4-1.5
		c-0.5-0.5-1.3-0.5-2.2-0.5c-0.3,0-0.5,0-0.8,0c-1.2,0-2.5-0.1-3.8-0.3c-1.4-0.1-2.5-1.2-2.7-2.5c-0.2-1.5,0.5-2.8,1.9-3.4
		c0.3-0.1,0.6-0.3,1-0.4l0.2-0.1c0.4-0.1,0.8-0.3,1.2-0.4c0.2-0.1,0.3-0.1,0.5-0.1c0.6-0.1,1-0.3,1.2-0.6c0.2-0.4,0.3-0.8,0.1-1.2
		c-0.2-0.3-0.5-0.6-0.9-0.6c-0.5,0-0.8,0.3-1.4,0.8c-0.2,0.1-0.3,0.3-0.5,0.4c-0.8,0.6-1.6,1.2-2.4,1.7c-0.9,0.6-2.2,0.5-3-0.2
		c-0.1-0.1-0.3-0.2-0.4-0.4c-0.8-0.7-1-1.9-0.6-2.8c0.6-1.3,1.3-2.6,2-4c0.4-0.8,0.8-1.5,1.3-2.3c0.2-0.3,0.3-0.5,0.5-0.7
		c0.6-0.8,1.1-1.6,1-2.5S42,14.3,41.1,14c-0.8-0.3-1.7-0.2-2.3,0.3c-0.9,0.6-1,1.8-1.2,2.9c-0.1,0.4-0.1,0.7-0.2,1
		c-0.3,1.7-0.7,3.3-1.2,5c-0.1,0.4-0.2,0.7-0.3,1.1c-0.4,1.2-1.4,2-2.7,2.1s-2.4-0.8-2.7-2.1c-0.1-0.4-0.2-0.9-0.3-1.3
		c-0.1-0.5-0.2-1-0.3-1.5c0-0.2,0-0.4-0.1-0.5c-0.1-0.6-0.1-1-0.4-1.3s-0.8-0.4-1.2-0.3c-0.2,0.1-0.3,0.1-0.4,0.3
		c-0.3,0.3-0.7,0.3-0.9,0c-0.3-0.3-0.3-0.7,0-0.9c0.3-0.3,0.6-0.5,0.9-0.6c0.9-0.3,1.9-0.1,2.5,0.6c0.7,0.6,0.7,1.5,0.8,2.1
		c0,0.1,0,0.3,0.1,0.5c0.1,0.5,0.2,0.9,0.3,1.4c0.1,0.5,0.2,0.9,0.3,1.3c0.1,0.6,0.7,1.1,1.4,1.1s1.3-0.5,1.5-1.1
		c0.1-0.4,0.2-0.7,0.3-1c0.4-1.6,0.8-3.2,1.2-4.9c0.1-0.3,0.1-0.6,0.2-1c0.2-1.3,0.4-2.9,1.8-3.8c1-0.7,2.4-0.9,3.6-0.4
		c1.3,0.5,2.3,1.8,2.4,3.2c0.1,1.4-0.6,2.4-1.2,3.4c-0.2,0.2-0.3,0.4-0.5,0.7c-0.4,0.7-0.8,1.5-1.2,2.2c-0.7,1.4-1.4,2.7-2,3.9
		c-0.2,0.4-0.1,0.9,0.3,1.3c0.1,0.1,0.3,0.3,0.4,0.4c0.4,0.4,0.9,0.4,1.3,0.1c0.8-0.5,1.6-1.1,2.3-1.7c0.1-0.1,0.3-0.2,0.4-0.4
		c0.6-0.5,1.3-1.2,2.4-1.1c0.8,0.1,1.6,0.6,2,1.3c0.4,0.8,0.4,1.8-0.1,2.6c-0.5,0.7-1.3,1-1.9,1.1c-0.1,0-0.3,0.1-0.4,0.1
		c-0.4,0.1-0.8,0.3-1.2,0.4l-0.2,0.1c-0.3,0.1-0.6,0.2-0.9,0.4c-0.7,0.3-1.2,1.1-1.1,1.9c0.1,0.8,0.7,1.4,1.5,1.5
		c1.3,0.1,2.6,0.2,3.8,0.3c0.2,0,0.5,0,0.7,0c1,0,2.2,0,3.2,0.9c0.7,0.7,1,1.8,0.8,2.7c-0.2,1.1-1.1,2-2.2,2.3
		C49.9,40.4,49.6,40.4,49.4,40.4L49.4,40.4z"/>
	<path class="st3" d="M36.3,30.2c-0.3,0-0.5-0.1-0.8-0.2c-0.4-0.2-0.8-0.6-0.9-1c-0.1-0.3,0.1-0.7,0.4-0.8c0.3-0.1,0.7,0.1,0.8,0.4
		c0,0.1,0.1,0.2,0.3,0.3c0.1,0.1,0.3,0.1,0.4,0c0.1,0,0.2-0.1,0.3-0.3c0.1-0.1,0.1-0.3,0-0.4c0-0.1-0.1-0.2-0.3-0.3
		c-0.1-0.1-0.3-0.1-0.4,0c-0.3,0.1-0.7-0.1-0.8-0.4s0.1-0.7,0.4-0.8c0.5-0.2,1-0.1,1.4,0.1s0.8,0.6,0.9,1c0.2,0.5,0.1,1-0.1,1.4
		c-0.2,0.4-0.6,0.8-1,0.9C36.7,30.2,36.5,30.2,36.3,30.2L36.3,30.2z"/>
	<path class="st3" d="M28,34.5c-0.6,0-1.1-0.4-1.3-0.9c-0.1-0.3,0.1-0.7,0.4-0.8h0.1c0,0,0,0,0-0.1c-0.1-0.3,0-0.7,0.4-0.9
		c0.4-0.1,0.7-0.1,1.1,0.1c0.3,0.2,0.6,0.4,0.7,0.8c0.3,0.7-0.1,1.5-0.9,1.8C28.3,34.4,28.1,34.5,28,34.5L28,34.5z M27.9,33.1
		L27.9,33.1c0,0.1,0.1,0.1,0.1,0.1l0.1-0.1C28,33.1,27.9,33.1,27.9,33.1L27.9,33.1z"/>
	<path class="st3" d="M38.8,33.4c-0.2,0-0.4,0-0.6-0.1c-0.3-0.2-0.6-0.4-0.7-0.8c-0.1-0.3,0.1-0.7,0.4-0.8H38v-0.1
		c-0.1-0.3,0.1-0.7,0.4-0.8c0.7-0.3,1.5,0.1,1.8,0.9c0.1,0.4,0.1,0.7-0.1,1.1c-0.2,0.3-0.4,0.6-0.8,0.7C39.1,33.3,39,33.4,38.8,33.4
		L38.8,33.4z M38.7,32L38.7,32L38.7,32l0.2,0l-0.1-0.1C38.8,31.9,38.7,31.9,38.7,32C38.7,31.9,38.7,32,38.7,32L38.7,32z"/>
	<path class="st3" d="M30.3,39.9c-0.5,0-1-0.2-1.4-0.5c-0.5-0.4-0.8-0.9-0.9-1.5s0.1-1.2,0.5-1.7c0.8-1,2.2-1.2,3.2-0.4
		c0.3,0.2,0.3,0.6,0.1,0.9c-0.2,0.3-0.6,0.3-0.9,0.1c-0.4-0.3-1-0.3-1.3,0.2c-0.2,0.2-0.2,0.4-0.2,0.7s0.2,0.5,0.4,0.6
		c0.2,0.2,0.4,0.2,0.7,0.2s0.5-0.2,0.6-0.4c0.2-0.3,0.6-0.3,0.9-0.1c0.3,0.2,0.3,0.6,0.1,0.9c-0.4,0.5-0.9,0.8-1.5,0.9
		C30.5,39.9,30.4,39.9,30.3,39.9L30.3,39.9z"/>
	<path class="st3" d="M32.8,55.2c-12.4,0-22.5-10.1-22.5-22.5s10.1-22.5,22.5-22.5s22.5,10.1,22.5,22.5S45.2,55.2,32.8,55.2z
		 M32.8,11.5c-11.7,0-21.2,9.5-21.2,21.2s9.5,21.2,21.2,21.2S54,44.4,54,32.7S44.5,11.5,32.8,11.5z M32.8,51.6c-3,0-5.9-0.7-8.6-2.1
		c-0.3-0.2-0.4-0.6-0.3-0.9c0.2-0.3,0.6-0.4,0.9-0.3c2.5,1.3,5.2,1.9,8,1.9c3.2,0,6.4-0.9,9.1-2.6L20.3,20.3
		c-0.2,0.2-0.3,0.3-0.5,0.6c-0.2,0.3-0.7,0.3-0.9,0.1c-0.3-0.2-0.3-0.7-0.1-0.9c0.4-0.4,0.7-0.7,1.1-1.2c0.1-0.1,0.3-0.2,0.5-0.2
		s0.4,0.1,0.5,0.2l22.5,28.5c0.1,0.1,0.2,0.3,0.1,0.5c0,0.2-0.1,0.3-0.3,0.4C40.1,50.5,36.5,51.6,32.8,51.6z M45.7,46.1L45.7,46.1
		c-0.2,0-0.4-0.1-0.5-0.2L22.8,17.6c-0.1-0.1-0.2-0.3-0.1-0.5c0-0.2,0.1-0.4,0.3-0.4c2.9-1.8,6.3-2.7,9.8-2.7c1,0,2.1,0.1,3.1,0.2
		c0.4,0.1,0.6,0.4,0.5,0.8c-0.1,0.4-0.4,0.6-0.8,0.5c-3.8-0.6-7.9,0.1-11.3,1.9l21.5,27.1c1-1.1,1.9-2.4,2.6-3.7
		c0.2-0.3,0.6-0.4,0.9-0.3c0.3,0.2,0.4,0.6,0.3,0.9c-0.9,1.7-2,3.2-3.3,4.6C46.1,46.1,45.9,46.1,45.7,46.1L45.7,46.1z M18.7,45
		c-0.2,0-0.4-0.1-0.5-0.2c-2.8-3.4-4.3-7.6-4.3-12c0-2.3,0.4-4.4,1.2-6.5c0.1-0.3,0.5-0.5,0.8-0.4s0.5,0.5,0.4,0.8
		c-0.7,1.9-1.1,4-1.1,6.1c0,4.1,1.4,8,4,11.2c0.2,0.3,0.2,0.7-0.1,0.9C19,44.9,18.9,45,18.7,45L18.7,45z M51,34.4
		C51,34.4,50.9,34.4,51,34.4c-0.4,0-0.7-0.3-0.7-0.7c0-0.3,0-0.7,0-1c0-5.2-2.3-10.1-6.3-13.5c-0.3-0.2-0.3-0.7-0.1-0.9
		c0.2-0.3,0.7-0.3,0.9-0.1c4.3,3.6,6.8,8.9,6.8,14.5c0,0.4,0,0.7,0,1.1C51.6,34.1,51.3,34.4,51,34.4L51,34.4z"/>
</g>
<g class="st2">
	<g class="st3">
		<path d="M46.1,47.3c-0.7,0-1.3-0.1-2-0.2c-0.3-0.1-0.5-0.4-0.4-0.8c0.1-0.3,0.4-0.5,0.8-0.4c0.5,0.1,1.1,0.2,1.7,0.2
			c3.8,0,6.8-3.1,6.8-6.8v-11c0-0.3,0.3-0.6,0.6-0.6s0.6,0.3,0.6,0.6v11C54.2,43.7,50.6,47.3,46.1,47.3L46.1,47.3z"/>
		<path d="M40.1,37.9c-0.3,0-0.6-0.2-0.6-0.5c-0.1-0.5-0.1-0.9-0.1-1.4v-1.6c-0.6,0.9-1.2,1.5-1.2,1.5c-0.3,0.2-0.6,0.2-0.9,0
			c-0.2-0.2-0.2-0.6,0-0.9c0,0,2-1.8,2.1-4.4v-0.5c0-0.3,0.3-0.6,0.6-0.6s0.6,0.3,0.6,0.6c0,0.2,0,0.3,0,0.5V36c0,0.4,0,0.8,0.1,1.2
			C40.7,37.5,40.5,37.9,40.1,37.9L40.1,37.9L40.1,37.9z"/>
		<path d="M52.1,29.4c-0.2,0-0.5-0.1-0.6-0.4s0-0.7,0.3-0.8l2.4-1c0.3-0.1,0.7,0,0.8,0.3s0,0.7-0.3,0.8l-2.4,1
			C52.3,29.3,52.2,29.3,52.1,29.4L52.1,29.4z"/>
		<path d="M52.1,27.3c-0.2,0-0.5-0.1-0.6-0.4s0-0.7,0.3-0.8l2.4-1c0.3-0.1,0.7,0,0.8,0.3s0,0.7-0.3,0.8l-2.4,1
			C52.3,27.2,52.2,27.3,52.1,27.3L52.1,27.3z"/>
		<path d="M52.1,25.2c-0.2,0-0.5-0.1-0.6-0.4s0-0.7,0.3-0.8l2.4-1c0.3-0.1,0.7,0,0.8,0.3s0,0.7-0.3,0.8l-2.4,1
			C52.3,25.2,52.2,25.2,52.1,25.2L52.1,25.2z"/>
		<path d="M52.1,23.1c-0.2,0-0.5-0.1-0.6-0.4s0-0.7,0.3-0.8l2.4-1c0.3-0.1,0.7,0,0.8,0.3s0,0.7-0.3,0.8l-2.4,1
			C52.3,23.1,52.2,23.1,52.1,23.1L52.1,23.1z"/>
		<path d="M53.6,22.5c-0.3,0-0.6-0.3-0.6-0.6v-2c0-0.3-0.2-0.6-0.4-0.8c-0.9-0.5-1.4-1.2-1.4-2.1c0-1.4,1.1-2.4,2.4-2.4l0,0
			c0.6,0,1.3,0.3,1.7,0.8c0.5,0.5,0.7,1.1,0.7,1.8c0,0.5-0.2,0.9-0.4,1.3c-0.2,0.3-0.6,0.4-0.9,0.2c-0.3-0.2-0.4-0.6-0.2-0.9
			c0.1-0.2,0.2-0.4,0.2-0.6c0-0.3-0.1-0.6-0.3-0.9c-0.2-0.2-0.5-0.4-0.8-0.4l0,0c-0.6,0-1.2,0.5-1.2,1.2c0,0.3,0,0.7,0.7,1
			s1.1,1.1,1.1,1.9v2C54.2,22.2,53.9,22.5,53.6,22.5z"/>
	</g>
	<path class="st3" d="M18.7,22l-0.3,0.5l-1.2-0.7v1.3h-0.6v-1.3l-1.2,0.7L15.2,22l1.2-0.7l-1.2-0.7l0.3-0.5l1.2,0.7v-1.3h0.6v1.3
		l1.2-0.7l0.3,0.5l-1.2,0.7L18.7,22L18.7,22z"/>
	<path class="st3" d="M25.3,22L25,22.6l-1.2-0.7v1.3h-0.6v-1.3L22,22.6L21.8,22l1.2-0.7l-1.2-0.7l0.3-0.5l1.2,0.7v-1.3h0.6v1.3
		l1.2-0.7l0.3,0.5l-1.2,0.7L25.3,22L25.3,22z"/>
	<path class="st3" d="M31.9,22l-0.3,0.5l-1.2-0.7v1.3h-0.6v-1.3l-1.2,0.7L28.4,22l1.2-0.7l-1.2-0.7l0.3-0.5l1.2,0.7v-1.3h0.6v1.3
		l1.2-0.7l0.3,0.5l-1.2,0.7L31.9,22L31.9,22z"/>
	<path class="st3" d="M38.5,22l-0.3,0.5L37,21.8v1.3h-0.6v-1.3l-1.2,0.7L35,22l1.2-0.7L35,20.7l0.3-0.5l1.2,0.7v-1.3h0.6v1.3
		l1.2-0.7l0.3,0.5l-1.2,0.7L38.5,22L38.5,22z"/>
	<path class="st3" d="M45.1,22l-0.3,0.5l-1.2-0.7v1.3H43v-1.3l-1.2,0.7L41.5,22l1.2-0.7l-1.2-0.7l0.3-0.5l1.2,0.7v-1.3h0.6v1.3
		l1.2-0.7l0.3,0.5L44,21.4L45.1,22L45.1,22z"/>
	<g class="st3">
		<path d="M36.1,46.8h-9.9c-0.3,0-0.6-0.3-0.6-0.6s0.3-0.6,0.6-0.6h9.3v-2c0-0.1,0-0.1,0-0.2c1.2-3.7,4.7-6.1,8.5-6.1
			c2.8,0,5.4,1.3,7.1,3.5c0.2,0.3,0.2,0.7-0.1,0.9s-0.7,0.2-0.9-0.1c-1.5-1.9-3.7-3-6.1-3c-3.3,0-6.2,2.1-7.3,5.2v2.5
			C36.7,46.5,36.4,46.8,36.1,46.8L36.1,46.8z"/>
		<path d="M44,55.4c-3.9,0-7.3-2.5-8.6-6.2c-0.1-0.3,0.1-0.7,0.4-0.8c0.3-0.1,0.7,0.1,0.8,0.4c1.1,3.2,4,5.3,7.4,5.3
			c4.3,0,7.8-3.5,7.8-7.8c0-0.3,0.3-0.6,0.6-0.6S53,46,53,46.3C53.1,51.3,49,55.4,44,55.4z"/>
		<path d="M36,49.6H13.1c-1.1,0-1.9-0.9-1.9-1.9v-2.9c0-1.1,0.9-1.9,1.9-1.9h1.8c0.3,0,0.6,0.3,0.6,0.6v0.8h0.6v-0.8
			c0-0.3,0.3-0.6,0.6-0.6h2.9c0.3,0,0.6,0.3,0.6,0.6v0.8h0.6v-0.8c0-0.3,0.3-0.6,0.6-0.6H36c0.3,0,0.6,0.3,0.6,0.6s-0.3,0.6-0.6,0.6
			H22.1V45c0,0.3-0.3,0.6-0.6,0.6h-1.8c-0.3,0-0.6-0.3-0.6-0.6v-0.8h-1.7V45c0,0.3-0.3,0.6-0.6,0.6H15c-0.3,0-0.6-0.3-0.6-0.6v-0.8
			h-1.2c-0.4,0-0.7,0.3-0.7,0.7v2.9c0,0.4,0.3,0.7,0.7,0.7h22.3c0.1-0.3,0.3-0.5,0.6-0.5s0.6,0.3,0.6,0.6V49
			C36.6,49.4,36.4,49.6,36,49.6z"/>
		<path d="M45.3,49.9c-1.9,0-3.5-1.6-3.5-3.5s1.6-3.5,3.5-3.5c1.1,0,2.1,0.5,2.8,1.4c0.2,0.3,0.2,0.7-0.1,0.9s-0.7,0.2-0.9-0.1
			c-0.4-0.6-1.1-0.9-1.8-0.9c-1.3,0-2.3,1-2.3,2.3s1,2.3,2.3,2.3c0.6,0,1.2-0.3,1.7-0.7c0.2-0.2,0.6-0.3,0.9,0
			c0.2,0.2,0.3,0.6,0,0.9C47.2,49.5,46.3,49.9,45.3,49.9z"/>
	</g>
	<path class="st3" d="M46.4,26.8H11.6c-0.3,0-0.6-0.3-0.6-0.6v-9.7c0-0.3,0.3-0.6,0.6-0.6h34.8c0.3,0,0.6,0.3,0.6,0.6
		c0,0.3-0.3,0.6-0.6,0.6H12.2v8.5h34.2c0.3,0,0.6,0.3,0.6,0.6S46.7,26.8,46.4,26.8z"/>
</g>
<g class="st2">
	<g class="st3">
		<path d="M31.9,47.3c-0.4,0-0.7-0.1-0.9-0.3c-0.2,0.1-0.6,0.2-0.9,0.2c-0.5,0-0.9-0.2-1.2-0.3h-0.1c-0.9,0-1.7-0.8-1.7-1.7v-3
			c0-0.8-0.6-1.4-1.4-1.4c-1.5,0-2.8-1.2-2.8-2.8v-0.3c0-0.7,0-1.3,0.1-2c0.1-0.9,0.2-1.7,0.3-2.5c0-0.9-0.2-1.8-0.7-2.8
			c-0.1-0.3,0-0.6,0.3-0.8c0.3-0.1,0.6,0,0.8,0.3c0.6,1.2,0.9,2.3,0.8,3.3c0,0.9-0.1,1.7-0.3,2.6c-0.2,0.8-0.2,1.4-0.2,2v0.3
			c0,0.9,0.7,1.6,1.6,1.6c1.4,0,2.6,1.1,2.6,2.6v3c0,0.3,0.3,0.6,0.6,0.6H29c0.1,0,0.3,0,0.4,0.1s0.3,0.2,0.6,0.2l0,0
			c0.3,0,0.5-0.2,0.6-0.2c0.2-0.2,0.5-0.2,0.7,0c0.1,0.1,0.3,0.2,0.6,0.2c0.3,0,0.5-0.2,0.5-0.2c0.2-0.2,0.6-0.2,0.8,0
			c0.1,0.1,0.2,0.2,0.4,0.2c0.3,0,0.4-0.1,0.5-0.2c0.2-0.2,0.6-0.2,0.8,0c0,0,0.2,0.2,0.5,0.2c0.2,0,0.4-0.1,0.4-0.2
			c0.1-0.1,0.2-0.2,0.4-0.2c0,0,0.2,0,0.4-0.2c0.1-0.1,0.2-0.2,0.2-0.4v-3c0-1.4,1.1-2.6,2.6-2.6c0.9,0,1.6-0.7,1.6-1.6
			c0-0.1,0-0.2,0-0.3c0-0.3,0-0.6,0-1.2c-0.1-0.9-0.2-1.5-0.2-1.9c0-0.2-0.1-0.4-0.1-0.5c-0.2-1.2,0.1-2.5,0.6-3.8
			c0.1-0.3,0.5-0.4,0.7-0.3s0.4,0.5,0.3,0.7c-0.5,1.2-0.7,2.2-0.5,3.2c0,0.2,0,0.3,0.1,0.5c0.1,0.5,0.2,1.1,0.3,2c0,0.6,0,1,0,1.3
			c0,0.1,0,0.2,0,0.3c0,1.5-1.2,2.8-2.8,2.8c-0.8,0-1.4,0.6-1.4,1.4v3c0,0.5-0.2,0.9-0.5,1.2s-0.7,0.4-1,0.5c-0.2,0.2-0.5,0.3-1,0.3
			c-0.4,0-0.7-0.1-0.9-0.2c-0.2,0.1-0.5,0.2-0.9,0.2c-0.3,0-0.6-0.1-0.8-0.2C32.6,47.2,32.3,47.3,31.9,47.3L31.9,47.3L31.9,47.3z"/>
		<path d="M28.9,47c-0.3,0-0.6-0.3-0.6-0.6v-1.6c0-0.3,0.3-0.6,0.6-0.6c0.3,0,0.6,0.3,0.6,0.6v1.6C29.5,46.7,29.2,47,28.9,47z"/>
		<path d="M30.9,47c-0.3,0-0.6-0.3-0.6-0.6v-1.6c0-0.3,0.3-0.6,0.6-0.6c0.3,0,0.6,0.3,0.6,0.6v1.6C31.4,46.7,31.2,47,30.9,47z"/>
		<path d="M32.7,47c-0.3,0-0.6-0.3-0.6-0.6v-1.6c0-0.3,0.3-0.6,0.6-0.6s0.6,0.3,0.6,0.6v1.6C33.3,46.7,33,47,32.7,47z"/>
		<path d="M34.4,47c-0.3,0-0.6-0.3-0.6-0.6v-1.6c0-0.3,0.3-0.6,0.6-0.6s0.6,0.3,0.6,0.6v1.6C35,46.7,34.7,47,34.4,47z"/>
		<path d="M36,47c-0.3,0-0.6-0.3-0.6-0.6v-1.6c0-0.3,0.3-0.6,0.6-0.6s0.6,0.3,0.6,0.6v1.6C36.6,46.7,36.4,47,36,47z"/>
		<path d="M41.5,37.1c-0.3,0-0.6-0.3-0.6-0.6s0.3-0.6,0.6-0.6c0.6,0,1.1-0.5,1.1-1l0.5-6.4c0-0.3,0-0.7,0-1c0-3.5-2.1-6.8-5.2-8.5
			c-1.6-0.8-3.6-1.2-6.1-1.1c-2.3,0.1-4.2,0.6-5.7,1.7c-2.9,1.9-4.6,5.5-4.3,9l0.5,6.4c0,0.6,0.5,1,1.1,1c0.3,0,0.6,0.3,0.6,0.6
			s-0.3,0.6-0.6,0.6c-1.2,0-2.2-0.9-2.3-2.1c-0.3-4.3-0.5-6.4-0.5-6.4c-0.3-3.9,1.5-7.7,4.8-9.9c1.7-1.1,3.8-1.8,6.3-1.9
			c2.7-0.1,4.9,0.3,6.6,1.3c3.5,1.8,5.7,5.5,5.8,9.5c0,0.4,0,0.7,0,1.1L43.8,35C43.7,36.2,42.7,37.1,41.5,37.1L41.5,37.1z"/>
		<path d="M33.1,41.6h-0.9c-0.4,0-0.8-0.2-1.1-0.5c-0.3-0.3-0.4-0.7-0.3-1.1l0.4-2.5c0.1-0.7,0.7-1.2,1.4-1.2s1.2,0.5,1.4,1.1
			l0.5,2.5c0.1,0.4,0,0.8-0.3,1.1C33.9,41.4,33.5,41.6,33.1,41.6L33.1,41.6z M32.6,37.4c-0.1,0-0.2,0.1-0.2,0.2L32,40.2
			c0,0.1,0,0.2,0.1,0.2c0,0,0.1,0.1,0.2,0.1h0.9c0.1,0,0.2-0.1,0.2-0.1s0.1-0.1,0.1-0.2L33,37.7C32.8,37.5,32.7,37.4,32.6,37.4
			L32.6,37.4z"/>
		<path d="M27.2,37.8L27.2,37.8c-0.3,0-0.9,0-1.5-0.6c-0.4-0.4-0.6-1-0.5-1.5c0.1-0.8-0.1-1.5-0.2-2c-0.2-0.7,0.2-1.5,0.9-1.7
			c0.8-0.2,1.4,0,2,0.3c0.4,0.2,0.9,0.4,1.5,0.4c0.3,0,0.5,0,0.7,0c0.7,0,1.3,0.5,1.3,1.2l0,0c0,0.3,0,0.6-0.1,0.9
			c-0.2,0.8-0.8,1.2-1,1.4C30,36.7,28.5,37.8,27.2,37.8L27.2,37.8z M26.6,33c-0.1,0-0.2,0-0.3,0c-0.1,0-0.2,0.2-0.2,0.3
			c0.1,0.6,0.3,1.4,0.2,2.4c0,0.3,0.1,0.5,0.2,0.7c0.2,0.2,0.5,0.2,0.6,0.2c0.8,0,2-0.8,2.5-1.2c0.2-0.1,0.5-0.4,0.7-0.9
			c0.1-0.2,0.1-0.4,0.1-0.5l0,0c0-0.1-0.1-0.1-0.2-0.1c-0.3,0-0.6,0-0.9-0.1c-0.7-0.1-1.3-0.3-1.8-0.5C27.1,33.1,26.8,33,26.6,33
			L26.6,33z"/>
		<path d="M37.7,37.8c-1.3,0-2.8-1.1-3.2-1.5c-0.3-0.2-0.8-0.6-1-1.4c-0.1-0.3-0.1-0.6-0.1-0.9c0-0.7,0.6-1.2,1.3-1.2
			c0.3,0,0.5,0,0.7,0c0.6-0.1,1.1-0.3,1.5-0.4c0.7-0.3,1.3-0.5,2-0.3s1.1,1,0.9,1.7c-0.1,0.5-0.3,1.2-0.2,2c0,0.6-0.1,1.1-0.5,1.5
			C38.6,37.7,38,37.8,37.7,37.8L37.7,37.8L37.7,37.8z M34.6,33.8c-0.1,0-0.2,0.1-0.2,0.1l0,0c0,0.2,0,0.4,0.1,0.5
			c0.1,0.5,0.4,0.7,0.6,0.8c0.6,0.5,1.8,1.3,2.6,1.3c0.2,0,0.4,0,0.6-0.2c0.2-0.2,0.2-0.4,0.2-0.7c-0.1-0.9,0.1-1.8,0.2-2.4
			c0-0.1,0-0.3-0.2-0.3c-0.4-0.1-0.7,0-1.3,0.2c-0.5,0.2-1,0.4-1.8,0.5C35.2,33.8,34.9,33.9,34.6,33.8L34.6,33.8L34.6,33.8z
			 M33.9,34L33.9,34L33.9,34z"/>
		<path d="M29.8,50.7c-0.3,0-0.6-0.3-0.6-0.6v-1.9c0-0.3,0.3-0.6,0.6-0.6c0.3,0,0.6,0.3,0.6,0.6v1.9C30.3,50.4,30.1,50.7,29.8,50.7z
			"/>
		<path d="M31.6,50.7c-0.3,0-0.6-0.3-0.6-0.6v-1.9c0-0.3,0.3-0.6,0.6-0.6c0.3,0,0.6,0.3,0.6,0.6v1.9C32.1,50.4,31.9,50.7,31.6,50.7z
			"/>
		<path d="M33.4,50.7c-0.3,0-0.6-0.3-0.6-0.6v-1.9c0-0.3,0.3-0.6,0.6-0.6s0.6,0.3,0.6,0.6v1.9C33.9,50.4,33.7,50.7,33.4,50.7z"/>
		<path d="M35.2,50.7c-0.3,0-0.6-0.3-0.6-0.6v-1.9c0-0.3,0.3-0.6,0.6-0.6s0.6,0.3,0.6,0.6v1.9C35.7,50.4,35.5,50.7,35.2,50.7z"/>
		<path d="M36,50.7h-7c-0.3,0-0.6-0.3-0.6-0.6s0.3-0.6,0.6-0.6h7c0.3,0,0.6,0.3,0.6,0.6S36.4,50.7,36,50.7z"/>
		<path d="M29,50.7c-0.1,0-0.2,0-0.3-0.1L27,49.3c-0.1-0.1-0.2-0.3-0.2-0.4v-1.4c0-0.3,0.3-0.6,0.6-0.6c0.3,0,0.6,0.3,0.6,0.6v1.1
			l1.5,1.2c0.3,0.2,0.3,0.5,0.1,0.8C29.3,50.6,29.1,50.7,29,50.7L29,50.7z"/>
		<path d="M36,50.7c-0.2,0-0.3-0.1-0.4-0.2c-0.2-0.2-0.2-0.6,0.1-0.8l1.4-1.2v-1.2c0-0.3,0.3-0.6,0.6-0.6s0.6,0.3,0.6,0.6v1.4
			c0,0.2-0.1,0.3-0.2,0.4l-1.6,1.3C36.3,50.6,36.2,50.7,36,50.7z"/>
	</g>
	<path class="st3" d="M20.8,43.6c-1,0-1.8-0.8-1.8-1.8s0.8-1.8,1.8-1.8s1.8,0.8,1.8,1.8C22.6,42.8,21.8,43.6,20.8,43.6z M20.8,41.1
		c-0.4,0-0.7,0.3-0.7,0.7s0.3,0.7,0.7,0.7s0.7-0.3,0.7-0.7C21.5,41.4,21.2,41.1,20.8,41.1z"/>
	<path class="st3" d="M15.8,47.7c-1,0-1.8-0.8-1.8-1.8s0.8-1.8,1.8-1.8s1.8,0.8,1.8,1.8S16.8,47.7,15.8,47.7z M15.8,45.3
		c-0.4,0-0.7,0.3-0.7,0.7s0.3,0.7,0.7,0.7c0.4,0,0.7-0.3,0.7-0.7S16.2,45.3,15.8,45.3z"/>
	<path class="st3" d="M16.5,25.8c-1,0-1.8-0.8-1.8-1.8s0.8-1.8,1.8-1.8s1.8,0.8,1.8,1.8S17.5,25.8,16.5,25.8z M16.5,23.4
		c-0.4,0-0.7,0.3-0.7,0.7c0,0.4,0.3,0.7,0.7,0.7s0.7-0.3,0.7-0.7C17.1,23.7,16.8,23.4,16.5,23.4z"/>
	<path class="st3" d="M11.8,32.1c-1,0-1.8-0.8-1.8-1.8s0.8-1.8,1.8-1.8s1.8,0.8,1.8,1.8S12.8,32.1,11.8,32.1z M11.8,29.6
		c-0.4,0-0.7,0.3-0.7,0.7s0.3,0.7,0.7,0.7s0.7-0.3,0.7-0.7S12.2,29.6,11.8,29.6z"/>
	<path class="st3" d="M21.3,17.9c-1,0-1.8-0.8-1.8-1.8s0.8-1.8,1.8-1.8s1.8,0.8,1.8,1.8C23.1,17.1,22.3,17.9,21.3,17.9z M21.3,15.5
		c-0.4,0-0.7,0.3-0.7,0.7c0,0.4,0.3,0.7,0.7,0.7s0.7-0.3,0.7-0.7C21.9,15.8,21.6,15.5,21.3,15.5z"/>
	<path class="st3" d="M12.4,22.6c-1,0-1.8-0.8-1.8-1.8s0.8-1.8,1.8-1.8s1.8,0.8,1.8,1.8S13.4,22.6,12.4,22.6z M12.4,20.1
		c-0.4,0-0.7,0.3-0.7,0.7s0.3,0.7,0.7,0.7s0.7-0.3,0.7-0.7S12.8,20.1,12.4,20.1z"/>
	<path class="st3" d="M21.3,31.1h-4.8c-0.2,0-0.4-0.1-0.5-0.3l-2.3-3.4c-0.2-0.3-0.1-0.6,0.2-0.8c0.3-0.2,0.6-0.1,0.8,0.2l2.1,3.2
		h4.5c0.3,0,0.6,0.3,0.6,0.6S21.6,31.2,21.3,31.1L21.3,31.1z"/>
	<path class="st3" d="M21.7,34.7h-7.6c-0.2,0-0.4-0.1-0.5-0.3l-1.8-2.7c-0.2-0.3-0.1-0.6,0.2-0.8c0.3-0.2,0.6-0.1,0.8,0.2l1.6,2.4
		h7.2c0.3,0,0.6,0.3,0.6,0.6C22.3,34.4,22,34.7,21.7,34.7z"/>
	<path class="st3" d="M19.5,42.3h-1.8c-0.3,0-0.6-0.3-0.6-0.6V38c0-0.3,0.3-0.6,0.6-0.6h5.8c0.3,0,0.6,0.3,0.6,0.6s-0.3,0.6-0.6,0.6
		h-5.2v2.5h1.2c0.3,0,0.6,0.3,0.6,0.6C20,42.1,19.8,42.3,19.5,42.3z"/>
	<path class="st3" d="M27.2,49.3H23c-0.3,0-0.6-0.3-0.6-0.6v-2.3H17c-0.3,0-0.6-0.3-0.6-0.6s0.3-0.6,0.6-0.6h6
		c0.3,0,0.6,0.3,0.6,0.6v2.3h3.6c0.3,0,0.6,0.3,0.6,0.6S27.6,49.3,27.2,49.3z"/>
	<path class="st3" d="M22.6,23.2c-0.1,0-0.3-0.1-0.4-0.2l-1.9-1.7h-6.6c-0.3,0-0.6-0.3-0.6-0.6c0-0.3,0.3-0.6,0.6-0.6h6.9
		c0.1,0,0.3,0.1,0.4,0.2l2,1.9c0.2,0.2,0.2,0.6,0,0.8C22.9,23.2,22.8,23.2,22.6,23.2z"/>
	<path class="st3" d="M27.7,43.1H25c-0.3,0-0.6-0.3-0.6-0.6s0.3-0.6,0.6-0.6h2.7c0.3,0,0.6,0.3,0.6,0.6C28.2,42.9,28,43.1,27.7,43.1
		z"/>
	<path class="st3" d="M28.6,18.4c-0.3,0-0.6-0.3-0.6-0.6v-1.3h-5.7c-0.3,0-0.6-0.3-0.6-0.6s0.3-0.6,0.6-0.6h6.2
		c0.3,0,0.6,0.3,0.6,0.6v1.9C29.2,18.2,28.9,18.4,28.6,18.4z"/>
	<path class="st3" d="M25.3,20.1c-0.3,0-0.6-0.3-0.6-0.6v-0.9h-1.5c-0.3,0-0.6-0.3-0.6-0.6c0-0.3,0.3-0.6,0.6-0.6h2
		c0.3,0,0.6,0.3,0.6,0.6v1.5C25.8,19.9,25.6,20.1,25.3,20.1z"/>
	<path class="st3" d="M21.4,26.5c-0.2,0-0.3-0.1-0.4-0.2l-1.7-1.7h-1.6c-0.3,0-0.6-0.3-0.6-0.6s0.3-0.6,0.6-0.6h1.8
		c0.2,0,0.3,0.1,0.4,0.2l1.8,1.9c0.2,0.2,0.2,0.6,0,0.8C21.7,26.5,21.5,26.5,21.4,26.5z"/>
	<path class="st3" d="M21.1,28.9h-2.3c-0.3,0-0.6-0.3-0.6-0.6c0-0.3,0.3-0.6,0.6-0.6h2.3c0.3,0,0.6,0.3,0.6,0.6S21.5,28.9,21.1,28.9
		z"/>
	<path class="st3" d="M44.2,43.6c-1,0-1.8-0.8-1.8-1.8s0.8-1.8,1.8-1.8s1.8,0.8,1.8,1.8S45.2,43.6,44.2,43.6z M44.2,41.1
		c-0.4,0-0.7,0.3-0.7,0.7s0.3,0.7,0.7,0.7s0.7-0.3,0.7-0.7C44.8,41.4,44.5,41.1,44.2,41.1z"/>
	<path class="st3" d="M49.2,47.7c-1,0-1.8-0.8-1.8-1.8s0.8-1.8,1.8-1.8s1.8,0.8,1.8,1.8S50.2,47.7,49.2,47.7z M49.2,45.3
		c-0.4,0-0.7,0.3-0.7,0.7s0.3,0.7,0.7,0.7s0.7-0.3,0.7-0.7S49.5,45.3,49.2,45.3z"/>
	<path class="st3" d="M48.5,25.8c-1,0-1.8-0.8-1.8-1.8s0.8-1.8,1.8-1.8s1.8,0.8,1.8,1.8S49.5,25.8,48.5,25.8z M48.5,23.4
		c-0.4,0-0.7,0.3-0.7,0.7c0,0.4,0.3,0.7,0.7,0.7s0.7-0.3,0.7-0.7C49.2,23.7,48.9,23.4,48.5,23.4z"/>
	<path class="st3" d="M53.2,32.1c-1,0-1.8-0.8-1.8-1.8s0.8-1.8,1.8-1.8s1.8,0.8,1.8,1.8S54.2,32.1,53.2,32.1z M53.2,29.6
		c-0.4,0-0.7,0.3-0.7,0.7s0.3,0.7,0.7,0.7s0.7-0.3,0.7-0.7S53.6,29.6,53.2,29.6z"/>
	<path class="st3" d="M43.7,17.9c-1,0-1.8-0.8-1.8-1.8s0.8-1.8,1.8-1.8s1.8,0.8,1.8,1.8S44.7,17.9,43.7,17.9z M43.7,15.5
		c-0.4,0-0.7,0.3-0.7,0.7c0,0.4,0.3,0.7,0.7,0.7s0.7-0.3,0.7-0.7C44.4,15.8,44.1,15.5,43.7,15.5z"/>
	<path class="st3" d="M52.6,22.6c-1,0-1.8-0.8-1.8-1.8s0.8-1.8,1.8-1.8s1.8,0.8,1.8,1.8S53.6,22.6,52.6,22.6z M52.6,20.1
		c-0.4,0-0.7,0.3-0.7,0.7s0.3,0.7,0.7,0.7s0.7-0.3,0.7-0.7S53,20.1,52.6,20.1z"/>
	<path class="st3" d="M48.6,31.1h-4.8c-0.3,0-0.6-0.3-0.6-0.6s0.3-0.6,0.6-0.6h4.5l2.1-3.2c0.2-0.3,0.5-0.3,0.8-0.2
		c0.3,0.2,0.3,0.5,0.2,0.8L49,30.9C48.9,31,48.8,31.1,48.6,31.1L48.6,31.1z"/>
	<path class="st3" d="M50.9,34.7h-7.6c-0.3,0-0.6-0.3-0.6-0.6s0.3-0.6,0.6-0.6h7.2l1.6-2.4c0.2-0.3,0.5-0.3,0.8-0.2s0.3,0.5,0.2,0.8
		l-1.8,2.7C51.2,34.6,51,34.7,50.9,34.7z"/>
	<path class="st3" d="M47.3,42.3h-1.8c-0.3,0-0.6-0.3-0.6-0.6s0.3-0.6,0.6-0.6h1.2v-2.5h-5.2c-0.3,0-0.6-0.3-0.6-0.6
		s0.3-0.6,0.6-0.6h5.8c0.3,0,0.6,0.3,0.6,0.6v3.7C47.9,42.1,47.6,42.3,47.3,42.3z"/>
	<path class="st3" d="M41.9,49.3h-4.2c-0.3,0-0.6-0.3-0.6-0.6s0.3-0.6,0.6-0.6h3.6v-2.3c0-0.3,0.3-0.6,0.6-0.6h6
		c0.3,0,0.6,0.3,0.6,0.6s-0.3,0.6-0.6,0.6h-5.5v2.3C42.5,49.1,42.2,49.3,41.9,49.3z"/>
	<path class="st3" d="M42.4,23.2c-0.2,0-0.3-0.1-0.4-0.2c-0.2-0.2-0.2-0.6,0-0.8l2-1.9c0.1-0.1,0.2-0.2,0.4-0.2h6.9
		c0.3,0,0.6,0.3,0.6,0.6c0,0.3-0.3,0.6-0.6,0.6h-6.6L42.8,23C42.7,23.2,42.5,23.2,42.4,23.2z"/>
	<path class="st3" d="M40.1,43.1h-2.7c-0.3,0-0.6-0.3-0.6-0.6s0.3-0.6,0.6-0.6h2.7c0.3,0,0.6,0.3,0.6,0.6
		C40.6,42.9,40.4,43.1,40.1,43.1z"/>
	<path class="st3" d="M36.4,18.4c-0.3,0-0.6-0.3-0.6-0.6V16c0-0.3,0.3-0.6,0.6-0.6h6.2c0.3,0,0.6,0.3,0.6,0.6c0,0.3-0.3,0.6-0.6,0.6
		H37v1.3C37,18.2,36.7,18.4,36.4,18.4z"/>
	<path class="st3" d="M39.7,20.1c-0.3,0-0.6-0.3-0.6-0.6V18c0-0.3,0.3-0.6,0.6-0.6h2c0.3,0,0.6,0.3,0.6,0.6c0,0.3-0.3,0.6-0.6,0.6
		h-1.5v0.9C40.3,19.9,40,20.1,39.7,20.1z"/>
	<path class="st3" d="M43.6,26.5c-0.1,0-0.3-0.1-0.4-0.2c-0.2-0.2-0.2-0.6,0-0.8l1.8-1.9c0.1-0.1,0.3-0.2,0.4-0.2h1.8
		c0.3,0,0.6,0.3,0.6,0.6s-0.3,0.6-0.6,0.6h-1.6L44,26.3C43.9,26.4,43.8,26.5,43.6,26.5z"/>
	<path class="st3" d="M46.2,28.9h-2.3c-0.3,0-0.6-0.3-0.6-0.6c0-0.3,0.3-0.6,0.6-0.6h2.3c0.3,0,0.6,0.3,0.6,0.6
		C46.7,28.6,46.5,28.9,46.2,28.9z"/>
</g>
<g class="st2">
	<g class="st3">
		<path d="M32.5,42.5c-1.4,0-2.8-0.6-3.7-1.6c-0.9-1-1.4-2.5-1.3-3.9l0.4-3.8c0.2-2.4,2.2-4.2,4.7-4.2c2.4,0,4.5,1.9,4.7,4.3
			l0.3,3.8c0.1,1.4-0.4,2.8-1.3,3.8C35.2,41.9,33.9,42.5,32.5,42.5L32.5,42.5z M32.5,30.2c-1.8,0-3.3,1.3-3.4,3.1l-0.4,3.8
			c-0.1,1.1,0.3,2.1,1,2.9c0.7,0.8,1.7,1.2,2.8,1.2s2.1-0.4,2.8-1.2s1.1-1.8,1-2.9L36,33.3C35.8,31.6,34.3,30.2,32.5,30.2L32.5,30.2
			z"/>
		<path d="M30.6,30.6c-0.2,0-0.4-0.1-0.5-0.3c-0.3-0.4-0.4-0.9-0.4-1.4c0-1.5,1.2-2.7,2.7-2.7s2.7,1.2,2.7,2.7c0,0.5-0.1,1-0.4,1.4
			c-0.2,0.3-0.5,0.4-0.8,0.2s-0.4-0.5-0.2-0.8c0.1-0.2,0.2-0.5,0.2-0.8c0-0.8-0.7-1.5-1.5-1.5s-1.5,0.7-1.5,1.5
			c0,0.3,0.1,0.6,0.2,0.8c0.2,0.3,0.1,0.7-0.2,0.8C30.8,30.6,30.7,30.6,30.6,30.6L30.6,30.6z"/>
		<path d="M32.5,42.5c-0.3,0-0.6-0.3-0.6-0.6v-7.7c0-0.3,0.3-0.6,0.6-0.6s0.6,0.3,0.6,0.6v7.7C33.1,42.2,32.8,42.5,32.5,42.5z"/>
		<path d="M30.6,30.6h-2.9c-0.2,0-0.3-0.1-0.4-0.2L25.9,29c-0.2-0.2-0.3-0.6,0-0.9c0.2-0.2,0.6-0.2,0.9,0l1.2,1.2h2.6
			c0.3,0,0.6,0.3,0.6,0.6S30.9,30.6,30.6,30.6z"/>
		<path d="M28.4,33.9h-1.8c-0.1,0-0.3,0-0.4-0.1l-2-1.6c-0.3-0.2-0.3-0.6-0.1-0.9c0.2-0.3,0.6-0.3,0.9-0.1l1.9,1.4h1.6
			c0.3,0,0.6,0.3,0.6,0.6S28.7,33.9,28.4,33.9z"/>
		<path d="M25.1,40c-0.1,0-0.2,0-0.3-0.1c-0.3-0.2-0.4-0.6-0.2-0.8l1.2-1.9c0.1-0.2,0.3-0.3,0.5-0.3h1.8c0.3,0,0.6,0.3,0.6,0.6
			s-0.3,0.6-0.6,0.6h-1.5l-1,1.6C25.5,39.9,25.3,40,25.1,40L25.1,40z"/>
		<path d="M27.1,43.5c-0.1,0-0.2,0-0.3-0.1c-0.3-0.2-0.3-0.6-0.2-0.8l0.9-1.4l0.1-0.1l1.1-1c0.2-0.2,0.6-0.2,0.9,0
			c0.2,0.2,0.2,0.6,0,0.9l-1.1,1l-0.9,1.3C27.5,43.4,27.3,43.5,27.1,43.5L27.1,43.5z"/>
		<path d="M37.3,30.6h-2.9c-0.3,0-0.6-0.3-0.6-0.6s0.3-0.6,0.6-0.6H37l1.2-1.2c0.2-0.2,0.6-0.2,0.9,0s0.2,0.6,0,0.9l-1.4,1.4
			C37.6,30.6,37.4,30.6,37.3,30.6z"/>
		<path d="M38.4,33.9h-1.8c-0.3,0-0.6-0.3-0.6-0.6s0.3-0.6,0.6-0.6h1.6l1.9-1.4c0.3-0.2,0.6-0.2,0.9,0.1c0.2,0.3,0.2,0.6-0.1,0.9
			l-2,1.6C38.7,33.9,38.6,33.9,38.4,33.9z"/>
		<path d="M39.9,40c-0.2,0-0.4-0.1-0.5-0.3l-1-1.6h-1.5c-0.3,0-0.6-0.3-0.6-0.6s0.3-0.6,0.6-0.6h1.8c0.2,0,0.4,0.1,0.5,0.3l1.2,1.9
			c0.2,0.3,0.1,0.7-0.2,0.8C40.2,40,40.1,40,39.9,40L39.9,40z"/>
		<path d="M37.9,43.5c-0.2,0-0.4-0.1-0.5-0.3l-0.9-1.3l-1.1-1c-0.2-0.2-0.3-0.6,0-0.9c0.2-0.2,0.6-0.3,0.9,0l1.1,1l0.1,0.1l0.9,1.4
			c0.2,0.3,0.1,0.7-0.2,0.8C38.1,43.4,38,43.5,37.9,43.5L37.9,43.5z"/>
		<path d="M31.2,27.8c-0.2,0-0.4-0.1-0.5-0.2c-0.4-0.5-0.9-1.8,0.2-3c0.2-0.3,0.6-0.3,0.9,0c0.3,0.3,0.3,0.6,0,0.9
			c-0.6,0.7-0.2,1.3-0.1,1.4c0.2,0.3,0.1,0.6-0.1,0.9C31.4,27.8,31.3,27.8,31.2,27.8z"/>
		<path d="M33.7,27.8c-0.1,0-0.3,0-0.4-0.1c-0.3-0.2-0.3-0.6-0.1-0.8c0.1-0.1,0.5-0.8-0.1-1.4c-0.2-0.3-0.2-0.6,0-0.9
			c0.3-0.2,0.6-0.2,0.9,0c1,1.2,0.6,2.4,0.2,3C34.1,27.7,33.9,27.8,33.7,27.8L33.7,27.8z"/>
	</g>
	<g class="st3">
		<path d="M49.2,51.3H15.8c-0.3,0-0.6-0.3-0.6-0.6V17.2c0-0.3,0.3-0.6,0.6-0.6h33.4c0.3,0,0.6,0.3,0.6,0.6v33.5
			C49.8,51,49.6,51.3,49.2,51.3L49.2,51.3z M16.4,50h32.2V17.8H16.4V50L16.4,50z"/>
		<path d="M23.8,48.3h-5.1c-0.3,0-0.6-0.3-0.6-0.6V20.2c0-0.3,0.3-0.6,0.6-0.6h22c0.3,0,0.6,0.3,0.6,0.6s-0.3,0.6-0.6,0.6H19.4v26.3
			h4.4c0.3,0,0.6,0.3,0.6,0.6S24.1,48.3,23.8,48.3z"/>
		<path d="M46.2,48.3H32.8c-0.3,0-0.6-0.3-0.6-0.6s0.3-0.6,0.6-0.6h12.9V26.6c0-0.3,0.3-0.6,0.6-0.6s0.6,0.3,0.6,0.6v21
			C46.9,48,46.6,48.3,46.2,48.3z"/>
		<g>
			<path d="M20.4,17.8c-0.3,0-0.6-0.3-0.6-0.6V12c0-0.3,0.3-0.6,0.6-0.6c0.3,0,0.6,0.3,0.6,0.6v5.2C21,17.5,20.7,17.8,20.4,17.8z"/>
			<path d="M25.2,17.8c-0.3,0-0.6-0.3-0.6-0.6V12c0-0.3,0.3-0.6,0.6-0.6s0.6,0.3,0.6,0.6v5.2C25.8,17.5,25.5,17.8,25.2,17.8z"/>
			<path d="M30.1,17.8c-0.3,0-0.6-0.3-0.6-0.6V12c0-0.3,0.3-0.6,0.6-0.6s0.6,0.3,0.6,0.6v5.2C30.7,17.5,30.4,17.8,30.1,17.8z"/>
			<path d="M34.9,17.8c-0.3,0-0.6-0.3-0.6-0.6V12c0-0.3,0.3-0.6,0.6-0.6s0.6,0.3,0.6,0.6v5.2C35.5,17.5,35.3,17.8,34.9,17.8z"/>
			<path d="M39.8,17.8c-0.3,0-0.6-0.3-0.6-0.6V12c0-0.3,0.3-0.6,0.6-0.6s0.6,0.3,0.6,0.6v5.2C40.4,17.5,40.1,17.8,39.8,17.8z"/>
			<path d="M44.6,17.8c-0.3,0-0.6-0.3-0.6-0.6V12c0-0.3,0.3-0.6,0.6-0.6s0.6,0.3,0.6,0.6v5.2C45.3,17.5,45,17.8,44.6,17.8z"/>
		</g>
		<g>
			<path d="M20.4,56.4c-0.3,0-0.6-0.3-0.6-0.6v-5.2c0-0.3,0.3-0.6,0.6-0.6c0.3,0,0.6,0.3,0.6,0.6v5.2C21,56.2,20.7,56.4,20.4,56.4z"
				/>
			<path d="M25.2,56.4c-0.3,0-0.6-0.3-0.6-0.6v-5.2c0-0.3,0.3-0.6,0.6-0.6s0.6,0.3,0.6,0.6v5.2C25.8,56.2,25.5,56.4,25.2,56.4z"/>
			<path d="M30.1,56.4c-0.3,0-0.6-0.3-0.6-0.6v-5.2c0-0.3,0.3-0.6,0.6-0.6s0.6,0.3,0.6,0.6v5.2C30.7,56.2,30.4,56.4,30.1,56.4z"/>
			<path d="M34.9,56.4c-0.3,0-0.6-0.3-0.6-0.6v-5.2c0-0.3,0.3-0.6,0.6-0.6s0.6,0.3,0.6,0.6v5.2C35.5,56.2,35.3,56.4,34.9,56.4z"/>
			<path d="M39.8,56.4c-0.3,0-0.6-0.3-0.6-0.6v-5.2c0-0.3,0.3-0.6,0.6-0.6s0.6,0.3,0.6,0.6v5.2C40.4,56.2,40.1,56.4,39.8,56.4z"/>
			<path d="M44.6,56.4c-0.3,0-0.6-0.3-0.6-0.6v-5.2c0-0.3,0.3-0.6,0.6-0.6s0.6,0.3,0.6,0.6v5.2C45.3,56.2,45,56.4,44.6,56.4z"/>
		</g>
		<g>
			<path d="M54.4,46.7h-5.2c-0.3,0-0.6-0.3-0.6-0.6s0.3-0.6,0.6-0.6h5.2c0.3,0,0.6,0.3,0.6,0.6S54.7,46.7,54.4,46.7z"/>
			<path d="M54.4,41.8h-5.2c-0.3,0-0.6-0.3-0.6-0.6s0.3-0.6,0.6-0.6h5.2c0.3,0,0.6,0.3,0.6,0.6S54.7,41.8,54.4,41.8z"/>
			<path d="M54.4,37h-5.2c-0.3,0-0.6-0.3-0.6-0.6s0.3-0.6,0.6-0.6h5.2c0.3,0,0.6,0.3,0.6,0.6S54.7,37,54.4,37z"/>
			<path d="M54.4,32.1h-5.2c-0.3,0-0.6-0.3-0.6-0.6s0.3-0.6,0.6-0.6h5.2c0.3,0,0.6,0.3,0.6,0.6S54.7,32.1,54.4,32.1z"/>
			<path d="M54.4,27.3h-5.2c-0.3,0-0.6-0.3-0.6-0.6s0.3-0.6,0.6-0.6h5.2c0.3,0,0.6,0.3,0.6,0.6S54.7,27.3,54.4,27.3z"/>
			<path d="M54.4,22.4h-5.2c-0.3,0-0.6-0.3-0.6-0.6s0.3-0.6,0.6-0.6h5.2c0.3,0,0.6,0.3,0.6,0.6S54.7,22.4,54.4,22.4z"/>
		</g>
		<g>
			<path d="M15.8,46.7h-5.2c-0.3,0-0.6-0.3-0.6-0.6s0.3-0.6,0.6-0.6h5.2c0.3,0,0.6,0.3,0.6,0.6S16.1,46.7,15.8,46.7z"/>
			<path d="M15.8,41.8h-5.2c-0.3,0-0.6-0.3-0.6-0.6s0.3-0.6,0.6-0.6h5.2c0.3,0,0.6,0.3,0.6,0.6S16.1,41.8,15.8,41.8z"/>
			<path d="M15.8,37h-5.2c-0.3,0-0.6-0.3-0.6-0.6s0.3-0.6,0.6-0.6h5.2c0.3,0,0.6,0.3,0.6,0.6S16.1,37,15.8,37z"/>
			<path d="M15.8,32.1h-5.2c-0.3,0-0.6-0.3-0.6-0.6s0.3-0.6,0.6-0.6h5.2c0.3,0,0.6,0.3,0.6,0.6S16.1,32.1,15.8,32.1z"/>
			<path d="M15.8,27.3h-5.2c-0.3,0-0.6-0.3-0.6-0.6s0.3-0.6,0.6-0.6h5.2c0.3,0,0.6,0.3,0.6,0.6S16.1,27.3,15.8,27.3z"/>
			<path d="M15.8,22.4h-5.2c-0.3,0-0.6-0.3-0.6-0.6s0.3-0.6,0.6-0.6h5.2c0.3,0,0.6,0.3,0.6,0.6S16.1,22.4,15.8,22.4z"/>
		</g>
	</g>
</g>
<g>
	<path d="M49.4,52.9H17.6c-0.9,0-1.6-0.7-1.6-1.6V26.8c0-0.9,0.7-1.6,1.6-1.6h4.3c0.3,0,0.6,0.3,0.6,0.6s-0.3,0.6-0.6,0.6h-4.3
		c-0.2,0-0.4,0.2-0.4,0.4v24.5c0,0.2,0.2,0.4,0.4,0.4h31.8c0.2,0,0.4-0.2,0.4-0.4V26.8c0-0.2-0.2-0.4-0.4-0.4H45
		c-0.3,0-0.6-0.3-0.6-0.6s0.3-0.6,0.6-0.6h4.4c0.9,0,1.6,0.7,1.6,1.6v24.5C51,52.2,50.3,52.9,49.4,52.9z"/>
	<path d="M42.6,26.5H24.3c-0.3,0-0.6-0.3-0.6-0.6s0.3-0.6,0.6-0.6h18.2c0.3,0,0.6,0.3,0.6,0.6S42.9,26.5,42.6,26.5z"/>
	<path d="M47,26.5c-0.3,0-0.6-0.3-0.6-0.6v-3.6c0-6.4-4.5-11.8-10.8-12.9c-0.3-0.1-0.6-0.4-0.5-0.7c0.1-0.3,0.4-0.6,0.7-0.5
		c6.8,1.2,11.8,7.1,11.8,14.1v3.6C47.6,26.2,47.4,26.5,47,26.5z"/>
	<path d="M20,26.5c-0.3,0-0.6-0.3-0.6-0.6v-3.6c0-6.7,4.7-12.6,11.2-14c0.3-0.1,0.7,0.1,0.7,0.5c0.1,0.3-0.1,0.7-0.5,0.7
		c-5.9,1.3-10.2,6.7-10.2,12.8v3.6C20.6,26.2,20.3,26.5,20,26.5z"/>
	<path d="M25.8,26.5c-0.3,0-0.6-0.3-0.6-0.6v-4c0-3.8,2.5-7.2,6.1-8.2c0.3-0.1,0.7,0.1,0.8,0.4c0.1,0.3-0.1,0.7-0.4,0.8
		c-3,0.9-5.2,3.8-5.2,7v4C26.4,26.2,26.1,26.5,25.8,26.5z"/>
	<path d="M41.2,26.5c-0.3,0-0.6-0.3-0.6-0.6v-4c0-2.8-1.6-5.4-4.1-6.6c-0.3-0.1-0.4-0.5-0.3-0.8c0.1-0.3,0.5-0.4,0.8-0.3
		c2.9,1.4,4.8,4.4,4.8,7.7v4C41.8,26.2,41.5,26.4,41.2,26.5L41.2,26.5z"/>
	<path d="M33.5,46.9c-1.3,0-2.5-0.6-3.4-1.5c-0.9-1-1.3-2.2-1.2-3.5l0.3-3.4c0.2-2.2,2.1-3.9,4.3-3.9s4.1,1.7,4.3,4l0.3,3.4
		c0.1,1.3-0.3,2.5-1.2,3.5S34.7,46.9,33.5,46.9L33.5,46.9z M33.5,35.7c-1.6,0-2.9,1.2-3.1,2.8L30.1,42c-0.1,0.9,0.2,1.9,0.9,2.6
		c0.6,0.7,1.5,1.1,2.5,1.1c0.9,0,1.8-0.4,2.5-1.1c0.6-0.7,1-1.6,0.9-2.5l-0.3-3.4C36.4,37,35.1,35.7,33.5,35.7z"/>
	<path d="M31.8,36.1c-0.2,0-0.4-0.1-0.5-0.3c-0.2-0.4-0.4-0.9-0.4-1.3c0-1.4,1.1-2.6,2.5-2.6s2.6,1.1,2.6,2.6c0,0.5-0.1,0.9-0.3,1.3
		c-0.2,0.3-0.6,0.4-0.8,0.2c-0.3-0.2-0.4-0.6-0.2-0.8c0.1-0.2,0.2-0.4,0.2-0.7c0-0.7-0.6-1.3-1.3-1.3c-0.7,0-1.3,0.6-1.3,1.3
		c0,0.2,0.1,0.5,0.2,0.7c0.2,0.3,0.1,0.7-0.2,0.8C32,36.1,31.9,36.1,31.8,36.1L31.8,36.1z"/>
	<path d="M33.5,46.9c-0.3,0-0.6-0.3-0.6-0.6v-7c0-0.3,0.3-0.6,0.6-0.6c0.3,0,0.6,0.3,0.6,0.6v7C34.1,46.6,33.8,46.9,33.5,46.9z"/>
	<path d="M31.8,36.1h-2.6c-0.2,0-0.3-0.1-0.4-0.2l-1.3-1.2L26,33h-3.9c-0.3,0-0.6-0.3-0.6-0.6c0-0.3,0.3-0.6,0.6-0.6h4.2
		c0.2,0,0.4,0.1,0.5,0.2l1.6,1.9l1.1,1h2.3c0.3,0,0.6,0.3,0.6,0.6S32.1,36.1,31.8,36.1L31.8,36.1z"/>
	<path d="M29.8,39.5h-1.6c-0.1,0-0.3,0-0.4-0.1l-1.7-1.3h-2c-0.3,0-0.6-0.3-0.6-0.6c0-0.3,0.3-0.6,0.6-0.6h2.2c0.1,0,0.3,0,0.4,0.1
		l1.7,1.3h1.4c0.3,0,0.6,0.3,0.6,0.6C30.4,39.2,30.1,39.5,29.8,39.5L29.8,39.5z"/>
	<path d="M26.8,44.6h-3.9c-0.3,0-0.6-0.3-0.6-0.6c0-0.3,0.3-0.6,0.6-0.6h3.6l0.9-1.4c0.1-0.2,0.3-0.3,0.5-0.3h1.6
		c0.3,0,0.6,0.3,0.6,0.6c0,0.3-0.3,0.6-0.6,0.6h-1.3l-0.9,1.4C27.2,44.5,27,44.6,26.8,44.6L26.8,44.6z"/>
	<path d="M28.6,47.7h-1.8c-0.3,0-0.6-0.3-0.6-0.6c0-0.3,0.3-0.6,0.6-0.6h1.5l0.7-1c0,0,0.1-0.1,0.1-0.1l1-0.9c0.2-0.2,0.6-0.2,0.9,0
		c0.2,0.2,0.2,0.6,0,0.9l-1,0.9l-0.8,1.2C29,47.6,28.8,47.7,28.6,47.7L28.6,47.7z"/>
	<path d="M32.3,33.6c-0.2,0-0.4-0.1-0.5-0.2c-0.4-0.5-0.8-1.7,0.2-2.8c0.2-0.3,0.6-0.3,0.9,0c0.3,0.2,0.3,0.6,0,0.9
		c-0.5,0.6-0.1,1.2-0.1,1.2c0.2,0.3,0.1,0.7-0.1,0.9C32.6,33.5,32.4,33.6,32.3,33.6z"/>
	<path d="M34.6,33.6c-0.1,0-0.3,0-0.4-0.1c-0.3-0.2-0.3-0.6-0.1-0.9c0.1-0.1,0.4-0.6-0.1-1.2c-0.2-0.3-0.2-0.6,0-0.9
		c0.3-0.2,0.6-0.2,0.9,0c1,1.1,0.5,2.3,0.2,2.8C35,33.5,34.8,33.6,34.6,33.6z"/>
	<path d="M31.4,14.9c-0.2,0-0.4-0.1-0.5-0.2l-1.5-1.9c-0.2-0.2-0.2-0.5,0-0.8l1.5-1.9l-0.7-0.8C30,9,30,8.6,30.3,8.4
		c0.3-0.2,0.7-0.2,0.9,0.1l1,1.2c0.2,0.2,0.2,0.5,0,0.8l-1.5,1.9l1.2,1.5c0.2,0.3,0.2,0.7-0.1,0.9C31.7,14.8,31.5,14.9,31.4,14.9
		L31.4,14.9z"/>
	<path d="M36.7,15.3c-0.1,0-0.3,0-0.4-0.1c-0.1-0.1-0.2-0.3-0.2-0.4l-1.6-2c-0.2-0.2-0.2-0.5,0-0.8l1.5-1.9l-0.7-0.9
		c-0.2-0.3-0.2-0.7,0.1-0.9C35.6,8,36,8.1,36.2,8.4l1.1,1.3c0.2,0.2,0.2,0.5,0,0.8l-1.5,1.9l1.5,1.9c0.2,0.2,0.2,0.5,0,0.8l-0.1,0.1
		C37.1,15.2,36.9,15.3,36.7,15.3z"/>
	<path d="M21.8,49.8h-5.2c-0.3,0-0.6-0.3-0.6-0.6c0-0.3,0.3-0.6,0.6-0.6h4.6v-1.4c0-0.3,0.3-0.6,0.6-0.6h2.3c0.3,0,0.6,0.3,0.6,0.6
		c0,0.3-0.3,0.6-0.6,0.6h-1.7v1.4C22.4,49.5,22.1,49.8,21.8,49.8z"/>
	<path d="M27.1,30.5h-4.8c-0.3,0-0.6-0.3-0.6-0.6V29h-5.1c-0.3,0-0.6-0.3-0.6-0.6s0.3-0.6,0.6-0.6h5.7c0.3,0,0.6,0.3,0.6,0.6v0.9
		h4.1c0.3,0,0.6,0.3,0.6,0.6S27.4,30.5,27.1,30.5z"/>
	<path d="M19.4,46.3h-2.7c-0.3,0-0.6-0.3-0.6-0.6s0.3-0.6,0.6-0.6h2.7c0.3,0,0.6,0.3,0.6,0.6S19.7,46.3,19.4,46.3z"/>
	<path d="M21.7,42.3h-5c-0.3,0-0.6-0.3-0.6-0.6c0-0.3,0.3-0.6,0.6-0.6H21v-0.9c0-0.3,0.3-0.6,0.6-0.6h3.1c0.3,0,0.6,0.3,0.6,0.6
		c0,0.3-0.3,0.6-0.6,0.6h-2.4v0.9C22.3,42,22,42.3,21.7,42.3z"/>
	<path d="M21.2,36.5h-1.8c-0.3,0-0.6-0.3-0.6-0.6v0h-2.1c-0.3,0-0.6-0.3-0.6-0.6c0-0.3,0.3-0.6,0.6-0.6h2.7c0.3,0,0.6,0.3,0.6,0.6v0
		h1.2c0.3,0,0.6,0.3,0.6,0.6C21.8,36.3,21.5,36.5,21.2,36.5z"/>
	<path d="M37.8,36.1h-2.6c-0.3,0-0.6-0.3-0.6-0.6c0-0.3,0.3-0.6,0.6-0.6h2.3l1.1-1.1l1.6-1.9c0.1-0.1,0.3-0.2,0.5-0.2h4.5
		c0.3,0,0.6,0.3,0.6,0.6c0,0.3-0.3,0.6-0.6,0.6H41l-1.4,1.7L38.2,36C38.1,36.1,38,36.1,37.8,36.1L37.8,36.1z"/>
	<path d="M38.9,39.5h-1.6c-0.3,0-0.6-0.3-0.6-0.6c0-0.3,0.3-0.6,0.6-0.6h1.4l1.7-1.3c0.1-0.1,0.2-0.1,0.4-0.1h2.2
		c0.3,0,0.6,0.3,0.6,0.6c0,0.3-0.3,0.6-0.6,0.6h-2l-1.7,1.3C39.1,39.4,39,39.5,38.9,39.5L38.9,39.5z"/>
	<path d="M44.1,44.6h-3.9c-0.2,0-0.4-0.1-0.5-0.3l-0.9-1.4h-1.3c-0.3,0-0.6-0.3-0.6-0.6c0-0.3,0.3-0.6,0.6-0.6h1.6
		c0.2,0,0.4,0.1,0.5,0.3l0.9,1.4h3.6c0.3,0,0.6,0.3,0.6,0.6C44.8,44.4,44.5,44.6,44.1,44.6L44.1,44.6z"/>
	<path d="M40.2,47.7h-1.8c-0.2,0-0.4-0.1-0.5-0.3L37,46.3l-1-0.9c-0.2-0.2-0.3-0.6,0-0.9c0.2-0.2,0.6-0.3,0.9,0l1,0.9
		c0,0,0.1,0.1,0.1,0.1l0.7,1h1.5c0.3,0,0.6,0.3,0.6,0.6C40.8,47.5,40.5,47.7,40.2,47.7L40.2,47.7z"/>
	<path d="M50.4,49.8h-5.2c-0.3,0-0.6-0.3-0.6-0.6v-1.4h-2.3c-0.3,0-0.6-0.3-0.6-0.6c0-0.3,0.3-0.6,0.6-0.6h2.9
		c0.3,0,0.6,0.3,0.6,0.6v1.4h4.6c0.3,0,0.6,0.3,0.6,0.6C51,49.5,50.7,49.8,50.4,49.8z"/>
	<path d="M44.7,30.5h-4.8c-0.3,0-0.6-0.3-0.6-0.6s0.3-0.6,0.6-0.6h4.1v-0.9c0-0.3,0.3-0.6,0.6-0.6h5.7c0.3,0,0.6,0.3,0.6,0.6
		S50.7,29,50.4,29h-5.1v0.9C45.3,30.2,45,30.5,44.7,30.5z"/>
	<path d="M50.4,46.3h-2.7c-0.3,0-0.6-0.3-0.6-0.6s0.3-0.6,0.6-0.6h2.7c0.3,0,0.6,0.3,0.6,0.6S50.7,46.3,50.4,46.3z"/>
	<path d="M50.4,42.3h-5c-0.3,0-0.6-0.3-0.6-0.6v-0.9h-2.4c-0.3,0-0.6-0.3-0.6-0.6c0-0.3,0.3-0.6,0.6-0.6h3.1c0.3,0,0.6,0.3,0.6,0.6
		V41h4.4c0.3,0,0.6,0.3,0.6,0.6C51,42,50.7,42.3,50.4,42.3z"/>
	<path d="M47.6,36.2h-1.8c-0.3,0-0.6-0.3-0.6-0.6c0-0.3,0.3-0.6,0.6-0.6l1.2,0c0-0.3,0.3-0.6,0.6-0.6h2.8c0.3,0,0.6,0.3,0.6,0.6
		c0,0.3-0.3,0.6-0.6,0.6l-2.2,0C48.2,35.9,47.9,36.2,47.6,36.2z"/>
	<path d="M21.2,34c-0.9,0-1.6-0.7-1.6-1.6c0-0.9,0.7-1.6,1.6-1.6s1.6,0.7,1.6,1.6C22.8,33.3,22.1,34,21.2,34z M21.2,32
		c-0.2,0-0.4,0.2-0.4,0.4s0.2,0.4,0.4,0.4s0.4-0.2,0.4-0.4S21.4,32,21.2,32z"/>
	<path d="M46.2,33.9c-0.9,0-1.6-0.7-1.6-1.6c0-0.9,0.7-1.6,1.6-1.6c0.9,0,1.6,0.7,1.6,1.6C47.8,33.2,47,33.9,46.2,33.9z M46.2,32
		c-0.2,0-0.4,0.2-0.4,0.4s0.2,0.4,0.4,0.4c0.2,0,0.4-0.2,0.4-0.4S46.4,32,46.2,32z"/>
	<path d="M28.1,31.4c-0.9,0-1.6-0.7-1.6-1.6s0.7-1.6,1.6-1.6s1.6,0.7,1.6,1.6S28.9,31.4,28.1,31.4z M28.1,29.4
		c-0.2,0-0.4,0.2-0.4,0.4c0,0.2,0.2,0.4,0.4,0.4s0.4-0.2,0.4-0.4C28.4,29.6,28.3,29.4,28.1,29.4z"/>
	<path d="M38.9,31.4c-0.9,0-1.6-0.7-1.6-1.6s0.7-1.6,1.6-1.6s1.6,0.7,1.6,1.6S39.8,31.4,38.9,31.4z M38.9,29.5
		c-0.2,0-0.4,0.2-0.4,0.4s0.2,0.4,0.4,0.4s0.4-0.2,0.4-0.4S39.1,29.5,38.9,29.5z"/>
	<path d="M43.8,39c-0.9,0-1.6-0.7-1.6-1.6s0.7-1.6,1.6-1.6c0.9,0,1.6,0.7,1.6,1.6S44.7,39,43.8,39z M43.8,37.1
		c-0.2,0-0.4,0.2-0.4,0.4s0.2,0.4,0.4,0.4s0.4-0.2,0.4-0.4S44,37.1,43.8,37.1z"/>
	<path d="M23.2,39c-0.9,0-1.6-0.7-1.6-1.6s0.7-1.6,1.6-1.6c0.9,0,1.6,0.7,1.6,1.6S24.1,39,23.2,39z M23.2,37.1
		c-0.2,0-0.4,0.2-0.4,0.4s0.2,0.4,0.4,0.4s0.4-0.2,0.4-0.4S23.4,37.1,23.2,37.1z"/>
	<path d="M45.2,45.6c-0.9,0-1.6-0.7-1.6-1.6c0-0.9,0.7-1.6,1.6-1.6s1.6,0.7,1.6,1.6C46.8,44.9,46.1,45.6,45.2,45.6z M45.2,43.7
		c-0.2,0-0.4,0.2-0.4,0.4s0.2,0.4,0.4,0.4c0.2,0,0.4-0.2,0.4-0.4S45.4,43.7,45.2,43.7z"/>
	<path d="M21.9,45.6c-0.9,0-1.6-0.7-1.6-1.6c0-0.9,0.7-1.6,1.6-1.6c0.9,0,1.6,0.7,1.6,1.6C23.4,44.9,22.7,45.6,21.9,45.6z
		 M21.9,43.7c-0.2,0-0.4,0.2-0.4,0.4s0.2,0.4,0.4,0.4s0.4-0.2,0.4-0.4S22.1,43.7,21.9,43.7z"/>
</g>
</svg>
