<?xml version="1.0" encoding="utf-8"?>
<!-- Generator: Adobe Illustrator 27.8.1, SVG Export Plug-In . SVG Version: 6.00 Build 0)  -->
<svg version="1.1" id="Calque_1" xmlns="http://www.w3.org/2000/svg" xmlns:xlink="http://www.w3.org/1999/xlink" x="0px" y="0px"
	 viewBox="0 0 32 16" style="enable-background:new 0 0 32 16;" xml:space="preserve">
<style type="text/css">
	.st0{display:none;fill:#E0DDFF;}
	.st1{display:none;fill:#2121FF;}
	.st2{display:none;fill:#FFFFFF;}
	.st3{fill:#FFFFFF;}
</style>
<path class="st0" d="M4,6v1h2V6h1V3H6V2H4v1H3v3H4z"/>
<path class="st1" d="M4,4V2h2v2H4z"/>
<path class="st0" d="M10,6v1h2V6h1V3h-1V2h-2v1H9v3H10z"/>
<path class="st1" d="M10,4V2h2v2H10z"/>
<path class="st0" d="M20,6v1h2V6h1V3h-1V2h-2v1h-1v3H20z"/>
<path class="st1" d="M20,4V2h2v2H20z"/>
<path class="st0" d="M26,6v1h2V6h1V3h-1V2h-2v1h-1v3H26z"/>
<path class="st1" d="M26,4V2h2v2H26z"/>
<g>
	<path class="st2" d="M1.7,8.6c1.6,5.5,4.6-0.4,5.7,1.6c0.5,1,0.5,2.7-2.3,2c2.7,3.3,8.8,2.4,10.9-1.5c-0.8,0.8-1.9,1.4-3.2,1.4
		c-2.4,0-4.4-2-4.4-4.4s2-4.4,4.4-4.4c1.2,0,2.2,0.5,3,1.2c-2.4-4.7-9-3.8-10.7-0.7c1.8-0.7,3.1-0.4,3.8,0.6C3,3.9,5.4,10.5,1.7,8.6
		L1.7,8.6z"/>
	<path class="st2" d="M2.1,9.1c0.5,0.1,0.9,0.2,1.2,0c0.6-0.2,0.9-0.9,1.3-1.7C5.2,6,5.9,4.3,9,4.6h0.4c-0.7,0.8-1.1,1.9-1.1,3
		c0,2.5,2.1,4.6,4.6,4.6c0.7,0,1.5-0.2,2.1-0.5c-1.1,1.2-2.7,2-4.5,2.1c-1.9,0.3-3.6-0.2-4.8-1.2c0.8,0.1,1.3,0,1.7-0.3
		c0.3-0.2,0.5-0.6,0.5-1.1c0-0.4-0.1-0.7-0.3-1.1C7.4,9.8,7.2,9.6,7,9.6c-0.5-0.2-1.1,0.1-1.7,0.5c-0.7,0.4-1.4,0.8-2,0.6
		C2.8,10.5,2.4,10,2.1,9.1z M5.7,3.4c1-1.2,2.7-1.9,4.6-1.9s3.5,0.8,4.6,2.1c-0.7-0.3-1.4-0.5-2.1-0.5c-1.3,0-2.5,0.6-3.4,1.5
		L9.2,4.3C8.4,3.3,7.1,3,5.7,3.4L5.7,3.4z M1.7,8.6c1.6,5.5,4.6-0.4,5.7,1.6c0.1,0.3,0.2,0.7,0.2,1c0,0.8-0.6,1.5-2.6,1
		c2.8,3.3,8.9,2.4,11-1.5c-0.8,0.8-1.9,1.4-3.2,1.4c-2.4,0-4.4-2-4.4-4.4s2-4.4,4.4-4.4c1.2,0,2.2,0.5,3,1.2
		c-2.4-4.7-9-3.8-10.7-0.7c1.8-0.7,3.1-0.4,3.8,0.6C3,3.9,5.4,10.5,1.7,8.6L1.7,8.6z"/>
	<path class="st3" d="M9.3,7.7c0,1.9,1.5,3.4,3.4,3.4s3.4-1.5,3.4-3.4s-1.5-3.4-3.4-3.4C10.9,4.3,9.3,5.8,9.3,7.7z M15.1,7.7
		c0,1-0.8,1.9-1.9,1.9c-1,0-1.9-0.8-1.9-1.9c0-1,0.8-1.9,1.9-1.9S15.1,6.7,15.1,7.7z"/>
	<path class="st3" d="M16.3,7.7c0,2-1.6,3.5-3.5,3.5S9.2,9.7,9.2,7.7s1.6-3.5,3.5-3.5C14.7,4.2,16.3,5.7,16.3,7.7z M9.5,7.7
		c0,1.8,1.5,3.3,3.3,3.3s3.3-1.5,3.3-3.3s-1.5-3.3-3.3-3.3C10.9,4.4,9.5,5.9,9.5,7.7z M15.2,7.7c0,1.1-0.9,2-2,2s-2-0.9-2-2
		s0.9-2,2-2S15.2,6.6,15.2,7.7z M11.5,7.7c0,1,0.8,1.7,1.8,1.7S15,8.7,15,7.7s-0.8-1.8-1.7-1.8C12.3,6,11.5,6.7,11.5,7.7z"/>
</g>
<path class="st3" d="M21.8,7.6c1.9,0,3.4-1.5,3.4-3.4s-1.5-3.4-3.4-3.4s-3.4,1.5-3.4,3.4C18.4,6,19.9,7.6,21.8,7.6z M21.8,1.8
	c1,0,1.9,0.8,1.9,1.9c0,1-0.8,1.9-1.9,1.9c-1,0-1.9-0.8-1.9-1.9S20.8,1.8,21.8,1.8z"/>
<path class="st3" d="M28.5,7.5c0,2-1.6,3.5-3.5,3.5s-3.6-1.5-3.6-3.5S23,4,24.9,4C26.9,4,28.5,5.5,28.5,7.5z M21.7,7.5
	c0,1.8,1.5,3.3,3.3,3.3c1.8,0,3.3-1.5,3.3-3.3S26.8,4.2,25,4.2C23.1,4.2,21.7,5.7,21.7,7.5z M27.4,7.5c0,1.1-0.9,2-2,2s-2-0.9-2-2
	s0.9-2,2-2S27.4,6.4,27.4,7.5z M23.7,7.5c0,1,0.8,1.7,1.8,1.7s1.7-0.7,1.7-1.7s-0.8-1.8-1.7-1.8C24.5,5.8,23.7,6.5,23.7,7.5z"/>
</svg>
