<?xml version="1.0" encoding="utf-8"?>
<!-- Generator: Adobe Illustrator 27.8.1, SVG Export Plug-In . SVG Version: 6.00 Build 0)  -->
<svg version="1.1" id="Calque_1" xmlns="http://www.w3.org/2000/svg" xmlns:xlink="http://www.w3.org/1999/xlink" x="0px" y="0px"
	 viewBox="0 0 32 16" style="enable-background:new 0 0 32 16;" xml:space="preserve">
<style type="text/css">
	.st0{display:none;fill:#E0DDFF;}
	.st1{display:none;fill:#2121FF;}
	.st2{display:none;fill:#FFFFFF;}
	.st3{fill:#FFFFFF;}
</style>
<path class="st0" d="M4,6v1h2V6h1V3H6V2H4v1H3v3H4z"/>
<path class="st1" d="M4,4V2h2v2H4z"/>
<path class="st0" d="M10,6v1h2V6h1V3h-1V2h-2v1H9v3H10z"/>
<path class="st1" d="M10,4V2h2v2H10z"/>
<path class="st0" d="M20,6v1h2V6h1V3h-1V2h-2v1h-1v3H20z"/>
<path class="st1" d="M20,4V2h2v2H20z"/>
<path class="st0" d="M26,6v1h2V6h1V3h-1V2h-2v1h-1v3H26z"/>
<path class="st1" d="M26,4V2h2v2H26z"/>
<g>
	<path class="st2" d="M9.9,15c5.5-1.6-0.4-4.6,1.6-5.7c1-0.5,2.7-0.5,2,2.3c3.3-2.7,2.4-8.8-1.5-10.9c0.8,0.8,1.4,1.9,1.4,3.2
		c0,2.4-2,4.4-4.4,4.4s-4.4-2-4.4-4.4c0-1.2,0.5-2.2,1.2-3C1.1,3.3,2,9.9,5.1,11.6C4.4,9.8,4.7,8.5,5.7,7.8
		C5.2,13.7,11.8,11.3,9.9,15L9.9,15z"/>
	<path class="st2" d="M10.4,14.6c0.1-0.5,0.2-0.9,0-1.2c-0.2-0.6-0.9-0.9-1.7-1.3c-1.4-0.6-3.1-1.3-2.8-4.4V7.3
		c0.8,0.7,1.9,1.1,3,1.1c2.5,0,4.6-2.1,4.6-4.6c0-0.7-0.2-1.5-0.5-2.1c1.2,1.1,2,2.7,2.1,4.5c0.3,1.9-0.2,3.6-1.2,4.8
		c0.1-0.8,0-1.3-0.3-1.7C13.4,9,13,8.8,12.5,8.8c-0.4,0-0.7,0.1-1.1,0.3c-0.3,0.2-0.5,0.4-0.5,0.6c-0.2,0.5,0.1,1.1,0.5,1.7
		c0.4,0.7,0.8,1.4,0.6,2C11.8,13.9,11.3,14.3,10.4,14.6z M4.7,11c-1.2-1-1.9-2.7-1.9-4.6s0.8-3.5,2.1-4.6C4.6,2.5,4.4,3.2,4.4,3.9
		c0,1.3,0.6,2.5,1.5,3.4L5.6,7.5C4.6,8.3,4.3,9.6,4.7,11L4.7,11z M9.9,15c5.5-1.6-0.4-4.6,1.6-5.7c0.3-0.1,0.7-0.2,1-0.2
		c0.8,0,1.5,0.6,1,2.6c3.3-2.8,2.4-8.9-1.5-11c0.8,0.8,1.4,1.9,1.4,3.2c0,2.4-2,4.4-4.4,4.4s-4.4-2-4.4-4.4c0-1.2,0.5-2.2,1.2-3
		C1.1,3.3,2,9.9,5.1,11.6C4.4,9.8,4.7,8.5,5.7,7.8C5.2,13.7,11.8,11.3,9.9,15L9.9,15z"/>
	<path class="st3" d="M9,7.4c1.9,0,3.4-1.5,3.4-3.4S10.9,0.6,9,0.6S5.6,2.1,5.6,4C5.6,5.8,7.1,7.4,9,7.4z M9,1.6
		c1,0,1.9,0.8,1.9,1.9c0,1-0.8,1.9-1.9,1.9c-1,0-1.9-0.8-1.9-1.9S8,1.6,9,1.6z"/>
	<path class="st3" d="M9,0.4c2,0,3.5,1.6,3.5,3.5S11,7.5,9,7.5S5.5,5.9,5.5,4C5.5,2,7,0.4,9,0.4z M9,7.2c1.8,0,3.3-1.5,3.3-3.3
		S10.8,0.6,9,0.6S5.7,2.1,5.7,3.9C5.7,5.8,7.2,7.2,9,7.2z M9,1.5c1.1,0,2,0.9,2,2s-0.9,2-2,2s-2-0.9-2-2S7.9,1.5,9,1.5z M9,5.2
		c1,0,1.7-0.8,1.7-1.8S10,1.7,9,1.7S7.2,2.5,7.2,3.4C7.3,4.4,8,5.2,9,5.2z"/>
</g>
<path class="st3" d="M21.8,7.6c1.9,0,3.4-1.5,3.4-3.4s-1.5-3.4-3.4-3.4s-3.4,1.5-3.4,3.4C18.4,6,19.9,7.6,21.8,7.6z M21.8,1.8
	c1,0,1.9,0.8,1.9,1.9c0,1-0.8,1.9-1.9,1.9c-1,0-1.9-0.8-1.9-1.9S20.8,1.8,21.8,1.8z"/>
<path class="st3" d="M24.8,0.6c2,0,3.5,1.6,3.5,3.5s-1.5,3.6-3.5,3.6s-3.5-1.6-3.5-3.5C21.3,2.2,22.8,0.6,24.8,0.6z M24.8,7.4
	c1.8,0,3.3-1.5,3.3-3.3s-1.5-3.3-3.3-3.3c-1.8,0-3.3,1.5-3.3,3.3C21.5,6,23,7.4,24.8,7.4z M24.8,1.7c1.1,0,2,0.9,2,2s-0.9,2-2,2
	c-1.1,0-2-0.9-2-2S23.7,1.7,24.8,1.7z M24.8,5.4c1,0,1.7-0.8,1.7-1.8s-0.7-1.7-1.7-1.7S23,2.7,23,3.6C23.1,4.6,23.8,5.4,24.8,5.4z"
	/>
</svg>
