<?xml version="1.0" encoding="utf-8"?>
<!-- Generator: Adobe Illustrator 27.8.1, SVG Export Plug-In . SVG Version: 6.00 Build 0)  -->
<svg version="1.1" id="Calque_1" xmlns="http://www.w3.org/2000/svg" xmlns:xlink="http://www.w3.org/1999/xlink" x="0px" y="0px"
	 viewBox="0 0 32 16" style="enable-background:new 0 0 32 16;" xml:space="preserve">
<style type="text/css">
	.st0{display:none;fill:#E0DDFF;}
	.st1{display:none;fill:#2121FF;}
	.st2{display:none;fill:#FFFFFF;}
	.st3{fill:#FFFFFF;}
</style>
<path class="st0" d="M4,6v1h2V6h1V3H6V2H4v1H3v3H4z"/>
<path class="st1" d="M4,4V2h2v2H4z"/>
<path class="st0" d="M10,6v1h2V6h1V3h-1V2h-2v1H9v3H10z"/>
<path class="st1" d="M10,4V2h2v2H10z"/>
<path class="st0" d="M20,6v1h2V6h1V3h-1V2h-2v1h-1v3H20z"/>
<path class="st1" d="M20,4V2h2v2H20z"/>
<path class="st0" d="M26,6v1h2V6h1V3h-1V2h-2v1h-1v3H26z"/>
<path class="st1" d="M26,4V2h2v2H26z"/>
<g>
	<path class="st2" d="M8.1,0.4C2.6,2,8.5,5,6.5,6.1c-1,0.5-2.7,0.5-2-2.3C1.2,6.5,2.1,12.6,6,14.7c-0.8-0.8-1.4-1.9-1.4-3.2
		c0-2.4,2-4.4,4.4-4.4s4.4,2,4.4,4.4c0,1.2-0.5,2.2-1.2,3c4.7-2.4,3.8-9,0.7-10.7c0.7,1.8,0.4,3.1-0.6,3.8C12.8,1.7,6.2,4.1,8.1,0.4
		L8.1,0.4z"/>
	<path class="st2" d="M7.6,0.8C7.5,1.3,7.4,1.7,7.6,2c0.2,0.6,0.9,0.9,1.7,1.3c1.4,0.6,3.1,1.3,2.8,4.4v0.4C11.3,7.4,10.2,7,9.1,7
		c-2.5,0-4.6,2.1-4.6,4.6c0,0.7,0.2,1.5,0.5,2.1C3.8,12.6,3,11,2.9,9.2C2.6,7.3,3.1,5.6,4.1,4.4C4,5.2,4.1,5.7,4.4,6.1
		C4.6,6.4,5,6.6,5.5,6.6c0.4,0,0.7-0.1,1.1-0.3c0.3-0.2,0.5-0.4,0.5-0.6C7.3,5.2,7,4.6,6.6,4C6.2,3.3,5.8,2.6,6,2
		C6.2,1.5,6.7,1.1,7.6,0.8z M13.3,4.4c1.2,1,1.9,2.7,1.9,4.6s-0.8,3.5-2.1,4.6c0.3-0.7,0.5-1.4,0.5-2.1c0-1.3-0.6-2.5-1.5-3.4
		l0.3-0.2C13.4,7.1,13.7,5.8,13.3,4.4L13.3,4.4z M8.1,0.4C2.6,2,8.5,5,6.5,6.1c-0.3,0.1-0.7,0.2-1,0.2c-0.8,0-1.5-0.6-1-2.6
		c-3.3,2.8-2.4,8.9,1.5,11c-0.8-0.8-1.4-1.9-1.4-3.2c0-2.4,2-4.4,4.4-4.4s4.4,2,4.4,4.4c0,1.2-0.5,2.2-1.2,3c4.7-2.4,3.8-9,0.7-10.7
		c0.7,1.8,0.4,3.1-0.6,3.8C12.8,1.7,6.2,4.1,8.1,0.4L8.1,0.4z"/>
	<path class="st3" d="M9,8c-1.9,0-3.4,1.5-3.4,3.4s1.5,3.4,3.4,3.4s3.4-1.5,3.4-3.4C12.4,9.6,10.9,8,9,8z M9,13.8
		c-1,0-1.9-0.8-1.9-1.9c0-1,0.8-1.9,1.9-1.9c1,0,1.9,0.8,1.9,1.9S10,13.8,9,13.8z"/>
	<path class="st3" d="M9,15c-2,0-3.5-1.6-3.5-3.5S7,7.9,9,7.9s3.5,1.6,3.5,3.5C12.5,13.4,11,15,9,15z M9,8.2c-1.8,0-3.3,1.5-3.3,3.3
		s1.5,3.3,3.3,3.3s3.3-1.5,3.3-3.3C12.3,9.6,10.8,8.2,9,8.2z M9,13.9c-1.1,0-2-0.9-2-2s0.9-2,2-2s2,0.9,2,2S10.1,13.9,9,13.9z
		 M9,10.2c-1,0-1.7,0.8-1.7,1.8S8,13.7,9,13.7s1.8-0.8,1.8-1.7C10.7,11,10,10.2,9,10.2z"/>
</g>
<path class="st3" d="M21.8,7.6c1.9,0,3.4-1.5,3.4-3.4s-1.5-3.4-3.4-3.4s-3.4,1.5-3.4,3.4C18.4,6,19.9,7.6,21.8,7.6z M21.8,1.8
	c1,0,1.9,0.8,1.9,1.9c0,1-0.8,1.9-1.9,1.9c-1,0-1.9-0.8-1.9-1.9S20.8,1.8,21.8,1.8z"/>
<path class="st3" d="M22,15c-2,0-3.5-1.6-3.5-3.5S20,7.9,22,7.9s3.5,1.6,3.5,3.5C25.5,13.4,24,15,22,15z M22,8.2
	c-1.8,0-3.3,1.5-3.3,3.3s1.5,3.3,3.3,3.3c1.8,0,3.3-1.5,3.3-3.3C25.3,9.6,23.8,8.2,22,8.2z M22,13.9c-1.1,0-2-0.9-2-2s0.9-2,2-2
	s2,0.9,2,2S23.1,13.9,22,13.9z M22,10.2c-1,0-1.7,0.8-1.7,1.8s0.7,1.7,1.7,1.7s1.8-0.8,1.8-1.7C23.7,11,23,10.2,22,10.2z"/>
</svg>
