<?xml version="1.0" encoding="utf-8"?>
<!-- Generator: Adobe Illustrator 27.8.1, SVG Export Plug-In . SVG Version: 6.00 Build 0)  -->
<svg version="1.1" id="Calque_1" xmlns="http://www.w3.org/2000/svg" xmlns:xlink="http://www.w3.org/1999/xlink" x="0px" y="0px"
	 viewBox="0 0 32 16" style="enable-background:new 0 0 32 16;" xml:space="preserve">
<style type="text/css">
	.st0{display:none;fill:#E0DDFF;}
	.st1{display:none;fill:#2121FF;}
	.st2{display:none;fill:#FFFFFF;}
	.st3{fill:#FFFFFF;}
</style>
<path class="st0" d="M4,6v1h2V6h1V3H6V2H4v1H3v3H4z"/>
<path class="st1" d="M4,4V2h2v2H4z"/>
<path class="st0" d="M10,6v1h2V6h1V3h-1V2h-2v1H9v3H10z"/>
<path class="st1" d="M10,4V2h2v2H10z"/>
<path class="st0" d="M20,6v1h2V6h1V3h-1V2h-2v1h-1v3H20z"/>
<path class="st1" d="M20,4V2h2v2H20z"/>
<path class="st0" d="M26,6v1h2V6h1V3h-1V2h-2v1h-1v3H26z"/>
<path class="st1" d="M26,4V2h2v2H26z"/>
<g>
	<path class="st2" d="M16.3,6.8c-1.6-5.5-4.6,0.4-5.7-1.6c-0.5-1-0.5-2.7,2.3-2C10.2-0.1,4.1,0.8,2,4.7c0.8-0.8,1.9-1.4,3.2-1.4
		c2.4,0,4.4,2,4.4,4.4s-2,4.4-4.4,4.4c-1.2,0-2.2-0.5-3-1.2c2.4,4.7,9,3.8,10.7,0.7C11.1,12.3,9.8,12,9.1,11
		C15,11.5,12.6,4.9,16.3,6.8L16.3,6.8z"/>
	<path class="st2" d="M15.9,6.3c-0.5-0.1-0.9-0.2-1.2,0c-0.6,0.2-0.9,0.9-1.3,1.7c-0.6,1.4-1.3,3.1-4.4,2.8H8.6
		c0.7-0.8,1.1-1.9,1.1-3c0-2.5-2.1-4.6-4.6-4.6C4.4,3.2,3.6,3.4,3,3.7c1.1-1.2,2.7-2,4.5-2.1c1.9-0.3,3.6,0.2,4.8,1.2
		c-0.8-0.1-1.3,0-1.7,0.3c-0.3,0.2-0.5,0.6-0.5,1.1c0,0.4,0.1,0.7,0.3,1.1c0.2,0.3,0.4,0.5,0.6,0.5c0.5,0.2,1.1-0.1,1.7-0.5
		c0.7-0.4,1.4-0.8,2-0.6C15.2,4.9,15.6,5.4,15.9,6.3z M12.3,12c-1,1.2-2.7,1.9-4.6,1.9s-3.5-0.8-4.6-2.1c0.7,0.3,1.4,0.5,2.1,0.5
		c1.3,0,2.5-0.6,3.4-1.5l0.2,0.3C9.6,12.1,10.9,12.4,12.3,12L12.3,12z M16.3,6.8c-1.6-5.5-4.6,0.4-5.7-1.6c-0.1-0.3-0.2-0.7-0.2-1
		c0-0.8,0.6-1.5,2.6-1C10.2-0.1,4.1,0.8,2,4.7c0.8-0.8,1.9-1.4,3.2-1.4c2.4,0,4.4,2,4.4,4.4s-2,4.4-4.4,4.4c-1.2,0-2.2-0.5-3-1.2
		c2.4,4.7,9,3.8,10.7,0.7C11.1,12.3,9.8,12,9.1,11C15,11.5,12.6,4.9,16.3,6.8L16.3,6.8z"/>
	<path class="st3" d="M8.7,7.7c0-1.9-1.5-3.4-3.4-3.4S1.9,5.8,1.9,7.7s1.5,3.4,3.4,3.4C7.1,11.1,8.7,9.6,8.7,7.7z M2.9,7.7
		c0-1,0.8-1.9,1.9-1.9c1,0,1.9,0.8,1.9,1.9c0,1-0.8,1.9-1.9,1.9S2.9,8.7,2.9,7.7z"/>
	<path class="st3" d="M1.7,7.7c0-2,1.6-3.5,3.5-3.5s3.6,1.5,3.6,3.5s-1.6,3.5-3.5,3.5C3.3,11.2,1.7,9.7,1.7,7.7z M8.5,7.7
		c0-1.8-1.5-3.3-3.3-3.3S1.9,5.9,1.9,7.7S3.4,11,5.2,11C7.1,11,8.5,9.5,8.5,7.7z M2.8,7.7c0-1.1,0.9-2,2-2s2,0.9,2,2s-0.9,2-2,2
		S2.8,8.8,2.8,7.7z M6.5,7.7c0-1-0.8-1.7-1.8-1.7S3,6.7,3,7.7c0,1,0.8,1.8,1.7,1.8C5.7,9.4,6.5,8.7,6.5,7.7z"/>
</g>
<path class="st3" d="M21.8,7.6c1.9,0,3.4-1.5,3.4-3.4s-1.5-3.4-3.4-3.4s-3.4,1.5-3.4,3.4C18.4,6,19.9,7.6,21.8,7.6z M21.8,1.8
	c1,0,1.9,0.8,1.9,1.9c0,1-0.8,1.9-1.9,1.9c-1,0-1.9-0.8-1.9-1.9S20.8,1.8,21.8,1.8z"/>
<path class="st3" d="M18.4,8.5c0-2,1.6-3.5,3.5-3.5s3.6,1.5,3.6,3.5S23.9,12,22,12C20,12,18.4,10.5,18.4,8.5z M25.2,8.5
	c0-1.8-1.5-3.3-3.3-3.3c-1.8,0-3.3,1.5-3.3,3.3s1.5,3.3,3.3,3.3C23.8,11.8,25.2,10.3,25.2,8.5z M19.5,8.5c0-1.1,0.9-2,2-2s2,0.9,2,2
	s-0.9,2-2,2S19.5,9.6,19.5,8.5z M23.2,8.5c0-1-0.8-1.7-1.8-1.7s-1.7,0.7-1.7,1.7s0.8,1.8,1.7,1.8C22.4,10.2,23.2,9.5,23.2,8.5z"/>
</svg>
