<?xml version="1.0" encoding="utf-8"?>
<!-- Generator: Adobe Illustrator 27.8.1, SVG Export Plug-In . SVG Version: 6.00 Build 0)  -->
<svg version="1.1" id="Calque_1" xmlns="http://www.w3.org/2000/svg" xmlns:xlink="http://www.w3.org/1999/xlink" x="0px" y="0px"
	 viewBox="0 0 32 16" style="enable-background:new 0 0 32 16;" xml:space="preserve">
<style type="text/css">
	.st0{display:none;fill:#FF0000;}
	.st1{display:none;fill:#E0DDFF;}
	.st2{display:none;fill:#2121FF;}
	.st3{fill:#3BEABC;}
</style>
<path class="st0" d="M3,3v1H2v3H1v8h1v-1h1v-1h1v1h1v1h2v-2h2v2h2v-1h1v-1h1v1h1v1h1V7h-1V4h-1V3h-1V2h-2V1H6v1H5H4v1H3z"/>
<path class="st1" d="M8,5v1h2v2H9v1h2V8h1V5h-1V4H9v1H8z"/>
<path class="st2" d="M8,6v2h2V6H8z"/>
<path class="st1" d="M2,5v1h2v2H3v1h2V8h1V5H5V4H3v1H2z"/>
<path class="st2" d="M2,6v2h2V6H2z"/>
<path class="st0" d="M19,3v1h-1v3h-1v7h1v1h2v-1h1v-1h1v1h1v1h2v-1h1v-1h1v1h1v1h2v-1h1V7h-1V4h-1V3h-1V2h-2V1h-4v1h-1h-1v1H19z"/>
<path class="st1" d="M24,5v1h2v2h-1v1h2V8h1V5h-1V4h-2v1H24z"/>
<path class="st2" d="M24,6v2h2V6H24z"/>
<path class="st1" d="M18,5v1h2v2h-1v1h2V8h1V5h-1V4h-2v1H18z"/>
<path class="st2" d="M18,6v2h2V6H18z"/>
<g>
	<path class="st3" d="M7.1,1.2C1.6,2.8,7.5,5.8,5.5,6.9c-1,0.5-2.7,0.5-2-2.3C0.2,7.3,1.1,13.4,5,15.5c-0.8-0.8-1.4-1.9-1.4-3.2
		c0-2.4,2-4.4,4.4-4.4s4.4,2,4.4,4.4c0,1.2-0.5,2.2-1.2,3c4.7-2.4,3.8-9,0.7-10.7c0.7,1.8,0.4,3.1-0.6,3.8C11.8,2.5,5.2,4.9,7.1,1.2
		L7.1,1.2z"/>
	<path class="st3" d="M6.6,1.6c-0.1,0.5-0.2,0.9,0,1.2c0.2,0.6,0.9,0.9,1.7,1.3c1.4,0.6,3.1,1.3,2.8,4.4v0.4c-0.8-0.7-1.9-1.1-3-1.1
		c-2.5,0-4.6,2.1-4.6,4.6c0,0.7,0.2,1.5,0.5,2.1c-1.2-1.1-2-2.7-2.1-4.5C1.6,8.1,2.1,6.4,3.1,5.2C3,6,3.1,6.5,3.4,6.9
		C3.6,7.2,4,7.4,4.5,7.4c0.4,0,0.7-0.1,1.1-0.3c0.3-0.2,0.5-0.4,0.5-0.6C6.3,6,6,5.4,5.6,4.8C5.2,4.1,4.8,3.4,5,2.8
		C5.2,2.3,5.7,1.9,6.6,1.6z M12.3,5.2c1.2,1,1.9,2.7,1.9,4.6s-0.8,3.5-2.1,4.6c0.3-0.7,0.5-1.4,0.5-2.1c0-1.3-0.6-2.5-1.5-3.4
		l0.3-0.2C12.4,7.9,12.7,6.6,12.3,5.2L12.3,5.2z M7.1,1.2C1.6,2.8,7.5,5.8,5.5,6.9C5.2,7,4.8,7.1,4.5,7.1c-0.8,0-1.5-0.6-1-2.6
		c-3.3,2.8-2.4,8.9,1.5,11c-0.8-0.8-1.4-1.9-1.4-3.2c0-2.4,2-4.4,4.4-4.4s4.4,2,4.4,4.4c0,1.2-0.5,2.2-1.2,3c4.7-2.4,3.8-9,0.7-10.7
		c0.7,1.8,0.4,3.1-0.6,3.8C11.8,2.5,5.2,4.9,7.1,1.2L7.1,1.2z"/>
	<path class="st3" d="M8,8.8c-1.9,0-3.4,1.5-3.4,3.4s1.5,3.4,3.4,3.4s3.4-1.5,3.4-3.4C11.4,10.4,9.9,8.8,8,8.8z M8,14.6
		c-1,0-1.9-0.8-1.9-1.9c0-1,0.8-1.9,1.9-1.9c1,0,1.9,0.8,1.9,1.9S9,14.6,8,14.6z"/>
	<path class="st3" d="M8,15.8c-2,0-3.5-1.6-3.5-3.5S6,8.7,8,8.7s3.5,1.6,3.5,3.5C11.5,14.2,10,15.8,8,15.8z M8,9
		c-1.8,0-3.3,1.5-3.3,3.3s1.5,3.3,3.3,3.3s3.3-1.5,3.3-3.3C11.3,10.4,9.8,9,8,9z M8,14.7c-1.1,0-2-0.9-2-2s0.9-2,2-2s2,0.9,2,2
		S9.1,14.7,8,14.7z M8,11c-1,0-1.7,0.8-1.7,1.8S7,14.5,8,14.5s1.8-0.8,1.8-1.7C9.7,11.8,9,11,8,11z"/>
</g>
<g>
	<path class="st3" d="M22.1,1.1c-5.4,1.5,0.4,4.5-1.6,5.6c-1,0.5-2.7,0.5-2-2.3c-3.3,2.7-2.4,8.9,1.5,10.9c-0.8-0.8-1.4-1.9-1.4-3.2
		c0-2.4,2-4.4,4.4-4.4s4.4,2,4.4,4.4c0,1.2-0.5,2.2-1.2,3c4.7-2.4,3.8-9,0.7-10.7c0.7,1.8,0.4,3.1-0.6,3.8
		C26.8,2.4,20.2,4.8,22.1,1.1L22.1,1.1z"/>
	<path class="st3" d="M21.6,1.5c-0.2,0.5-0.2,0.8-0.1,1.2c0.2,0.6,0.9,0.9,1.7,1.3c1.4,0.6,3.1,1.3,2.8,4.4v0.4
		c-0.8-0.7-1.9-1.1-3-1.1c-2.5,0-4.6,2.1-4.6,4.6c0,0.7,0.2,1.5,0.5,2.1c-1.2-1.1-2-2.7-2.1-4.5c-0.2-1.8,0.3-3.5,1.4-4.7
		c-0.1,0.7,0,1.3,0.3,1.7c0.2,0.3,0.6,0.5,1.1,0.5c0.4,0,0.7-0.1,1.1-0.3c0.3-0.2,0.5-0.4,0.5-0.6C21.3,6,21,5.4,20.6,4.8
		c-0.4-0.7-0.8-1.4-0.6-2C20.2,2.2,20.7,1.8,21.6,1.5z M27.3,5.1c1.2,1,1.9,2.7,1.9,4.6s-0.8,3.5-2.1,4.6c0.3-0.7,0.5-1.4,0.5-2.1
		c0-1.3-0.6-2.5-1.5-3.4l0.3-0.2C27.4,7.8,27.7,6.5,27.3,5.1L27.3,5.1z M22.1,1.1c-5.4,1.5,0.4,4.5-1.6,5.6c-0.3,0.2-0.7,0.3-1,0.3
		c-0.8,0-1.5-0.6-1-2.6c-3.3,2.7-2.4,8.9,1.5,10.9c-0.8-0.8-1.4-1.9-1.4-3.2c0-2.4,2-4.4,4.4-4.4s4.4,2,4.4,4.4c0,1.2-0.5,2.2-1.2,3
		c4.7-2.4,3.8-9,0.7-10.7c0.7,1.8,0.4,3.1-0.6,3.8C26.8,2.4,20.2,4.8,22.1,1.1L22.1,1.1z"/>
	<path class="st3" d="M23,8.7c-1.9,0-3.4,1.5-3.4,3.4s1.5,3.4,3.4,3.4c1.9,0,3.4-1.5,3.4-3.4C26.4,10.3,24.9,8.7,23,8.7z M23,14.5
		c-1,0-1.9-0.8-1.9-1.9c0-1,0.8-1.9,1.9-1.9c1,0,1.9,0.8,1.9,1.9C24.9,13.7,24,14.5,23,14.5z"/>
	<path class="st3" d="M23,15.7c-2,0-3.5-1.6-3.5-3.5c0-2,1.6-3.5,3.5-3.5c2,0,3.5,1.6,3.5,3.5S25,15.7,23,15.7z M23,8.8
		c-1.8,0-3.3,1.5-3.3,3.3s1.5,3.3,3.3,3.3c1.8,0,3.3-1.5,3.3-3.3S24.8,8.8,23,8.8z M23,14.6c-1.1,0-2-0.9-2-2s0.9-2,2-2s2,0.9,2,2
		S24.1,14.6,23,14.6z M23,10.9c-1,0-1.7,0.8-1.7,1.8s0.8,1.7,1.7,1.7c1,0,1.8-0.8,1.8-1.7S24,10.9,23,10.9z"/>
</g>
</svg>
