<?xml version="1.0" encoding="utf-8"?>
<!-- Generator: Adobe Illustrator 27.8.1, SVG Export Plug-In . SVG Version: 6.00 Build 0)  -->
<svg version="1.1" id="Calque_1" xmlns="http://www.w3.org/2000/svg" xmlns:xlink="http://www.w3.org/1999/xlink" x="0px" y="0px"
	 viewBox="0 0 32 16" style="enable-background:new 0 0 32 16;" xml:space="preserve">
<style type="text/css">
	.st0{display:none;fill:#FF0000;}
	.st1{display:none;fill:#E0DDFF;}
	.st2{display:none;fill:#2121FF;}
	.st3{fill:#3BEABC;}
</style>
<path class="st0" d="M3,3v1H2v3H1v8h1v-1h1v-1h1v1h1v1h2v-2h2v2h2v-1h1v-1h1v1h1v1h1V7h-1V4h-1V3h-1V2h-2V1H6v1H5H4v1H3z"/>
<path class="st1" d="M8,5v1h2v2H9v1h2V8h1V5h-1V4H9v1H8z"/>
<path class="st2" d="M8,6v2h2V6H8z"/>
<path class="st1" d="M2,5v1h2v2H3v1h2V8h1V5H5V4H3v1H2z"/>
<path class="st2" d="M2,6v2h2V6H2z"/>
<path class="st0" d="M19,3v1h-1v3h-1v7h1v1h2v-1h1v-1h1v1h1v1h2v-1h1v-1h1v1h1v1h2v-1h1V7h-1V4h-1V3h-1V2h-2V1h-4v1h-1h-1v1H19z"/>
<path class="st1" d="M24,5v1h2v2h-1v1h2V8h1V5h-1V4h-2v1H24z"/>
<path class="st2" d="M24,6v2h2V6H24z"/>
<path class="st1" d="M18,5v1h2v2h-1v1h2V8h1V5h-1V4h-2v1H18z"/>
<path class="st2" d="M18,6v2h2V6H18z"/>
<g>
	<path class="st3" d="M15.3,7.6C13.7,2.1,10.7,8,9.6,6c-0.5-1-0.5-2.7,2.3-2C9.2,0.7,3.1,1.6,1,5.5c0.8-0.8,1.9-1.4,3.2-1.4
		c2.4,0,4.4,2,4.4,4.4s-2,4.4-4.4,4.4c-1.2,0-2.2-0.5-3-1.2c2.4,4.7,9,3.8,10.7,0.7c-1.8,0.7-3.1,0.4-3.8-0.6
		C14,12.3,11.6,5.7,15.3,7.6L15.3,7.6z"/>
	<path class="st3" d="M14.9,7.1c-0.5-0.1-0.9-0.2-1.2,0c-0.6,0.2-0.9,0.9-1.3,1.7c-0.6,1.4-1.3,3.1-4.4,2.8H7.6
		c0.7-0.8,1.1-1.9,1.1-3C8.7,6.1,6.6,4,4.1,4C3.4,4,2.6,4.2,2,4.5c1.1-1.2,2.7-2,4.5-2.1c1.9-0.3,3.6,0.2,4.8,1.2
		c-0.8-0.1-1.3,0-1.7,0.3C9.3,4.1,9.1,4.5,9.1,5c0,0.4,0.1,0.7,0.3,1.1C9.6,6.4,9.8,6.6,10,6.6c0.5,0.2,1.1-0.1,1.7-0.5
		c0.7-0.4,1.4-0.8,2-0.6C14.2,5.7,14.6,6.2,14.9,7.1z M11.3,12.8c-1,1.2-2.7,1.9-4.6,1.9s-3.5-0.8-4.6-2.1c0.7,0.3,1.4,0.5,2.1,0.5
		c1.3,0,2.5-0.6,3.4-1.5l0.2,0.3C8.6,12.9,9.9,13.2,11.3,12.8L11.3,12.8z M15.3,7.6C13.7,2.1,10.7,8,9.6,6C9.5,5.7,9.4,5.3,9.4,5
		c0-0.8,0.6-1.5,2.6-1C9.2,0.7,3.1,1.6,1,5.5c0.8-0.8,1.9-1.4,3.2-1.4c2.4,0,4.4,2,4.4,4.4s-2,4.4-4.4,4.4c-1.2,0-2.2-0.5-3-1.2
		c2.4,4.7,9,3.8,10.7,0.7c-1.8,0.7-3.1,0.4-3.8-0.6C14,12.3,11.6,5.7,15.3,7.6L15.3,7.6z"/>
	<path class="st3" d="M7.7,8.5c0-1.9-1.5-3.4-3.4-3.4S0.9,6.6,0.9,8.5s1.5,3.4,3.4,3.4C6.1,11.9,7.7,10.4,7.7,8.5z M1.9,8.5
		c0-1,0.8-1.9,1.9-1.9c1,0,1.9,0.8,1.9,1.9c0,1-0.8,1.9-1.9,1.9S1.9,9.5,1.9,8.5z"/>
	<path class="st3" d="M0.7,8.5c0-2,1.6-3.5,3.5-3.5s3.6,1.5,3.6,3.5S6.2,12,4.3,12C2.3,12,0.7,10.5,0.7,8.5z M7.5,8.5
		c0-1.8-1.5-3.3-3.3-3.3S0.9,6.7,0.9,8.5s1.5,3.3,3.3,3.3C6.1,11.8,7.5,10.3,7.5,8.5z M1.8,8.5c0-1.1,0.9-2,2-2s2,0.9,2,2
		s-0.9,2-2,2S1.8,9.6,1.8,8.5z M5.5,8.5c0-1-0.8-1.7-1.8-1.7S2,7.5,2,8.5s0.8,1.8,1.7,1.8C4.7,10.2,5.5,9.5,5.5,8.5z"/>
</g>
<g>
	<path class="st3" d="M30.3,7.5c-1.5-5.4-4.5,0.4-5.6-1.6c-0.5-1-0.5-2.7,2.3-2c-2.7-3.3-8.9-2.4-10.9,1.5C16.9,4.6,18,4,19.3,4
		c2.4,0,4.4,2,4.4,4.4s-2,4.4-4.4,4.4c-1.2,0-2.2-0.5-3-1.2c2.4,4.7,9,3.8,10.7,0.7c-1.8,0.7-3.1,0.4-3.8-0.6
		C29,12.2,26.6,5.6,30.3,7.5L30.3,7.5z"/>
	<path class="st3" d="M29.9,7c-0.5-0.2-0.8-0.2-1.2-0.1c-0.6,0.2-0.9,0.9-1.3,1.7c-0.6,1.4-1.3,3.1-4.4,2.8h-0.4
		c0.7-0.8,1.1-1.9,1.1-3c0-2.5-2.1-4.6-4.6-4.6c-0.7,0-1.5,0.2-2.1,0.5c1.1-1.2,2.7-2,4.5-2.1C23.3,2,25,2.5,26.2,3.6
		c-0.7-0.1-1.3,0-1.7,0.3C24.2,4.1,24,4.5,24,5c0,0.4,0.1,0.7,0.3,1.1c0.2,0.3,0.4,0.5,0.6,0.5C25.4,6.7,26,6.4,26.6,6
		c0.7-0.4,1.4-0.8,2-0.6C29.2,5.6,29.6,6.1,29.9,7z M26.3,12.7c-1,1.2-2.7,1.9-4.6,1.9s-3.5-0.8-4.6-2.1c0.7,0.3,1.4,0.5,2.1,0.5
		c1.3,0,2.5-0.6,3.4-1.5l0.2,0.3C23.6,12.8,24.9,13.1,26.3,12.7L26.3,12.7z M30.3,7.5c-1.5-5.4-4.5,0.4-5.6-1.6
		c-0.2-0.3-0.3-0.7-0.3-1c0-0.8,0.6-1.5,2.6-1c-2.7-3.3-8.9-2.4-10.9,1.5C16.9,4.6,18,4,19.3,4c2.4,0,4.4,2,4.4,4.4s-2,4.4-4.4,4.4
		c-1.2,0-2.2-0.5-3-1.2c2.4,4.7,9,3.8,10.7,0.7c-1.8,0.7-3.1,0.4-3.8-0.6C29,12.2,26.6,5.6,30.3,7.5L30.3,7.5z"/>
	<path class="st3" d="M22.7,8.4c0-1.9-1.5-3.4-3.4-3.4s-3.4,1.5-3.4,3.4s1.5,3.4,3.4,3.4C21.1,11.8,22.7,10.3,22.7,8.4z M16.9,8.4
		c0-1,0.8-1.9,1.9-1.9c1,0,1.9,0.8,1.9,1.9c0,1-0.8,1.9-1.9,1.9C17.7,10.3,16.9,9.4,16.9,8.4z"/>
	<path class="st3" d="M15.7,8.4c0-2,1.6-3.5,3.5-3.5c2,0,3.5,1.6,3.5,3.5c0,2-1.6,3.5-3.5,3.5S15.7,10.4,15.7,8.4z M22.6,8.4
		c0-1.8-1.5-3.3-3.3-3.3c-1.8,0-3.3,1.5-3.3,3.3s1.5,3.3,3.3,3.3C21.1,11.7,22.6,10.2,22.6,8.4z M16.8,8.4c0-1.1,0.9-2,2-2
		s2,0.9,2,2s-0.9,2-2,2S16.8,9.5,16.8,8.4z M20.5,8.4c0-1-0.8-1.7-1.8-1.7S17,7.5,17,8.4c0,1,0.8,1.8,1.7,1.8S20.5,9.4,20.5,8.4z"/>
</g>
</svg>
