<?xml version="1.0" encoding="utf-8"?>
<!-- Generator: Adobe Illustrator 27.8.1, SVG Export Plug-In . SVG Version: 6.00 Build 0)  -->
<svg version="1.1" id="Calque_1" xmlns="http://www.w3.org/2000/svg" xmlns:xlink="http://www.w3.org/1999/xlink" x="0px" y="0px"
	 viewBox="0 0 192 16" style="enable-background:new 0 0 192 16;" xml:space="preserve">
<style type="text/css">
	.st0{display:none;fill:#FFFF00;}
	.st1{fill:#FF0049;}
	.st2{fill:#FFFFFF;}
	.st3{fill:#7A00F9;}
	.st4{fill:#3BEABC;}
</style>
<path class="st0" d="M97,12v2h1v1h4v-1h1v-1h1v1h1v1h4v-1h1v-2h-2v-1h-1v-1h-2V9h-1V8h-1v1h-1v1h-2v1h-1v1H97z"/>
<path class="st0" d="M115,13v1h1v1h3v-1h1v1h3v-1h1v-1h-1v-1h-1v-2h-1V9h-1V8h-1v1h-1v1h-1v2h-1v1H115z"/>
<path class="st0" d="M133,13v1h1v1h1v-1h1v1h1v-1h1v-1h-1v-3h-1V8h-1v2h-1v3H133z"/>
<path class="st0" d="M152,8h-1v6h1V8z"/>
<path class="st0" d="M3,3H1v5h1v2h1v1h2v1h5v-1h2v-1h1V8h1V3h-2v1h-1v1h-1v1H9v1H8v1H7V7H6V6H5V5H4V4H3V3z"/>
<path class="st0" d="M17,5h-1v3h1v2h1v1h2v1h3v-1h1v1h3v-1h2v-1h1V8h1V5h-1V4h-1v1h-2v1h-1v1h-2v1h-1V7h-2V6h-1V5h-2V4h-1V5z"/>
<path class="st0" d="M32,6v3h1v1h1v1h2v1h3v-1h1v1h3v-1h2v-1h1V9h1V6h-3v1h-3v1h-3V7h-3V6H32z"/>
<path class="st0" d="M52,7h-4v3h1v1h2v1h4v-1h1v1h4v-1h2v-1h1V7h-4v1h-7V7z"/>
<path class="st0" d="M68,9h-4v2h1v1h2v1h4v-1h1v1h4v-1h2v-1h1V9h-4V8h-7V9z"/>
<path class="st0" d="M81,11h-1v1h1v1h2v1h3v-1h1v-1h1v1h1v1h3v-1h2v-1h1v-1h-1v-1h-3V9h-2V8h-3v1h-2v1h-3V11z"/>
<path class="st1" d="M173,11h-2v1h2V11z"/>
<path class="st1" d="M164,10h-2v1h2V10z"/>
<path class="st1" d="M163,8V7h1v1h1v1h-1V8H163z"/>
<path class="st1" d="M168,15v-1h1v1h1v1h-1v-1H168z"/>
<path class="st1" d="M168,8V7h1V6h1v1h-1v1H168z"/>
<path class="st1" d="M163,14v-1h1v-1h1v1h-1v1H163z"/>
<path class="st1" d="M165,16v-1h1v-1h1v1h-1v1H165z"/>
<path class="st1" d="M170,10V9h1V8h1v1h-1v1H170z"/>
<path class="st1" d="M165,7V6h1v1h1v1h-1V7H165z"/>
<path class="st1" d="M170,14v-1h1v1h1v1h-1v-1H170z"/>
<g>
	<g id="Avatar_00000135661716230293303640000005838447866989661874_">
	</g>
	<g id="Moodboard_00000034058026597393455860000000305899018910287497_">
	</g>
	<g id="Logos_00000132795391632235171470000007667959199770338718_">
		<circle class="st1" cx="7.1" cy="7.5" r="6.8"/>
		<g>
			<g>
				<path class="st2" d="M9.9,9.9C9.9,9.9,9.8,9.9,9.9,9.9H4.5c-0.6,0-1.1-0.3-1.3-0.8C2.8,8.7,2.7,8.1,2.7,7.4
					C2.6,7.3,2.4,7.1,2.2,7C1.8,6.7,1.7,6.1,1.9,5.6v0C2.6,4,3,3.4,3.4,3.4C3.7,3.4,4,3.7,4,4v0.1l0,0c-0.4,0.9-0.6,2-0.7,3
					c2.4,1.5,4.8,1.5,7.5,0.1c0-1.1-0.3-2.3-0.5-3.1l0,0v0c0-0.3,0.3-0.6,0.6-0.6c0.4,0,0.6,0.5,1.1,1.6c0.1,0.2,0.1,0.3,0.2,0.4
					c0.3,0.6,0.1,1.4-0.5,1.7l0,0c-0.1,0.1-0.3,0.2-0.4,0.3c0,0.8-0.1,1.6-0.5,2C10.6,9.8,10.3,9.9,9.9,9.9z M4.5,9.4h5.3
					c0.3,0,0.4-0.1,0.6-0.3c0.2-0.3,0.3-0.8,0.4-1.4c-1.4,0.7-2.7,1-4,1c-1.2,0-2.4-0.4-3.5-1c0,0.5,0.1,0.9,0.3,1.2
					C3.8,9.2,4.1,9.4,4.5,9.4z M10.9,4c0.1,0.3,0.4,1.6,0.4,2.9c0.1,0,0.1-0.1,0.1-0.1l0,0c0.4-0.2,0.4-0.7,0.3-1.1
					c-0.1-0.1-0.1-0.3-0.2-0.5C11.3,4.8,11.1,4.1,10.9,4C10.9,4,10.9,4,10.9,4z M3.4,3.9c-0.3,0.2-0.8,1.4-1,1.8v0
					C2.3,6.1,2.3,6.4,2.6,6.6c0.1,0.1,0.1,0.1,0.2,0.2C2.9,5.5,3.3,4.3,3.4,3.9C3.5,4,3.4,4,3.4,3.9z M3.5,3.9L3.5,3.9z"/>
			</g>
			<g>
				<path class="st2" d="M7.6,12.9H6.5c-0.7,0-1.3-0.6-1.3-1.3v-0.1l1.4-0.9c0.2-0.1,0.4-0.2,0.6-0.2c0.2,0,0.4,0.1,0.6,0.3L9,11.4
					v0.1C9,12.3,8.4,12.9,7.6,12.9z M5.7,11.7c0.1,0.4,0.4,0.7,0.8,0.7h1.1c0.4,0,0.7-0.3,0.8-0.7l-1.1-0.7l0,0
					c-0.1-0.1-0.1-0.1-0.2-0.1c-0.1,0-0.2,0-0.2,0.1l0,0L5.7,11.7z"/>
			</g>
		</g>
	</g>
	<g id="Couleurs_x2B_Typo_00000054234248384367804630000012155430374086238604_">
	</g>
</g>
<g>
	<g id="Avatar_00000024719504978145945340000002167203926863197836_">
	</g>
	<g id="Moodboard_00000052090522060932241440000014866771640697467048_">
	</g>
	<g id="Logos_00000031901561004151541840000017832957316834406545_">
		<circle class="st3" cx="23.1" cy="7.4" r="6.8"/>
		<g>
			<g>
				<path class="st2" d="M25.9,9.8C25.9,9.8,25.9,9.8,25.9,9.8h-5.4c-0.6,0-1.1-0.3-1.3-0.8c-0.3-0.5-0.4-1.1-0.4-1.8
					c-0.2-0.1-0.3-0.2-0.5-0.4c-0.4-0.3-0.6-0.9-0.3-1.5v0c0.7-1.5,1.1-2.1,1.5-2.1c0.3,0,0.6,0.3,0.6,0.6v0.1l0,0
					c-0.4,0.9-0.6,2-0.7,3c2.4,1.5,4.8,1.5,7.5,0.1c0-1.1-0.3-2.3-0.5-3.1l0,0v0c0-0.3,0.3-0.6,0.6-0.6c0.4,0,0.6,0.5,1.1,1.6
					c0.1,0.2,0.1,0.3,0.2,0.4c0.3,0.6,0.1,1.4-0.5,1.7l0,0c-0.1,0.1-0.3,0.2-0.4,0.3c0,0.8-0.1,1.6-0.5,2
					C26.6,9.6,26.3,9.8,25.9,9.8z M20.5,9.3h5.3c0.3,0,0.4-0.1,0.6-0.3c0.2-0.3,0.3-0.8,0.4-1.4c-1.4,0.7-2.7,1-4,1
					c-1.2,0-2.4-0.4-3.5-1c0,0.5,0.1,0.9,0.3,1.2C19.8,9.1,20.1,9.2,20.5,9.3z M26.9,3.8c0.1,0.3,0.4,1.6,0.4,2.9
					c0.1,0,0.1-0.1,0.1-0.1l0,0c0.4-0.2,0.4-0.7,0.3-1.1c-0.1-0.1-0.1-0.3-0.2-0.5C27.4,4.7,27.1,4,26.9,3.8
					C26.9,3.8,26.9,3.8,26.9,3.8z M19.4,3.8c-0.3,0.2-0.8,1.4-1,1.8v0c-0.1,0.3-0.1,0.6,0.2,0.8c0.1,0.1,0.1,0.1,0.2,0.2
					C18.9,5.4,19.4,4.2,19.4,3.8C19.5,3.8,19.5,3.8,19.4,3.8z M19.5,3.8L19.5,3.8z"/>
			</g>
			<g>
				<path class="st2" d="M23.6,12.7h-1.1c-0.7,0-1.3-0.6-1.3-1.3v-0.1l1.4-0.9c0.2-0.1,0.4-0.2,0.6-0.2c0.2,0,0.4,0.1,0.6,0.3
					l1.3,0.8v0.1C25,12.1,24.4,12.7,23.6,12.7z M21.7,11.5c0.1,0.4,0.4,0.7,0.8,0.7h1.1c0.4,0,0.7-0.3,0.8-0.7l-1.1-0.7l0,0
					c-0.1-0.1-0.1-0.1-0.2-0.1c-0.1,0-0.2,0-0.2,0.1l0,0L21.7,11.5z"/>
			</g>
		</g>
	</g>
	<g id="Couleurs_x2B_Typo_00000142156074424163042670000006548363632982285214_">
	</g>
</g>
<g>
	<g id="Avatar_00000053532155955167078180000002658252699137071779_">
	</g>
	<g id="Moodboard_00000072277208025595512230000014150961451970524838_">
	</g>
	<g id="Logos_00000129194028128719343240000001959566521581442971_">
		<circle class="st4" cx="39.8" cy="7.8" r="6.8"/>
		<g>
			<g>
				<path class="st2" d="M42.6,10.2C42.6,10.2,42.6,10.2,42.6,10.2h-5.4c-0.6,0-1.1-0.3-1.3-0.8c-0.3-0.5-0.4-1.1-0.4-1.8
					c-0.2-0.1-0.3-0.2-0.5-0.4c-0.4-0.3-0.6-0.9-0.3-1.5v0c0.7-1.5,1.1-2.1,1.5-2.1c0.3,0,0.6,0.3,0.6,0.6v0.1l0,0
					c-0.4,0.9-0.6,2-0.7,3c2.4,1.5,4.8,1.5,7.5,0.1c0-1.1-0.3-2.3-0.5-3.1l0,0v0c0-0.3,0.3-0.6,0.6-0.6c0.4,0,0.6,0.5,1.1,1.6
					c0.1,0.2,0.1,0.3,0.2,0.4c0.3,0.6,0.1,1.4-0.5,1.7l0,0c-0.1,0.1-0.3,0.2-0.4,0.3c0,0.8-0.1,1.6-0.5,2C43.3,10,43,10.2,42.6,10.2
					z M37.2,9.7h5.3c0.3,0,0.4-0.1,0.6-0.3c0.2-0.3,0.3-0.8,0.4-1.4c-1.4,0.7-2.7,1-4,1c-1.2,0-2.4-0.4-3.5-1c0,0.5,0.1,0.9,0.3,1.2
					C36.5,9.4,36.8,9.6,37.2,9.7z M43.6,4.2C43.7,4.5,44,5.8,44,7.1c0.1,0,0.1-0.1,0.1-0.1l0,0c0.4-0.2,0.4-0.7,0.3-1.1
					c-0.1-0.1-0.1-0.3-0.2-0.5C44.1,5.1,43.8,4.4,43.6,4.2C43.6,4.2,43.6,4.2,43.6,4.2z M36.1,4.2c-0.3,0.2-0.8,1.4-1,1.8v0
					c-0.1,0.3-0.1,0.6,0.2,0.8c0.1,0.1,0.1,0.1,0.2,0.2C35.6,5.8,36.1,4.6,36.1,4.2C36.2,4.2,36.2,4.2,36.1,4.2z M36.2,4.2L36.2,4.2
					z"/>
			</g>
			<g>
				<path class="st2" d="M40.3,13.1h-1.1c-0.7,0-1.3-0.6-1.3-1.3v-0.1l1.4-0.9c0.2-0.1,0.4-0.2,0.6-0.2c0.2,0,0.4,0.1,0.6,0.3
					l1.3,0.8v0.1C41.7,12.5,41.1,13.1,40.3,13.1z M38.4,11.9c0.1,0.4,0.4,0.7,0.8,0.7h1.1c0.4,0,0.7-0.3,0.8-0.7l-1.1-0.7l0,0
					c-0.1-0.1-0.1-0.1-0.2-0.1c-0.1,0-0.2,0-0.2,0.1l0,0L38.4,11.9z"/>
			</g>
		</g>
	</g>
	<g id="Couleurs_x2B_Typo_00000031907238259988117050000014640767214419610039_">
	</g>
</g>
<g>
	<g id="Avatar_00000029023013353833110020000015973450689326801582_">
	</g>
	<g id="Moodboard_00000084530754060523030950000001253761238620947610_">
	</g>
	<g id="Logos_00000144316880544213320670000008964710036549700011_">
		<path class="st4" d="M87.5,1.3c3.5,0,6.3,2.8,6.3,6.3s-2.8,6.3-6.3,6.3s-6.3-2.8-6.3-6.3S84,1.3,87.5,1.3 M87.5,0.8
			c-3.7,0-6.8,3.1-6.8,6.8s3.1,6.8,6.8,6.8s6.8-3.1,6.8-6.8S91.3,0.8,87.5,0.8L87.5,0.8z"/>
		<g>
			<g>
				<path class="st4" d="M90.3,9.7C90.3,9.7,90.3,9.7,90.3,9.7h-5.4c-0.6,0-1.1-0.3-1.4-0.8c-0.3-0.5-0.4-1.1-0.4-1.8
					C83,7,82.8,6.9,82.6,6.8c-0.4-0.3-0.6-0.9-0.3-1.5v0c0.7-1.5,1.1-2.2,1.5-2.2c0.3,0,0.6,0.3,0.6,0.6v0.1l0,0
					c-0.4,0.9-0.6,2.1-0.7,3c2.4,1.5,4.8,1.5,7.6,0.1c0-1.1-0.3-2.4-0.5-3.1l0,0v0c0-0.3,0.3-0.6,0.6-0.6c0.4,0,0.6,0.5,1.1,1.6
					c0.1,0.2,0.1,0.3,0.2,0.4c0.3,0.7,0.1,1.4-0.5,1.8l0,0C92,7,91.9,7.1,91.8,7.2c0,0.8-0.1,1.6-0.5,2C91,9.5,90.7,9.7,90.3,9.7z
					 M84.9,9.2h5.4c0.3,0,0.4-0.1,0.6-0.3c0.2-0.3,0.3-0.8,0.4-1.4c-1.4,0.7-2.7,1-4,1c-1.2,0-2.4-0.4-3.6-1.1
					c0,0.5,0.1,0.9,0.3,1.2C84.2,9,84.5,9.1,84.9,9.2z M91.3,3.7c0.1,0.3,0.4,1.6,0.5,2.9c0.1,0,0.1-0.1,0.1-0.1l0,0
					c0.4-0.2,0.4-0.7,0.3-1.1C92.1,5.3,92,5.1,92,5C91.8,4.5,91.5,3.8,91.3,3.7C91.3,3.7,91.3,3.7,91.3,3.7z M83.8,3.7
					c-0.3,0.2-0.8,1.4-1,1.8v0c-0.1,0.3-0.1,0.6,0.2,0.8c0.1,0.1,0.1,0.1,0.2,0.2C83.3,5.3,83.7,4.1,83.8,3.7
					C83.8,3.7,83.8,3.7,83.8,3.7z M83.8,3.7L83.8,3.7z"/>
			</g>
			<g>
				<path class="st4" d="M88,12.7h-1.1c-0.8,0-1.4-0.6-1.4-1.4v-0.1l1.4-0.9c0.2-0.1,0.4-0.2,0.6-0.2c0.2,0,0.4,0.1,0.6,0.3l1.3,0.9
					v0.1C89.4,12,88.8,12.7,88,12.7z M86.1,11.4c0.1,0.4,0.4,0.7,0.8,0.7H88c0.4,0,0.7-0.3,0.8-0.7l-1.1-0.7l0,0
					c-0.1-0.1-0.1-0.1-0.2-0.1s-0.2,0-0.2,0.1l0,0L86.1,11.4z"/>
			</g>
		</g>
	</g>
	<g id="Couleurs_x2B_Typo_00000072997397377562572050000000902755593246123706_">
	</g>
</g>
<g>
	<g id="Avatar_00000027576776159434904140000010076376723917896889_">
	</g>
	<g id="Moodboard_00000127002930655123117520000005003511512708063151_">
	</g>
	<g id="Logos_00000023977338556077109400000002174026943252002697_">
		<path class="st3" d="M71.8,1.1c3.5,0,6.3,2.8,6.3,6.3s-2.8,6.3-6.3,6.3s-6.3-2.8-6.3-6.3S68.4,1.1,71.8,1.1 M71.8,0.5
			c-3.7,0-6.8,3.1-6.8,6.8s3.1,6.8,6.8,6.8s6.8-3.1,6.8-6.8S75.6,0.5,71.8,0.5L71.8,0.5z"/>
		<g>
			<g>
				<path class="st3" d="M74.6,9.5C74.6,9.5,74.6,9.5,74.6,9.5h-5.4c-0.6,0-1.1-0.3-1.4-0.8c-0.3-0.5-0.4-1.1-0.4-1.8
					c-0.2-0.1-0.3-0.2-0.5-0.4c-0.4-0.3-0.6-0.9-0.3-1.5v0c0.7-1.5,1.1-2.2,1.5-2.2c0.3,0,0.6,0.3,0.6,0.6v0.1l0,0
					c-0.4,0.9-0.6,2.1-0.7,3c2.4,1.5,4.8,1.5,7.6,0.1c0-1.1-0.3-2.4-0.5-3.1l0,0v0c0-0.3,0.3-0.6,0.6-0.6c0.4,0,0.6,0.5,1.1,1.6
					C76.8,4.7,76.9,4.9,77,5c0.3,0.7,0.1,1.4-0.5,1.8l0,0c-0.1,0.1-0.3,0.2-0.4,0.3c0,0.8-0.1,1.6-0.5,2C75.3,9.3,75,9.5,74.6,9.5z
					 M69.2,9h5.4c0.3,0,0.4-0.1,0.6-0.3c0.2-0.3,0.3-0.8,0.4-1.4c-1.4,0.7-2.7,1-4,1c-1.2,0-2.4-0.4-3.6-1.1c0,0.5,0.1,0.9,0.3,1.2
					C68.5,8.8,68.8,8.9,69.2,9z M75.6,3.5c0.1,0.3,0.4,1.6,0.5,2.9c0.1,0,0.1-0.1,0.1-0.1l0,0c0.4-0.2,0.4-0.7,0.3-1.1
					c-0.1-0.1-0.1-0.3-0.2-0.5C76.1,4.3,75.8,3.6,75.6,3.5C75.6,3.5,75.6,3.5,75.6,3.5z M68.1,3.5c-0.3,0.2-0.8,1.4-1,1.8v0
					C67,5.6,67,5.9,67.3,6.1c0.1,0.1,0.1,0.1,0.2,0.2C67.6,5,68,3.8,68.1,3.5C68.1,3.5,68.1,3.5,68.1,3.5z M68.1,3.4L68.1,3.4z"/>
			</g>
			<g>
				<path class="st3" d="M72.3,12.4h-1.1c-0.8,0-1.4-0.6-1.4-1.4v-0.1l1.4-0.9c0.2-0.1,0.4-0.2,0.6-0.2c0.2,0,0.4,0.1,0.6,0.3
					l1.3,0.9v0.1C73.7,11.8,73.1,12.4,72.3,12.4z M70.4,11.2c0.1,0.4,0.4,0.7,0.8,0.7h1.1c0.4,0,0.7-0.3,0.8-0.7l-1.1-0.7l0,0
					c-0.1-0.1-0.1-0.1-0.2-0.1s-0.2,0-0.2,0.1l0,0L70.4,11.2z"/>
			</g>
		</g>
	</g>
	<g id="Couleurs_x2B_Typo_00000147912154443491828140000009215541513512337591_">
	</g>
</g>
<g>
	<g id="Avatar_00000083072122612853486500000016007697427968433839_">
	</g>
	<g id="Moodboard_00000153691320603391027320000003637916077488198581_">
	</g>
	<g id="Logos_00000052085952691829447120000005468232654608553879_">
		<path class="st1" d="M55.5,0.8c3.5,0,6.3,2.8,6.3,6.3s-2.8,6.3-6.3,6.3s-6.3-2.8-6.3-6.3S52,0.8,55.5,0.8 M55.5,0.3
			c-3.7,0-6.8,3.1-6.8,6.8s3.1,6.8,6.8,6.8s6.8-3.1,6.8-6.8S59.3,0.3,55.5,0.3L55.5,0.3z"/>
		<g>
			<g>
				<path class="st1" d="M58.3,9.3C58.3,9.3,58.3,9.3,58.3,9.3h-5.4c-0.6,0-1.1-0.3-1.4-0.8c-0.3-0.5-0.4-1.1-0.4-1.8
					c-0.2-0.1-0.3-0.2-0.5-0.4C50.2,6,50,5.4,50.3,4.8v0c0.7-1.5,1.1-2.2,1.5-2.2c0.3,0,0.6,0.3,0.6,0.6v0.1l0,0
					c-0.4,0.9-0.6,2.1-0.7,3c2.4,1.5,4.8,1.5,7.6,0.1c0-1.1-0.3-2.4-0.5-3.1l0,0v0c0-0.3,0.3-0.6,0.6-0.6c0.4,0,0.6,0.5,1.1,1.6
					c0.1,0.2,0.1,0.3,0.2,0.4c0.3,0.7,0.1,1.4-0.5,1.8l0,0c-0.1,0.1-0.3,0.2-0.4,0.3c0,0.8-0.1,1.6-0.5,2C59,9.1,58.7,9.3,58.3,9.3z
					 M52.9,8.7h5.4c0.3,0,0.4-0.1,0.6-0.3c0.2-0.3,0.3-0.8,0.4-1.4c-1.4,0.7-2.7,1-4,1C54,8,52.8,7.7,51.7,7c0,0.5,0.1,0.9,0.3,1.2
					C52.2,8.5,52.5,8.7,52.9,8.7z M59.3,3.2c0.1,0.3,0.4,1.6,0.5,2.9c0.1,0,0.1-0.1,0.1-0.1l0,0c0.4-0.2,0.4-0.7,0.3-1.1
					C60.1,4.8,60,4.7,60,4.5C59.8,4.1,59.5,3.4,59.3,3.2C59.3,3.2,59.3,3.2,59.3,3.2z M51.8,3.2c-0.3,0.2-0.8,1.4-1,1.8v0
					c-0.1,0.3-0.1,0.6,0.2,0.8C51,5.9,51.1,6,51.2,6C51.3,4.8,51.7,3.6,51.8,3.2C51.8,3.2,51.8,3.2,51.8,3.2z M51.8,3.2L51.8,3.2z"
					/>
			</g>
			<g>
				<path class="st1" d="M56,12.2h-1.1c-0.8,0-1.4-0.6-1.4-1.4v-0.1l1.4-0.9c0.2-0.1,0.4-0.2,0.6-0.2c0.2,0,0.4,0.1,0.6,0.3l1.3,0.9
					v0.1C57.4,11.6,56.8,12.2,56,12.2z M54.1,11c0.1,0.4,0.4,0.7,0.8,0.7H56c0.4,0,0.7-0.3,0.8-0.7l-1.1-0.7l0,0
					c-0.1-0.1-0.1-0.1-0.2-0.1c-0.1,0-0.2,0-0.2,0.1l0,0L54.1,11z"/>
			</g>
		</g>
	</g>
	<g id="Couleurs_x2B_Typo_00000076585371787612292900000000566038421946113201_">
	</g>
</g>
<g>
	<g id="Avatar_00000163046536108670155030000015257924065951105672_">
	</g>
	<g id="Moodboard_00000150785465539723130800000013573917676574045112_">
	</g>
	<g id="Logos_00000181069488031043730820000002443821583884254139_">
		<g>
			<g>
				<path class="st1" d="M154.6,9.7C154.6,9.7,154.6,9.7,154.6,9.7H149c-0.6,0-1.1-0.3-1.4-0.8c-0.3-0.5-0.4-1.2-0.4-1.9
					c-0.2-0.1-0.4-0.2-0.5-0.4c-0.4-0.3-0.6-1-0.3-1.5v0c0.7-1.6,1.1-2.2,1.6-2.2c0.3,0,0.6,0.3,0.6,0.6v0.1l0,0
					c-0.4,1-0.7,2.1-0.7,3.1c2.5,1.6,5,1.6,7.8,0.1c0-1.1-0.3-2.4-0.5-3.2l0,0v0c0-0.3,0.3-0.6,0.6-0.6c0.4,0,0.6,0.5,1.2,1.7
					c0.1,0.2,0.1,0.3,0.2,0.5c0.3,0.7,0.1,1.5-0.5,1.8l0,0c-0.1,0.1-0.3,0.2-0.4,0.3c0,0.8-0.1,1.6-0.5,2.1
					C155.3,9.5,155,9.7,154.6,9.7z M149,9.1h5.5c0.3,0,0.5-0.1,0.6-0.3c0.2-0.3,0.4-0.8,0.4-1.4c-1.4,0.7-2.8,1.1-4.1,1.1
					c-1.3,0-2.5-0.4-3.7-1.1c0,0.5,0.1,0.9,0.3,1.2C148.3,8.9,148.6,9.1,149,9.1z M155.6,3.4c0.1,0.4,0.4,1.7,0.5,3
					c0.1,0,0.1-0.1,0.2-0.1l0,0c0.4-0.2,0.4-0.8,0.3-1.1c-0.1-0.1-0.1-0.3-0.2-0.5C156.1,4.3,155.8,3.6,155.6,3.4
					C155.6,3.4,155.6,3.4,155.6,3.4z M147.9,3.4c-0.3,0.2-0.9,1.4-1.1,1.9v0c-0.1,0.3-0.1,0.6,0.2,0.8c0.1,0.1,0.2,0.1,0.2,0.2
					C147.4,5,147.8,3.8,147.9,3.4C147.9,3.4,147.9,3.4,147.9,3.4z M147.9,3.4L147.9,3.4z"/>
			</g>
			<g>
				<path class="st1" d="M152.2,12.7h-1.1c-0.8,0-1.4-0.6-1.4-1.4v-0.2l1.4-0.9c0.2-0.2,0.4-0.2,0.6-0.2c0.2,0,0.4,0.1,0.6,0.3
					l1.3,0.9v0.1C153.7,12.1,153,12.7,152.2,12.7z M150.3,11.4c0.1,0.4,0.4,0.7,0.8,0.7h1.2c0.4,0,0.8-0.3,0.8-0.7l-1.1-0.7l0,0
					c-0.1-0.1-0.1-0.1-0.2-0.1c-0.1,0-0.2,0-0.2,0.1l0,0L150.3,11.4z"/>
			</g>
		</g>
	</g>
	<g id="Couleurs_x2B_Typo_00000087375212826406520240000010665398005826123147_">
	</g>
</g>
<g>
	<g id="Avatar_00000121273224566046445500000011228977305126701736_">
	</g>
	<g id="Moodboard_00000117650240383946431580000000002738118825666181_">
	</g>
	<g id="Logos_00000178195832606000624600000001508686058915392439_">
		<g>
			<g>
				<path class="st4" d="M138.1,10.2C138.1,10.2,138.1,10.2,138.1,10.2h-5.6c-0.6,0-1.1-0.3-1.4-0.8c-0.3-0.5-0.4-1.2-0.4-1.9
					c-0.2-0.1-0.4-0.2-0.5-0.4c-0.4-0.3-0.6-1-0.3-1.5v0c0.7-1.6,1.1-2.2,1.6-2.2c0.3,0,0.6,0.3,0.6,0.6v0.1l0,0
					c-0.4,1-0.7,2.1-0.7,3.1c2.5,1.6,5,1.6,7.8,0.1c0-1.1-0.3-2.4-0.5-3.2l0,0v0c0-0.3,0.3-0.6,0.6-0.6c0.4,0,0.6,0.5,1.2,1.7
					c0.1,0.2,0.1,0.3,0.2,0.5c0.3,0.7,0.1,1.5-0.5,1.8l0,0c-0.1,0.1-0.3,0.2-0.4,0.3c0,0.8-0.1,1.6-0.5,2.1
					C138.9,10,138.5,10.2,138.1,10.2z M132.6,9.6h5.5c0.3,0,0.5-0.1,0.6-0.3c0.2-0.3,0.4-0.8,0.4-1.4C137.7,8.7,136.3,9,135,9
					c-1.3,0-2.5-0.4-3.7-1.1c0,0.5,0.1,0.9,0.3,1.2C131.8,9.4,132.1,9.6,132.6,9.6z M139.2,4c0.1,0.4,0.4,1.7,0.5,3
					c0.1,0,0.1-0.1,0.2-0.1l0,0c0.4-0.2,0.4-0.8,0.3-1.1c-0.1-0.1-0.1-0.3-0.2-0.5C139.7,4.9,139.4,4.1,139.2,4
					C139.2,4,139.2,4,139.2,4z M131.4,4c-0.3,0.2-0.9,1.4-1.1,1.9v0c-0.1,0.3-0.1,0.6,0.2,0.8c0.1,0.1,0.2,0.1,0.2,0.2
					C130.9,5.6,131.3,4.4,131.4,4C131.5,4,131.5,4,131.4,4z M131.5,3.9L131.5,3.9z"/>
			</g>
			<g>
				<path class="st4" d="M135.8,13.2h-1.1c-0.8,0-1.4-0.6-1.4-1.4v-0.2l1.4-0.9c0.2-0.2,0.4-0.2,0.6-0.2c0.2,0,0.4,0.1,0.6,0.3
					l1.3,0.9v0.1C137.2,12.6,136.6,13.2,135.8,13.2z M133.8,12c0.1,0.4,0.4,0.7,0.8,0.7h1.2c0.4,0,0.8-0.3,0.8-0.7l-1.1-0.7l0,0
					c-0.1-0.1-0.1-0.1-0.2-0.1s-0.2,0-0.2,0.1l0,0L133.8,12z"/>
			</g>
		</g>
	</g>
	<g id="Couleurs_x2B_Typo_00000140706420589553281700000011492375878385694354_">
	</g>
</g>
<g>
	<g id="Avatar_00000062185331631953363150000012685745511507708328_">
	</g>
	<g id="Moodboard_00000047062107657407655510000010664144840598631864_">
	</g>
	<g id="Logos_00000038387564553153631540000010132208548043057538_">
		<g>
			<g>
				<path class="st3" d="M122.7,10C122.7,10,122.6,10,122.7,10h-5.6c-0.6,0-1.1-0.3-1.4-0.8c-0.3-0.5-0.4-1.2-0.4-1.9
					c-0.2-0.1-0.4-0.2-0.5-0.4c-0.4-0.3-0.6-1-0.3-1.5v0c0.7-1.6,1.1-2.2,1.6-2.2c0.3,0,0.6,0.3,0.6,0.6v0.1l0,0
					c-0.4,1-0.7,2.1-0.7,3.1c2.5,1.6,5,1.6,7.8,0.1c0-1.1-0.3-2.4-0.5-3.2l0,0v0c0-0.3,0.3-0.6,0.6-0.6c0.4,0,0.6,0.5,1.2,1.7
					c0.1,0.2,0.1,0.3,0.2,0.5c0.3,0.7,0.1,1.5-0.5,1.8l0,0c-0.1,0.1-0.3,0.2-0.4,0.3c0,0.8-0.1,1.6-0.5,2.1
					C123.4,9.9,123.1,10,122.7,10z M117.1,9.5h5.5c0.3,0,0.5-0.1,0.6-0.3c0.2-0.3,0.4-0.8,0.4-1.4c-1.4,0.7-2.8,1.1-4.1,1.1
					c-1.3,0-2.5-0.4-3.7-1.1c0,0.5,0.1,0.9,0.3,1.2C116.3,9.3,116.7,9.4,117.1,9.5z M123.7,3.8c0.1,0.4,0.4,1.7,0.5,3
					c0.1,0,0.1-0.1,0.2-0.1l0,0c0.4-0.2,0.4-0.8,0.3-1.1c-0.1-0.1-0.1-0.3-0.2-0.5C124.2,4.7,123.9,4,123.7,3.8
					C123.7,3.8,123.7,3.8,123.7,3.8z M116,3.8c-0.3,0.2-0.9,1.4-1.1,1.9v0c-0.1,0.3-0.1,0.6,0.2,0.8c0.1,0.1,0.2,0.1,0.2,0.2
					C115.4,5.4,115.9,4.2,116,3.8C116,3.8,116,3.8,116,3.8z M116,3.8L116,3.8z"/>
			</g>
			<g>
				<path class="st3" d="M120.3,13.1h-1.1c-0.8,0-1.4-0.6-1.4-1.4v-0.2l1.4-0.9c0.2-0.2,0.4-0.2,0.6-0.2c0.2,0,0.4,0.1,0.6,0.3
					l1.3,0.9v0.1C121.7,12.4,121.1,13.1,120.3,13.1z M118.3,11.8c0.1,0.4,0.4,0.7,0.8,0.7h1.2c0.4,0,0.8-0.3,0.8-0.7l-1.1-0.7l0,0
					c-0.1-0.1-0.1-0.1-0.2-0.1s-0.2,0-0.2,0.1l0,0L118.3,11.8z"/>
			</g>
		</g>
	</g>
	<g id="Couleurs_x2B_Typo_00000143586220926809577630000015753480669476786327_">
	</g>
</g>
<g>
	<g id="Avatar_00000129906527536449737570000009129864296656045998_">
	</g>
	<g id="Moodboard_00000107555472790965166950000010589719705572275343_">
	</g>
	<g id="Logos_00000107587578270689246610000016914283132939164044_">
		<g>
			<g>
				<path class="st1" d="M106.4,9.9C106.4,9.9,106.4,9.9,106.4,9.9h-5.6c-0.6,0-1.1-0.3-1.4-0.8C99.1,8.6,99,7.9,99,7.2
					c-0.2-0.1-0.4-0.2-0.5-0.4c-0.4-0.3-0.6-1-0.3-1.5v0c0.7-1.6,1.1-2.2,1.6-2.2c0.3,0,0.6,0.3,0.6,0.6v0.1l0,0
					c-0.4,1-0.7,2.1-0.7,3.1c2.5,1.6,5,1.6,7.8,0.1c0-1.1-0.3-2.4-0.5-3.2l0,0v0c0-0.3,0.3-0.6,0.6-0.6c0.4,0,0.6,0.5,1.2,1.7
					c0.1,0.2,0.1,0.3,0.2,0.5c0.3,0.7,0.1,1.5-0.5,1.8l0,0c-0.1,0.1-0.3,0.2-0.4,0.3c0,0.8-0.1,1.6-0.5,2.1
					C107.2,9.7,106.8,9.9,106.4,9.9z M100.8,9.3h5.5c0.3,0,0.5-0.1,0.6-0.3c0.2-0.3,0.4-0.8,0.4-1.4c-1.4,0.7-2.8,1.1-4.1,1.1
					c-1.3,0-2.5-0.4-3.7-1.1c0,0.5,0.1,0.9,0.3,1.2C100.1,9.1,100.4,9.3,100.8,9.3z M107.4,3.7c0.1,0.4,0.4,1.7,0.5,3
					c0.1,0,0.1-0.1,0.2-0.1l0,0c0.4-0.2,0.4-0.8,0.3-1.1c-0.1-0.1-0.1-0.3-0.2-0.5C107.9,4.5,107.6,3.8,107.4,3.7
					C107.4,3.6,107.4,3.7,107.4,3.7z M99.7,3.6c-0.3,0.2-0.9,1.4-1.1,1.9v0c-0.1,0.3-0.1,0.6,0.2,0.8c0.1,0.1,0.2,0.1,0.2,0.2
					C99.2,5.3,99.6,4,99.7,3.6C99.7,3.7,99.7,3.6,99.7,3.6z M99.7,3.6L99.7,3.6z"/>
			</g>
			<g>
				<path class="st1" d="M104.1,12.9h-1.1c-0.8,0-1.4-0.6-1.4-1.4v-0.2l1.4-0.9c0.2-0.2,0.4-0.2,0.6-0.2c0.2,0,0.4,0.1,0.6,0.3
					l1.3,0.9v0.1C105.5,12.3,104.8,12.9,104.1,12.9z M102.1,11.7c0.1,0.4,0.4,0.7,0.8,0.7h1.2c0.4,0,0.8-0.3,0.8-0.7l-1.1-0.7l0,0
					c-0.1-0.1-0.1-0.1-0.2-0.1c-0.1,0-0.2,0-0.2,0.1l0,0L102.1,11.7z"/>
			</g>
		</g>
	</g>
	<g id="Couleurs_x2B_Typo_00000106856445933704743550000007207974703722826897_">
	</g>
</g>
</svg>
