<?xml version="1.0" encoding="utf-8"?>
<!-- Generator: Adobe Illustrator 27.8.1, SVG Export Plug-In . SVG Version: 6.00 Build 0)  -->
<svg version="1.1" id="Calque_1" xmlns="http://www.w3.org/2000/svg" xmlns:xlink="http://www.w3.org/1999/xlink" x="0px" y="0px"
	 viewBox="0 0 64 16" style="enable-background:new 0 0 64 16;" xml:space="preserve">
<style type="text/css">
	.st0{display:none;fill:#FFFF00;}
	.st1{fill:#FF0049;}
	.st2{fill:#FFFFFF;}
</style>
<path class="st0" d="M5,2H3v1H2v2H1v5h1v2h1v1h2v1h5v-1h2v-1h1v-2h1V5h-1V3h-1V2h-2V1H5V2z"/>
<path class="st0" d="M30,10V5h-1V3h-1V2h-2V1h-5v1h-2v1h-1v2h2v1h3v1h3v1h-3v1h-3v1h-2v2h1v1h2v1h5v-1h2v-1h1v-2H30z"/>
<path class="st0" d="M46,10V5h-1V3h-1V2h-2V1h-5v2h1v1h1v1h1v1h1v1h1v1h-1v1h-1v1h-1v1h-1v1h-1v2h5v-1h2v-1h1v-2H46z"/>
<path class="st0" d="M62,10V5h-1V3h-1V2h-2V1h-5v1h-2v1h-1v2h2v1h3v1h3v1h-3v1h-3v1h-2v2h1v1h2v1h5v-1h2v-1h1v-2H62z"/>
<g>
	<g id="Avatar_00000104678914578996509530000010658002514391796878_">
	</g>
	<g id="Moodboard_00000163752114876165006790000007840307793211383699_">
	</g>
	<g id="Logos_00000166634842021000450540000005839686941191996829_">
		<circle class="st1" cx="7.5" cy="7.5" r="6.8"/>
		<g>
			<g>
				<path class="st2" d="M10.3,9.9C10.3,9.9,10.2,9.9,10.3,9.9H4.9c-0.6,0-1-0.3-1.3-0.8C3.3,8.7,3.2,8,3.2,7.3C3,7.2,2.9,7.1,2.7,7
					C2.3,6.6,2.1,6,2.4,5.5l0,0c0.7-1.5,1-2.1,1.5-2.1c0.3,0,0.6,0.3,0.6,0.6l0,0l0,0C4.1,5,3.8,6.1,3.7,7c2.4,1.5,4.8,1.5,7.4,0.1
					c0-1.1-0.3-2.3-0.5-3.1l0,0l0,0c0-0.3,0.3-0.6,0.6-0.6c0.4,0,0.6,0.5,1.1,1.6c0.1,0.2,0.1,0.3,0.2,0.4C12.8,6,12.6,6.8,12,7.1
					l0,0c-0.1,0.1-0.3,0.2-0.4,0.2c0,0.8-0.1,1.5-0.5,2C11,9.7,10.7,9.9,10.3,9.9z M5,9.4h5.3c0.2,0,0.4-0.1,0.6-0.3
					c0.2-0.3,0.3-0.8,0.4-1.4c-1.4,0.7-2.7,1-4,1c-1.2,0-2.4-0.4-3.5-1c0,0.5,0.1,0.9,0.3,1.2C4.2,9.1,4.5,9.3,5,9.4z M11.3,4
					c0.1,0.3,0.4,1.6,0.4,2.9c0.1,0,0.1-0.1,0.1-0.1l0,0c0.4-0.2,0.4-0.7,0.3-1.1C12,5.6,12,5.4,11.9,5.2C11.7,4.8,11.4,4.1,11.3,4
					C11.3,3.9,11.3,3.9,11.3,4z M3.9,3.9c-0.2,0.2-0.8,1.4-1,1.8l0,0C2.7,6,2.8,6.4,3,6.5c0.1,0.1,0.1,0.1,0.2,0.2
					C3.4,5.5,3.8,4.3,3.9,3.9C3.9,4,3.9,3.9,3.9,3.9z M3.9,3.9L3.9,3.9z"/>
			</g>
			<g>
				<path class="st2" d="M8,12.8H7c-0.7,0-1.3-0.6-1.3-1.3v-0.1l1.3-1c0.2-0.1,0.4-0.2,0.6-0.2s0.4,0.1,0.6,0.2l1.2,0.8v0.1
					C9.4,12.2,8.8,12.8,8,12.8z M6.2,11.6C6.3,12,6.6,12.3,7,12.3h1c0.4,0,0.7-0.3,0.8-0.7l-1-0.7l0,0c-0.1-0.1-0.1-0.1-0.2-0.1
					s-0.2,0-0.2,0.1l0,0L6.2,11.6z"/>
			</g>
		</g>
	</g>
	<g id="Couleurs_x2B_Typo_00000065057232534359504660000000131769811931437464_">
	</g>
</g>
<g>
	<g id="Avatar_00000026144899679405953990000011558127630401987487_">
	</g>
	<g id="Moodboard_00000101818062078640899700000006954419738010416781_">
	</g>
	<g id="Logos_00000049193216936179870800000002973171370255753874_">
		<circle class="st1" cx="23.6" cy="7.6" r="6.8"/>
		<g>
			<g>
				<path class="st2" d="M26.4,10C26.4,10,26.3,10,26.4,10H21c-0.6,0-1-0.3-1.3-0.8s-0.4-1.1-0.4-1.8C19.1,7.3,19,7.2,18.8,7
					c-0.4-0.3-0.6-0.9-0.3-1.4l0,0c0.7-1.5,1.1-2.1,1.5-2.1c0.3,0,0.6,0.3,0.6,0.6v0.1l0,0c-0.4,0.9-0.6,2-0.7,3
					c2.4,1.5,4.8,1.5,7.4,0.1c0-1.1-0.3-2.3-0.5-3.1l0,0l0,0c0-0.3,0.3-0.6,0.6-0.6c0.4,0,0.6,0.5,1.1,1.6c0.1,0.2,0.1,0.3,0.2,0.4
					C29,6.2,28.8,7,28.2,7.3l0,0c-0.1,0.1-0.3,0.2-0.4,0.2c0,0.8-0.1,1.5-0.5,2C27.1,9.8,26.8,10,26.4,10z M21.1,9.4h5.3
					c0.2,0,0.4-0.1,0.6-0.3c0.2-0.3,0.3-0.8,0.4-1.4c-1.4,0.7-2.7,1-4,1c-1.2,0-2.4-0.4-3.5-1c0,0.5,0.1,0.9,0.3,1.2
					C20.3,9.2,20.6,9.4,21.1,9.4z M27.4,4c0.1,0.3,0.4,1.6,0.4,2.9c0.1,0,0.1-0.1,0.1-0.1l0,0c0.4-0.2,0.4-0.7,0.3-1.1
					c-0.1-0.1-0.1-0.3-0.2-0.5C27.8,4.9,27.5,4.2,27.4,4L27.4,4z M20,4c-0.2,0.2-0.8,1.4-1,1.8l0,0c-0.1,0.3-0.1,0.6,0.2,0.8
					c0.1,0.1,0.1,0.1,0.2,0.2C19.5,5.6,19.9,4.4,20,4L20,4z M20,4L20,4z"/>
			</g>
			<g>
				<path class="st2" d="M24.1,12.9H23c-0.7,0-1.3-0.6-1.3-1.3v-0.1l1.4-0.9c0.2-0.1,0.4-0.2,0.6-0.2s0.4,0.1,0.6,0.2l1.2,0.8v0.1
					C25.5,12.3,24.9,12.9,24.1,12.9z M22.2,11.7c0.1,0.4,0.4,0.7,0.8,0.7h1.1c0.4,0,0.7-0.3,0.8-0.7l-1-0.7l0,0
					c-0.1-0.1-0.1-0.1-0.2-0.1s-0.2,0-0.2,0.1l0,0L22.2,11.7z"/>
			</g>
		</g>
	</g>
	<g id="Couleurs_x2B_Typo_00000140736501517044113090000017298785477498927001_">
	</g>
</g>
<g>
	<g id="Avatar_00000124121367037429828470000003804749694003405958_">
	</g>
	<g id="Moodboard_00000038378549515297587380000006497198399332206477_">
	</g>
	<g id="Logos_00000102509430478096433990000005654454188534072455_">
		<circle class="st1" cx="39.9" cy="7.3" r="6.8"/>
		<g>
			<g>
				<path class="st2" d="M42.7,9.7L42.7,9.7h-5.3c-0.6,0-1-0.3-1.3-0.8s-0.4-1.1-0.4-1.8c-0.2-0.1-0.3-0.2-0.5-0.4
					c-0.4-0.3-0.6-0.9-0.3-1.4l0,0c0.7-1.5,1.1-2.1,1.5-2.1c0.3,0,0.6,0.3,0.6,0.6v0.1l0,0c-0.4,0.9-0.6,2-0.7,3
					c2.4,1.5,4.8,1.5,7.4,0.1c0-1.1-0.3-2.3-0.5-3.1l0,0l0,0c0-0.3,0.3-0.6,0.6-0.6c0.4,0,0.6,0.5,1.1,1.6c0,0,0.1,0.2,0.1,0.3
					c0.3,0.6,0.1,1.4-0.5,1.7l0,0c-0.1,0.1-0.3,0.2-0.4,0.2c0,0.8-0.1,1.5-0.5,2C43.4,9.5,43.1,9.7,42.7,9.7z M37.4,9.1h5.3
					c0.2,0,0.4-0.1,0.6-0.3c0.2-0.3,0.3-0.8,0.4-1.4c-1.4,0.7-2.7,1-4,1c-1.2,0-2.4-0.4-3.5-1c0,0.5,0.1,0.9,0.3,1.2
					S37,9.1,37.4,9.1z M43.7,3.7c0.1,0.3,0.4,1.6,0.4,2.9c0.1,0,0.1-0.1,0.1-0.1l0,0c0.4-0.2,0.4-0.7,0.3-1.1
					c-0.1-0.1-0.1-0.3-0.2-0.5C44.2,4.6,43.9,3.9,43.7,3.7L43.7,3.7z M36.3,3.7c-0.2,0.2-0.8,1.4-1,1.8l0,0
					c-0.1,0.3-0.1,0.6,0.2,0.8c0.1,0.1,0.1,0.1,0.2,0.2C35.8,5.3,36.2,4.1,36.3,3.7L36.3,3.7z M36.3,3.7L36.3,3.7z"/>
			</g>
			<g>
				<path class="st2" d="M40.5,12.6h-1.1c-0.7,0-1.3-0.6-1.3-1.3v-0.1l1.4-0.9c0.2-0.1,0.4-0.2,0.6-0.2c0.2,0,0.4,0.1,0.6,0.2
					l1.2,0.8v0.1C41.8,12,41.2,12.6,40.5,12.6z M38.6,11.4c0.1,0.4,0.4,0.7,0.8,0.7h1.1c0.4,0,0.7-0.3,0.8-0.7l-1-0.7l0,0
					c-0.1-0.1-0.1-0.1-0.2-0.1c-0.1,0-0.2,0-0.2,0.1l0,0L38.6,11.4z"/>
			</g>
		</g>
	</g>
	<g id="Couleurs_x2B_Typo_00000178170565389102784810000010771389347613197238_">
	</g>
</g>
<g>
	<g id="Avatar_00000099660843242966873510000018275297538885840543_">
	</g>
	<g id="Moodboard_00000108304001306161397840000014656773504065242278_">
	</g>
	<g id="Logos_00000158729656303073255200000000510211762530890379_">
		<circle class="st1" cx="55.6" cy="7.6" r="6.8"/>
		<g>
			<g>
				<path class="st2" d="M58.4,10C58.4,10,58.3,10,58.4,10H53c-0.6,0-1-0.3-1.3-0.8s-0.4-1.1-0.4-1.8C51.1,7.3,51,7.2,50.8,7
					c-0.4-0.3-0.6-0.9-0.3-1.4l0,0c0.7-1.5,1.1-2.1,1.5-2.1c0.3,0,0.6,0.3,0.6,0.6v0.1l0,0c-0.4,0.9-0.6,2-0.7,3
					c2.4,1.5,4.8,1.5,7.4,0.1c0-1.1-0.3-2.3-0.5-3.1l0,0l0,0c0-0.3,0.3-0.6,0.6-0.6c0.4,0,0.6,0.5,1.1,1.6c0.1,0.2,0.1,0.3,0.2,0.4
					C61,6.2,60.8,7,60.2,7.3l0,0c-0.1,0.1-0.3,0.2-0.4,0.2c0,0.8-0.1,1.5-0.5,2C59.1,9.8,58.8,10,58.4,10z M53.1,9.4h5.3
					c0.2,0,0.4-0.1,0.6-0.3c0.2-0.3,0.3-0.8,0.4-1.4c-1.4,0.7-2.7,1-4,1c-1.2,0-2.4-0.4-3.5-1c0,0.5,0.1,0.9,0.3,1.2
					C52.3,9.2,52.6,9.4,53.1,9.4z M59.4,4c0.1,0.3,0.4,1.6,0.4,2.9c0.1,0,0.1-0.1,0.1-0.1l0,0c0.4-0.2,0.4-0.7,0.3-1.1
					c-0.1-0.1-0.1-0.3-0.2-0.5C59.8,4.9,59.5,4.2,59.4,4L59.4,4z M52,4c-0.2,0.2-0.8,1.4-1,1.8l0,0c-0.1,0.3-0.1,0.6,0.2,0.8
					c0.1,0.1,0.1,0.1,0.2,0.2C51.5,5.6,51.9,4.4,52,4L52,4z M52,4L52,4z"/>
			</g>
			<g>
				<path class="st2" d="M56.1,12.9H55c-0.7,0-1.3-0.6-1.3-1.3v-0.1l1.4-0.9c0.2-0.1,0.4-0.2,0.6-0.2c0.2,0,0.4,0.1,0.6,0.2l1.2,0.8
					v0.1C57.5,12.3,56.9,12.9,56.1,12.9z M54.2,11.7c0.1,0.4,0.4,0.7,0.8,0.7h1.1c0.4,0,0.7-0.3,0.8-0.7l-1-0.7l0,0
					c-0.1-0.1-0.1-0.1-0.2-0.1s-0.2,0-0.2,0.1l0,0L54.2,11.7z"/>
			</g>
		</g>
	</g>
	<g id="Couleurs_x2B_Typo_00000158005598599964925330000011659522514282014848_">
	</g>
</g>
</svg>
