<?xml version="1.0" encoding="utf-8"?>
<!-- Generator: Adobe Illustrator 27.8.1, SVG Export Plug-In . SVG Version: 6.00 Build 0)  -->
<svg version="1.1" id="Calque_1" xmlns="http://www.w3.org/2000/svg" xmlns:xlink="http://www.w3.org/1999/xlink" x="0px" y="0px"
	 viewBox="0 0 32 16" style="enable-background:new 0 0 32 16;" xml:space="preserve">
<style type="text/css">
	.st0{display:none;fill:#FF0000;}
	.st1{display:none;fill:#E0DDFF;}
	.st2{display:none;fill:#2121FF;}
	.st3{fill:#7A00F9;}
	.st4{fill:#FF0049;}
</style>
<path class="st0" d="M3,3v1H2v3H1v8h1v-1h1v-1h1v1h1v1h2v-2h2v2h2v-1h1v-1h1v1h1v1h1V7h-1V4h-1V3h-1V2h-2V1H6v1H5H4v1H3z"/>
<path class="st1" d="M8,5v1h2v2H9v1h2V8h1V5h-1V4H9v1H8z"/>
<path class="st2" d="M8,6v2h2V6H8z"/>
<path class="st1" d="M2,5v1h2v2H3v1h2V8h1V5H5V4H3v1H2z"/>
<path class="st2" d="M2,6v2h2V6H2z"/>
<path class="st0" d="M19,3v1h-1v3h-1v7h1v1h2v-1h1v-1h1v1h1v1h2v-1h1v-1h1v1h1v1h2v-1h1V7h-1V4h-1V3h-1V2h-2V1h-4v1h-1h-1v1H19z"/>
<path class="st1" d="M24,5v1h2v2h-1v1h2V8h1V5h-1V4h-2v1H24z"/>
<path class="st2" d="M24,6v2h2V6H24z"/>
<path class="st1" d="M18,5v1h2v2h-1v1h2V8h1V5h-1V4h-2v1H18z"/>
<path class="st2" d="M18,6v2h2V6H18z"/>
<g>
	<path class="st3" d="M8.9,15.8c5.5-1.6-0.4-4.6,1.6-5.7c1-0.5,2.7-0.5,2,2.3c3.3-2.7,2.4-8.8-1.5-10.9c0.8,0.8,1.4,1.9,1.4,3.2
		c0,2.4-2,4.4-4.4,4.4s-4.4-2-4.4-4.4c0-1.2,0.5-2.2,1.2-3c-4.7,2.4-3.8,9-0.7,10.7c-0.7-1.8-0.4-3.1,0.6-3.8
		C4.2,14.5,10.8,12.1,8.9,15.8L8.9,15.8z"/>
	<path class="st3" d="M9.4,15.4c0.1-0.5,0.2-0.9,0-1.2c-0.2-0.6-0.9-0.9-1.7-1.3c-1.4-0.6-3.1-1.3-2.8-4.4V8.1
		c0.8,0.7,1.9,1.1,3,1.1c2.5,0,4.6-2.1,4.6-4.6c0-0.7-0.2-1.5-0.5-2.1c1.2,1.1,2,2.7,2.1,4.5c0.3,1.9-0.2,3.6-1.2,4.8
		c0.1-0.8,0-1.3-0.3-1.7c-0.2-0.3-0.6-0.5-1.1-0.5c-0.4,0-0.7,0.1-1.1,0.3c-0.3,0.2-0.5,0.4-0.5,0.6c-0.2,0.5,0.1,1.1,0.5,1.7
		c0.4,0.7,0.8,1.4,0.6,2C10.8,14.7,10.3,15.1,9.4,15.4z M3.7,11.8c-1.2-1-1.9-2.7-1.9-4.6s0.8-3.5,2.1-4.6C3.6,3.3,3.4,4,3.4,4.7
		C3.4,6,4,7.2,4.9,8.1L4.6,8.3C3.6,9.1,3.3,10.4,3.7,11.8L3.7,11.8z M8.9,15.8c5.5-1.6-0.4-4.6,1.6-5.7c0.3-0.1,0.7-0.2,1-0.2
		c0.8,0,1.5,0.6,1,2.6c3.3-2.8,2.4-8.9-1.5-11c0.8,0.8,1.4,1.9,1.4,3.2c0,2.4-2,4.4-4.4,4.4s-4.4-2-4.4-4.4c0-1.2,0.5-2.2,1.2-3
		c-4.7,2.4-3.8,9-0.7,10.7c-0.7-1.8-0.4-3.1,0.6-3.8C4.2,14.5,10.8,12.1,8.9,15.8L8.9,15.8z"/>
	<path class="st4" d="M8,8.2c1.9,0,3.4-1.5,3.4-3.4S9.9,1.4,8,1.4S4.6,2.9,4.6,4.8C4.6,6.6,6.1,8.2,8,8.2z M8,2.4
		c1,0,1.9,0.8,1.9,1.9c0,1-0.8,1.9-1.9,1.9c-1,0-1.9-0.8-1.9-1.9S7,2.4,8,2.4z"/>
	<path class="st4" d="M8,1.2c2,0,3.5,1.6,3.5,3.5S10,8.3,8,8.3S4.5,6.7,4.5,4.8C4.5,2.8,6,1.2,8,1.2z M8,8c1.8,0,3.3-1.5,3.3-3.3
		S9.8,1.4,8,1.4S4.7,2.9,4.7,4.7C4.7,6.6,6.2,8,8,8z M8,2.3c1.1,0,2,0.9,2,2s-0.9,2-2,2c-1.1,0-2-0.9-2-2S6.9,2.3,8,2.3z M8,6
		c1,0,1.7-0.8,1.7-1.8S9,2.5,8,2.5S6.2,3.3,6.2,4.2C6.3,5.2,7,6,8,6z"/>
</g>
<g>
	<path class="st3" d="M23.9,15.7c5.4-1.5-0.4-4.5,1.6-5.6c1-0.5,2.7-0.5,2,2.3c3.3-2.7,2.4-8.9-1.5-10.9c0.8,0.8,1.4,1.9,1.4,3.2
		c0,2.4-2,4.4-4.4,4.4s-4.4-2-4.4-4.4c0-1.2,0.5-2.2,1.2-3c-4.7,2.4-3.8,9-0.7,10.7c-0.7-1.8-0.4-3.1,0.6-3.8
		C19.2,14.4,25.8,12,23.9,15.7L23.9,15.7z"/>
	<path class="st3" d="M24.4,15.3c0.2-0.5,0.2-0.8,0.1-1.2c-0.2-0.6-0.9-0.9-1.7-1.3c-1.4-0.6-3.1-1.3-2.8-4.4V8
		c0.8,0.7,1.9,1.1,3,1.1c2.5,0,4.6-2.1,4.6-4.6c0-0.7-0.2-1.5-0.5-2.1c1.2,1.1,2,2.7,2.1,4.5c0.2,1.8-0.3,3.5-1.4,4.7
		c0.1-0.7,0-1.3-0.3-1.7c-0.2-0.3-0.6-0.5-1.1-0.5c-0.4,0-0.7,0.1-1.1,0.3c-0.3,0.2-0.5,0.4-0.5,0.6c-0.1,0.5,0.2,1.1,0.6,1.7
		c0.4,0.7,0.8,1.4,0.6,2C25.8,14.6,25.3,15,24.4,15.3z M18.7,11.7c-1.2-1-1.9-2.7-1.9-4.6s0.8-3.5,2.1-4.6c-0.3,0.7-0.5,1.4-0.5,2.1
		c0,1.3,0.6,2.5,1.5,3.4l-0.3,0.2C18.6,9,18.3,10.3,18.7,11.7L18.7,11.7z M23.9,15.7c5.4-1.5-0.4-4.5,1.6-5.6c0.3-0.2,0.7-0.3,1-0.3
		c0.8,0,1.5,0.6,1,2.6c3.3-2.7,2.4-8.9-1.5-10.9c0.8,0.8,1.4,1.9,1.4,3.2c0,2.4-2,4.4-4.4,4.4s-4.4-2-4.4-4.4c0-1.2,0.5-2.2,1.2-3
		c-4.7,2.4-3.8,9-0.7,10.7c-0.7-1.8-0.4-3.1,0.6-3.8C19.2,14.4,25.8,12,23.9,15.7L23.9,15.7z"/>
	<path class="st4" d="M23,8.1c1.9,0,3.4-1.5,3.4-3.4S24.9,1.3,23,1.3s-3.4,1.5-3.4,3.4C19.6,6.5,21.1,8.1,23,8.1z M23,2.3
		c1,0,1.9,0.8,1.9,1.9c0,1-0.8,1.9-1.9,1.9c-1,0-1.9-0.8-1.9-1.9S22,2.3,23,2.3z"/>
	<path class="st4" d="M23,1.1c2,0,3.5,1.6,3.5,3.5c0,2-1.6,3.5-3.5,3.5c-2,0-3.5-1.6-3.5-3.5S21,1.1,23,1.1z M23,8
		c1.8,0,3.3-1.5,3.3-3.3S24.8,1.4,23,1.4s-3.3,1.5-3.3,3.3S21.2,8,23,8z M23,2.2c1.1,0,2,0.9,2,2s-0.9,2-2,2s-2-0.9-2-2
		S21.9,2.2,23,2.2z M23,5.9c1,0,1.7-0.8,1.7-1.8S23.9,2.4,23,2.4c-1,0-1.8,0.8-1.8,1.7S22,5.9,23,5.9z"/>
</g>
</svg>
