<?xml version="1.0" encoding="utf-8"?>
<!-- Generator: Adobe Illustrator 27.8.1, SVG Export Plug-In . SVG Version: 6.00 Build 0)  -->
<svg version="1.1" id="Calque_1" xmlns="http://www.w3.org/2000/svg" xmlns:xlink="http://www.w3.org/1999/xlink" x="0px" y="0px"
	 viewBox="0 0 24 16" style="enable-background:new 0 0 24 16;" xml:space="preserve">
<style type="text/css">
	.st0{display:none;fill:#FCB5FF;}
	.st1{display:none;fill-rule:evenodd;clip-rule:evenodd;fill:#FCB5FF;}
	.st2{fill:#FF0049;}
	.st3{font-family:'MobyBold';}
	.st4{font-size:7.5px;}
	.st5{letter-spacing:-1;}
</style>
<path class="st0" d="M4,5H3v1h1v4H3v1h3v-1H5V4H4V5z"/>
<path class="st1" d="M7,10V5h1v5H7z M10,10H8v1h2V10z M10,5H8V4h2V5z M10,5v5h1V5H10z"/>
<path class="st1" d="M12,10V5h1v5H12z M15,10h-2v1h2V10z M15,5h-2V4h2V5z M15,5v5h1V5H15z"/>
<path class="st1" d="M17,10V5h1v5H17z M20,10h-2v1h2V10z M20,5h-2V4h2V5z M20,5v5h1V5H20z"/>
<text transform="matrix(1 0 0 1 -7.177734e-02 10.4629)" class="st2 st3 st4 st5">3000</text>
</svg>
