<?xml version="1.0" encoding="utf-8"?>
<!-- Generator: Adobe Illustrator 27.8.1, SVG Export Plug-In . SVG Version: 6.00 Build 0)  -->
<svg version="1.1" id="Calque_1" xmlns="http://www.w3.org/2000/svg" xmlns:xlink="http://www.w3.org/1999/xlink" x="0px" y="0px"
	 viewBox="0 0 16 16" style="enable-background:new 0 0 16 16;" xml:space="preserve">
<style type="text/css">
	.st0{display:none;fill:#FCB5FF;}
	.st1{display:none;fill-rule:evenodd;clip-rule:evenodd;fill:#FCB5FF;}
	.st2{fill:#3BEABC;}
	.st3{font-family:'MobyBold';}
	.st4{font-size:7px;}
	.st5{letter-spacing:-1;}
</style>
<path class="st0" d="M3,5H2v1h1v4H2v1h3v-1H4V4H3V5z"/>
<path class="st1" d="M9,4H7v1H6v5h1v1h2v-1h1V5H9V4z M9,5v5H7V5H9z"/>
<path class="st1" d="M14,4h-2v1h-1v5h1v1h2v-1h1V5h-1V4z M14,5v5h-2V5H14z"/>
<text transform="matrix(1 0 0 1 -0.6808 10.6056)" class="st2 st3 st4 st5">800</text>
</svg>
