<?xml version="1.0" encoding="utf-8"?>
<!-- Generator: Adobe Illustrator 27.8.1, SVG Export Plug-In . SVG Version: 6.00 Build 0)  -->
<svg version="1.1" id="Calque_1" xmlns="http://www.w3.org/2000/svg" xmlns:xlink="http://www.w3.org/1999/xlink" x="0px" y="0px"
	 viewBox="0 0 80 16" style="enable-background:new 0 0 80 16;" xml:space="preserve">
<style type="text/css">
	.st0{display:none;fill:#FF0000;}
	.st1{display:none;fill-rule:evenodd;clip-rule:evenodd;fill:#FF0000;}
	.st2{fill:#FF0049;}
	.st3{font-family:'MobyBold';}
	.st4{font-size:11px;}
</style>
<path class="st0" d="M3,4h5v1H4v1H3v3h1v1h2V8H5V7h3v4H3v-1H2V9H1V6h1V5h1V4z"/>
<path class="st1" d="M9,11V6h1V5h1V4h3v1h1v1h1v5h-2V9h-3v2H9z M11,8V6h1V5h1v1h1v2H11z"/>
<path class="st0" d="M17,4v7h2V8h1v1h1V8h1v3h2V4h-2v1h-1v1h-1V5h-1V4H17z"/>
<path class="st0" d="M26,4v7h6v-1h-4V8h3V7h-3V5h4V4H26z"/>
<path class="st1" d="M48,10V5h1V4h5v1h1v5h-1v1h-5v-1H48z M50,10V5h3v5H50z"/>
<path class="st0" d="M58,4h-2v4h1v1h1v1h1v1h1v-1h1V9h1V8h1V4h-2v3h-1v1h-1V7h-1V4z"/>
<path class="st0" d="M65,4v7h6v-1h-4V8h3V7h-3V5h4V4H65z"/>
<path class="st1" d="M72,11V4h6v1h1v3h-2v1h1v1h1v1h-3v-1h-1V9h-1v2H72z M74,8V5h3v2h-1v1H74z"/>
<text transform="matrix(1 0 0 1 0 11)" class="st2 st3 st4">GAME OVER</text>
</svg>
