<?xml version="1.0" encoding="utf-8"?>
<!-- Generator: Adobe Illustrator 27.8.1, SVG Export Plug-In . SVG Version: 6.00 Build 0)  -->
<svg version="1.1" id="Calque_1" xmlns="http://www.w3.org/2000/svg" xmlns:xlink="http://www.w3.org/1999/xlink" x="0px" y="0px"
	 viewBox="0 0 32 16" style="enable-background:new 0 0 32 16;" xml:space="preserve">
<style type="text/css">
	.st0{display:none;fill:#FF0000;}
	.st1{display:none;fill:#E0DDFF;}
	.st2{display:none;fill:#2121FF;}
	.st3{fill:#7A00F9;}
	.st4{fill:#FF0049;}
</style>
<path class="st0" d="M3,3v1H2v3H1v8h1v-1h1v-1h1v1h1v1h2v-2h2v2h2v-1h1v-1h1v1h1v1h1V7h-1V4h-1V3h-1V2h-2V1H6v1H5H4v1H3z"/>
<path class="st1" d="M8,5v1h2v2H9v1h2V8h1V5h-1V4H9v1H8z"/>
<path class="st2" d="M8,6v2h2V6H8z"/>
<path class="st1" d="M2,5v1h2v2H3v1h2V8h1V5H5V4H3v1H2z"/>
<path class="st2" d="M2,6v2h2V6H2z"/>
<path class="st0" d="M19,3v1h-1v3h-1v7h1v1h2v-1h1v-1h1v1h1v1h2v-1h1v-1h1v1h1v1h2v-1h1V7h-1V4h-1V3h-1V2h-2V1h-4v1h-1h-1v1H19z"/>
<path class="st1" d="M24,5v1h2v2h-1v1h2V8h1V5h-1V4h-2v1H24z"/>
<path class="st2" d="M24,6v2h2V6H24z"/>
<path class="st1" d="M18,5v1h2v2h-1v1h2V8h1V5h-1V4h-2v1H18z"/>
<path class="st2" d="M18,6v2h2V6H18z"/>
<g>
	<path class="st3" d="M0.7,9.4C2.3,14.9,5.3,9,6.4,11c0.5,1,0.5,2.7-2.3,2c2.7,3.3,8.8,2.4,10.9-1.5c-0.8,0.8-1.9,1.4-3.2,1.4
		c-2.4,0-4.4-2-4.4-4.4s2-4.4,4.4-4.4c1.2,0,2.2,0.5,3,1.2c-2.4-4.7-9-3.8-10.7-0.7c1.8-0.7,3.1-0.4,3.8,0.6C2,4.7,4.4,11.3,0.7,9.4
		L0.7,9.4z"/>
	<path class="st3" d="M1.1,9.9c0.5,0.1,0.9,0.2,1.2,0C2.9,9.7,3.2,9,3.6,8.2C4.2,6.8,4.9,5.1,8,5.4h0.4c-0.7,0.8-1.1,1.9-1.1,3
		c0,2.5,2.1,4.6,4.6,4.6c0.7,0,1.5-0.2,2.1-0.5c-1.1,1.2-2.7,2-4.5,2.1c-1.9,0.3-3.6-0.2-4.8-1.2c0.8,0.1,1.3,0,1.7-0.3
		c0.3-0.2,0.5-0.6,0.5-1.1c0-0.4-0.1-0.7-0.3-1.1c-0.2-0.3-0.4-0.5-0.6-0.5c-0.5-0.2-1.1,0.1-1.7,0.5c-0.7,0.4-1.4,0.8-2,0.6
		C1.8,11.3,1.4,10.8,1.1,9.9z M4.7,4.2c1-1.2,2.7-1.9,4.6-1.9s3.5,0.8,4.6,2.1c-0.7-0.3-1.4-0.5-2.1-0.5c-1.3,0-2.5,0.6-3.4,1.5
		L8.2,5.1C7.4,4.1,6.1,3.8,4.7,4.2L4.7,4.2z M0.7,9.4C2.3,14.9,5.3,9,6.4,11c0.1,0.3,0.2,0.7,0.2,1c0,0.8-0.6,1.5-2.6,1
		c2.8,3.3,8.9,2.4,11-1.5c-0.8,0.8-1.9,1.4-3.2,1.4c-2.4,0-4.4-2-4.4-4.4s2-4.4,4.4-4.4c1.2,0,2.2,0.5,3,1.2
		c-2.4-4.7-9-3.8-10.7-0.7c1.8-0.7,3.1-0.4,3.8,0.6C2,4.7,4.4,11.3,0.7,9.4L0.7,9.4z"/>
	<path class="st4" d="M8.3,8.5c0,1.9,1.5,3.4,3.4,3.4s3.4-1.5,3.4-3.4s-1.5-3.4-3.4-3.4C9.9,5.1,8.3,6.6,8.3,8.5z M14.1,8.5
		c0,1-0.8,1.9-1.9,1.9c-1,0-1.9-0.8-1.9-1.9c0-1,0.8-1.9,1.9-1.9S14.1,7.5,14.1,8.5z"/>
	<path class="st4" d="M15.3,8.5c0,2-1.6,3.5-3.5,3.5s-3.6-1.5-3.6-3.5S9.8,5,11.7,5C13.7,5,15.3,6.5,15.3,8.5z M8.5,8.5
		c0,1.8,1.5,3.3,3.3,3.3s3.3-1.5,3.3-3.3s-1.5-3.3-3.3-3.3C9.9,5.2,8.5,6.7,8.5,8.5z M14.2,8.5c0,1.1-0.9,2-2,2s-2-0.9-2-2
		s0.9-2,2-2S14.2,7.4,14.2,8.5z M10.5,8.5c0,1,0.8,1.7,1.8,1.7S14,9.5,14,8.5s-0.8-1.8-1.7-1.8C11.3,6.8,10.5,7.5,10.5,8.5z"/>
</g>
<g>
	<path class="st3" d="M15.7,9.3c1.5,5.4,4.5-0.4,5.6,1.6c0.5,1,0.5,2.7-2.3,2c2.7,3.3,8.9,2.4,10.9-1.5c-0.8,0.8-1.9,1.4-3.2,1.4
		c-2.4,0-4.4-2-4.4-4.4s2-4.4,4.4-4.4c1.2,0,2.2,0.5,3,1.2c-2.4-4.7-9-3.8-10.7-0.7c1.8-0.7,3.1-0.4,3.8,0.6
		C17,4.6,19.4,11.2,15.7,9.3L15.7,9.3z"/>
	<path class="st3" d="M16.1,9.8c0.5,0.2,0.8,0.2,1.2,0.1c0.6-0.2,0.9-0.9,1.3-1.7c0.6-1.4,1.3-3.1,4.4-2.8h0.4
		c-0.7,0.8-1.1,1.9-1.1,3c0,2.5,2.1,4.6,4.6,4.6c0.7,0,1.5-0.2,2.1-0.5c-1.1,1.2-2.7,2-4.5,2.1c-1.8,0.2-3.5-0.3-4.7-1.4
		c0.7,0.1,1.3,0,1.7-0.3c0.3-0.2,0.5-0.6,0.5-1.1c0-0.4-0.1-0.7-0.3-1.1c-0.2-0.3-0.4-0.5-0.6-0.5c-0.5-0.1-1.1,0.2-1.7,0.6
		c-0.7,0.4-1.4,0.8-2,0.6C16.8,11.2,16.4,10.7,16.1,9.8z M19.7,4.1c1-1.2,2.7-1.9,4.6-1.9s3.5,0.8,4.6,2.1c-0.7-0.3-1.4-0.5-2.1-0.5
		c-1.3,0-2.5,0.6-3.4,1.5L23.2,5C22.4,4,21.1,3.7,19.7,4.1L19.7,4.1z M15.7,9.3c1.5,5.4,4.5-0.4,5.6,1.6c0.2,0.3,0.3,0.7,0.3,1
		c0,0.8-0.6,1.5-2.6,1c2.7,3.3,8.9,2.4,10.9-1.5c-0.8,0.8-1.9,1.4-3.2,1.4c-2.4,0-4.4-2-4.4-4.4s2-4.4,4.4-4.4c1.2,0,2.2,0.5,3,1.2
		c-2.4-4.7-9-3.8-10.7-0.7c1.8-0.7,3.1-0.4,3.8,0.6C17,4.6,19.4,11.2,15.7,9.3L15.7,9.3z"/>
	<path class="st4" d="M23.3,8.4c0,1.9,1.5,3.4,3.4,3.4s3.4-1.5,3.4-3.4S28.6,5,26.7,5C24.9,5,23.3,6.5,23.3,8.4z M29.1,8.4
		c0,1-0.8,1.9-1.9,1.9c-1,0-1.9-0.8-1.9-1.9c0-1,0.8-1.9,1.9-1.9C28.3,6.5,29.1,7.4,29.1,8.4z"/>
	<path class="st4" d="M30.3,8.4c0,2-1.6,3.5-3.5,3.5c-2,0-3.5-1.6-3.5-3.5c0-2,1.6-3.5,3.5-3.5S30.3,6.4,30.3,8.4z M23.4,8.4
		c0,1.8,1.5,3.3,3.3,3.3c1.8,0,3.3-1.5,3.3-3.3s-1.5-3.3-3.3-3.3C24.9,5.1,23.4,6.6,23.4,8.4z M29.2,8.4c0,1.1-0.9,2-2,2s-2-0.9-2-2
		s0.9-2,2-2S29.2,7.3,29.2,8.4z M25.5,8.4c0,1,0.8,1.7,1.8,1.7S29,9.3,29,8.4c0-1-0.8-1.8-1.7-1.8S25.5,7.4,25.5,8.4z"/>
</g>
</svg>
