<?xml version="1.0" encoding="utf-8"?>
<!-- Generator: Adobe Illustrator 27.8.1, SVG Export Plug-In . SVG Version: 6.00 Build 0)  -->
<svg version="1.1" id="Calque_1" xmlns="http://www.w3.org/2000/svg" xmlns:xlink="http://www.w3.org/1999/xlink" x="0px" y="0px"
	 viewBox="0 0 16 16" style="enable-background:new 0 0 16 16;" xml:space="preserve">
<style type="text/css">
	.st0{display:none;fill:#FFFF00;}
	.st1{fill:#FF0049;}
	.st2{fill:#FFFFFF;}
</style>
<path class="st0" d="M2,3v2h2v1h3v1h3v1H7v1H4v1H2v2h1v1h2v1h5v-1h2v-1h1v-2h1V5h-1V3h-1V2h-2V1H5v1H3v1H2z"/>
<g>
	<g id="Avatar_00000104678914578996509530000010658002514391796878_">
	</g>
	<g id="Moodboard_00000163752114876165006790000007840307793211383699_">
	</g>
	<g id="Logos_00000166634842021000450540000005839686941191996829_">
		<circle class="st1" cx="7.9" cy="8.2" r="6.8"/>
		<g>
			<g>
				<path class="st2" d="M10.7,10.6C10.7,10.6,10.6,10.6,10.7,10.6H5.3c-0.6,0-1-0.3-1.3-0.8C3.7,9.4,3.6,8.7,3.6,8
					C3.4,7.9,3.3,7.8,3.1,7.7c-0.4-0.4-0.6-1-0.3-1.5l0,0c0.7-1.5,1-2.1,1.5-2.1c0.3,0,0.6,0.3,0.6,0.6l0,0l0,0
					c-0.4,1-0.7,2.1-0.8,3c2.4,1.5,4.8,1.5,7.4,0.1c0-1.1-0.3-2.3-0.5-3.1l0,0l0,0c0-0.3,0.3-0.6,0.6-0.6c0.4,0,0.6,0.5,1.1,1.6
					c0.1,0.2,0.1,0.3,0.2,0.4c0.3,0.6,0.1,1.4-0.5,1.7l0,0C12.3,7.9,12.1,8,12,8c0,0.8-0.1,1.5-0.5,2C11.4,10.4,11.1,10.6,10.7,10.6
					z M5.4,10.1h5.3c0.2,0,0.4-0.1,0.6-0.3c0.2-0.3,0.3-0.8,0.4-1.4c-1.4,0.7-2.7,1-4,1c-1.2,0-2.4-0.4-3.5-1c0,0.5,0.1,0.9,0.3,1.2
					C4.6,9.8,4.9,10,5.4,10.1z M11.7,4.7c0.1,0.3,0.4,1.6,0.4,2.9c0.1,0,0.1-0.1,0.1-0.1l0,0c0.4-0.2,0.4-0.7,0.3-1.1
					c-0.1-0.1-0.1-0.3-0.2-0.5C12.1,5.5,11.8,4.8,11.7,4.7C11.7,4.6,11.7,4.6,11.7,4.7z M4.3,4.6C4.1,4.8,3.5,6,3.3,6.4l0,0
					C3.1,6.7,3.2,7.1,3.4,7.2c0.1,0.1,0.1,0.1,0.2,0.2C3.8,6.2,4.2,5,4.3,4.6C4.3,4.7,4.3,4.6,4.3,4.6z M4.3,4.6L4.3,4.6z"/>
			</g>
			<g>
				<path class="st2" d="M8.4,13.5h-1c-0.7,0-1.3-0.6-1.3-1.3v-0.1l1.3-1C7.6,11,7.8,10.9,8,10.9s0.4,0.1,0.6,0.2l1.2,0.8V12
					C9.8,12.9,9.2,13.5,8.4,13.5z M6.6,12.3C6.7,12.7,7,13,7.4,13h1c0.4,0,0.7-0.3,0.8-0.7l-1-0.7l0,0c-0.1-0.1-0.1-0.1-0.2-0.1
					s-0.2,0-0.2,0.1l0,0L6.6,12.3z"/>
			</g>
		</g>
	</g>
	<g id="Couleurs_x2B_Typo_00000065057232534359504660000000131769811931437464_">
	</g>
</g>
</svg>
